<svg version="1.1" id="Layer_1" xmlns="http://www.w3.org/2000/svg" xmlns:xlink="http://www.w3.org/1999/xlink" x="0px" y="0px"
	 width="100%" viewBox="0 0 740 586" enable-background="new 0 0 740 586" xml:space="preserve">
<path fill="#000000" opacity="1.000000" stroke="none" 
	d="
M741.000000,196.000000 
	C741.000000,326.666656 741.000000,456.833282 741.000000,587.000000 
	C494.333374,587.000000 247.666763,587.000000 1.000101,587.000000 
	C1.000067,391.666748 1.000067,196.333466 1.000034,1.000154 
	C247.666565,1.000102 494.333130,1.000102 740.999878,1.000051 
	C741.000000,65.833336 741.000000,130.666672 741.000000,196.000000 
M91.444603,209.060318 
	C91.254639,209.361328 91.064667,209.662338 90.955299,209.961014 
	C90.955299,209.961014 90.932167,209.883759 90.367767,210.169479 
	C90.194115,210.768921 90.020462,211.368378 89.940674,211.965057 
	C89.940674,211.965057 89.916908,211.874237 89.271622,212.233902 
	C89.484520,215.261368 89.697426,218.288818 89.914352,221.856277 
	C90.230957,222.248184 90.547562,222.640091 91.046242,223.576645 
	C91.343559,223.807343 91.640877,224.038040 92.191635,224.820740 
	C93.269897,225.236816 94.348160,225.652893 96.090225,226.725723 
	C111.038101,226.765594 125.985977,226.805466 141.828369,226.999100 
	C144.240158,226.900223 146.651932,226.801346 149.956451,226.830887 
	C166.019348,226.606750 182.082260,226.382629 198.416138,226.887955 
	C198.273361,230.260605 198.130569,233.633270 197.052979,237.006393 
	C182.430191,237.006393 167.807388,237.006393 153.189697,237.006393 
	C153.043503,238.608780 152.937714,239.768356 152.285767,241.568817 
	C152.487061,248.108383 152.771973,254.646851 152.859543,261.187927 
	C152.915619,265.377228 155.138412,265.257751 158.985031,264.239990 
	C175.577774,264.239990 192.170532,264.239990 208.612640,264.239990 
	C209.000412,259.970490 209.314178,256.515961 209.950500,252.382721 
	C212.152634,246.263443 213.626282,239.750961 216.680695,234.091660 
	C231.340027,206.930283 265.518555,197.726028 291.812012,213.867203 
	C305.156097,222.058945 313.508759,234.304672 317.860901,250.117676 
	C318.222534,251.828918 318.584137,253.540161 318.893127,255.637360 
	C318.893127,255.637360 319.070068,255.984375 318.986084,256.892212 
	C318.986084,258.825012 318.986084,260.757812 318.986084,262.901520 
	C320.645660,263.013214 321.779633,263.155396 322.913727,263.156403 
	C376.618347,263.203613 430.322998,263.247284 484.027588,263.221588 
	C485.291382,263.220978 486.554810,262.425720 487.977753,261.075775 
	C487.986053,241.785492 488.007782,222.495224 488.000031,203.204941 
	C487.978607,149.826294 487.944885,96.447647 488.132416,42.154118 
	C488.132416,38.431316 488.132416,34.708519 488.132416,31.189379 
	C492.925903,30.780392 496.990173,30.433626 501.928009,30.067827 
	C502.945038,29.391373 504.808868,28.755571 504.843597,28.031984 
	C505.095734,22.779648 504.979095,17.509609 504.979095,11.999032 
	C503.068420,11.999032 501.757568,11.999012 500.446716,11.999034 
	C368.138824,12.001208 235.830917,12.002594 103.523010,12.015542 
	C102.031876,12.015688 100.540749,12.166163 98.380852,12.390817 
	C93.821182,14.364753 90.829231,17.509356 90.940842,22.778473 
	C91.035721,27.257513 92.387871,31.055029 97.989456,32.962635 
	C107.154709,32.974625 116.319977,32.982365 125.485222,32.999382 
	C155.977798,33.055996 186.470367,33.115944 217.254272,33.798321 
	C222.429382,39.561333 222.364944,42.685577 216.032166,48.923759 
	C189.714813,48.730598 163.397461,48.537437 136.260208,48.094929 
	C130.154709,47.892300 127.098740,49.949455 126.039627,54.974998 
	C125.006821,59.875801 127.592346,63.787441 134.015930,65.945740 
	C138.678802,65.964203 143.341705,65.975418 148.004532,66.002441 
	C164.981064,66.100830 181.957565,66.204498 199.289047,66.911270 
	C202.331543,69.708488 201.083359,72.349754 198.059830,74.989670 
	C185.061066,74.772026 172.062286,74.554375 158.148315,74.119209 
	C153.751434,74.128784 149.354538,74.138351 144.032669,74.025658 
	C125.375320,73.802139 106.717979,73.578621 87.177948,73.106224 
	C85.517632,73.069389 83.857437,73.009041 82.196968,72.999985 
	C76.457870,72.968681 70.865074,77.325348 70.129486,82.977669 
	C69.523392,87.634987 70.580048,94.048294 78.991318,95.962090 
	C87.637413,95.917175 96.283516,95.872253 105.856056,95.983238 
	C110.593788,95.714272 115.331528,95.445312 120.987251,95.313133 
	C145.996414,95.214828 171.005569,95.116531 196.582062,95.418686 
	C204.824539,99.408768 205.365875,105.350777 197.062042,110.996490 
	C171.233154,110.950348 145.404251,110.883568 119.575417,110.904587 
	C117.856255,110.905983 116.137634,111.574295 113.759857,111.992149 
	C106.012993,118.017403 108.540909,126.415985 118.980316,128.964630 
	C139.656784,128.976791 160.333237,128.988937 181.446579,129.553345 
	C186.270477,133.477661 186.372620,136.140137 181.010849,141.921646 
	C178.345383,141.947098 175.679947,141.991028 173.014450,141.995224 
	C135.687439,142.054092 98.360443,142.107544 60.344894,142.194427 
	C52.169270,147.850204 51.981186,154.902008 60.340660,161.768951 
	C80.200493,161.790573 100.060318,161.812195 120.846817,161.997864 
	C124.615486,161.818756 128.384155,161.639664 132.944565,161.617050 
	C159.627655,161.418869 186.310745,161.220688 213.414658,161.592224 
	C218.638809,165.751968 218.521866,169.611801 212.098297,173.943222 
	C190.352509,173.882050 168.606659,173.783966 146.860992,173.812775 
	C144.503082,173.815887 142.146149,174.552933 139.092255,175.073135 
	C138.113724,176.542084 136.845581,177.895828 136.207382,179.500168 
	C133.599625,186.055832 137.360031,191.986069 144.361435,192.316788 
	C151.324402,192.645706 158.298660,192.853226 165.268539,192.869583 
	C168.936447,192.878189 172.664688,193.094559 173.801727,197.062698 
	C174.886230,200.847412 173.886810,204.573700 169.134186,206.970428 
	C158.435196,207.011307 147.736221,207.052200 136.345642,206.872574 
	C135.621399,206.861542 134.897171,206.850510 133.669998,206.506836 
	C132.702560,206.595413 131.735123,206.683990 130.156769,206.668945 
	C129.538666,206.677719 128.920547,206.686493 127.546707,206.278854 
	C120.680977,206.273270 113.815247,206.267685 106.055557,206.187866 
	C101.993881,206.765549 97.932198,207.343231 93.963715,207.944809 
	C93.963715,207.944809 93.967392,207.848663 93.345955,207.945023 
	C92.861748,208.277008 92.377541,208.608994 91.968506,208.967087 
	C91.968506,208.967087 91.963829,208.887665 91.444603,209.060318 
M593.039185,300.063934 
	C593.039185,300.063934 593.029114,300.179626 593.739014,300.078552 
	C594.559692,299.738159 595.380310,299.397766 596.916870,299.064911 
	C611.379700,293.446014 619.714417,282.185059 621.692444,267.568451 
	C625.469299,239.659317 601.012390,217.309402 575.070679,221.871811 
	C550.910889,226.120834 535.147522,251.062149 543.108765,275.433075 
	C547.380127,288.508606 556.784973,296.892975 570.675659,300.983368 
	C571.115479,300.956268 571.555298,300.929169 572.377563,301.071320 
	C572.377563,301.071320 572.795471,301.054108 573.358032,301.725891 
	C577.896912,301.772278 582.435852,301.818665 587.633667,301.976990 
	C588.430115,301.612030 589.226501,301.247070 590.714722,300.992645 
	C591.526672,300.694031 592.338562,300.395416 593.039185,300.063934 
M674.639099,208.507950 
	C674.483337,208.210373 674.327576,207.912796 674.289978,206.731842 
	C674.099670,199.191086 673.909424,191.650345 673.598633,183.382004 
	C670.707520,172.010162 663.776245,164.676987 652.214661,161.946060 
	C649.347046,161.268707 646.443176,160.679535 643.651062,159.760696 
	C636.918884,157.545212 630.456787,155.101135 625.971375,148.885895 
	C611.355225,128.632919 596.485474,108.562904 581.705200,88.428398 
	C575.315735,79.724342 567.167297,74.170235 555.033325,74.019073 
	C537.018127,74.004547 519.002991,73.990028 500.180450,74.325836 
	C500.123627,74.820038 500.017120,75.314232 500.017059,75.808441 
	C500.008240,137.048843 500.001831,198.289230 500.046967,259.529602 
	C500.047821,260.682953 500.664001,261.835876 501.909058,263.213287 
	C508.857910,263.204407 515.807739,263.126709 522.755066,263.225006 
	C525.097839,263.258118 526.656677,262.787354 526.898071,259.370819 
	C526.975952,257.542419 526.846252,255.677200 527.162903,253.891129 
	C531.836609,227.531799 551.738159,209.796432 573.533997,206.784912 
	C593.243103,204.061722 609.167847,210.296768 622.487183,224.563004 
	C629.185120,231.737106 632.735901,240.501999 635.852356,250.567871 
	C636.305359,254.614761 636.758362,258.661652 637.226318,262.842255 
	C644.531311,262.842255 651.742798,262.842255 659.703491,262.935852 
	C665.984192,261.309998 671.166870,258.281464 673.972961,251.320801 
	C674.025513,250.888000 674.078064,250.455200 674.039856,250.022812 
	C674.039856,250.022812 674.054199,250.112427 674.741577,249.576263 
	C674.775818,238.735733 674.809998,227.895187 674.995300,216.199219 
	C674.885864,214.764450 674.776428,213.329681 674.727539,211.161957 
	C674.626282,210.436462 674.525024,209.710983 674.639099,208.507950 
M257.000702,453.479645 
	C257.000702,456.922363 257.000702,460.365051 257.000702,463.771545 
	C265.606873,463.771545 273.674164,463.771545 282.118713,463.771545 
	C282.118713,439.468567 282.118713,415.452271 282.118713,390.707642 
	C293.483582,406.282623 304.459167,421.130127 315.180298,436.159149 
	C317.719635,439.718811 319.362396,439.911652 321.423645,436.079315 
	C321.810364,435.360291 322.403168,434.753510 322.888062,434.085632 
	C333.022278,420.127655 343.154694,406.168396 354.102783,391.086151 
	C354.102783,416.235962 354.102783,440.063934 354.102783,463.734741 
	C362.710175,463.734741 370.778290,463.734741 378.766113,463.734741 
	C378.766113,425.977448 378.766113,388.560638 378.766113,350.766235 
	C375.423737,350.766235 372.203339,351.270416 369.200073,350.676483 
	C357.926300,348.446960 351.559875,353.749359 345.843750,363.010193 
	C337.509369,376.512848 327.703156,389.107025 318.237030,402.494965 
	C306.332550,385.786987 294.858093,369.611786 283.252289,353.531342 
	C282.346649,352.276581 280.548706,350.959381 279.120392,350.907196 
	C271.865631,350.642242 264.595978,350.785065 257.000732,350.785065 
	C257.000732,384.907959 257.000732,418.695862 257.000702,453.479645 
M545.999817,382.500000 
	C545.999817,372.056122 545.999817,361.612274 545.999817,350.933777 
	C537.480286,350.933777 529.424255,350.933777 521.000671,350.933777 
	C521.000671,352.735046 521.000671,354.369812 521.000671,356.004608 
	C521.000610,377.986420 520.846375,399.969666 521.049011,421.949585 
	C521.213379,439.781982 529.871399,452.735840 545.479919,460.765350 
	C557.000732,466.692017 569.453430,467.187988 582.110474,465.034790 
	C603.193604,461.448090 619.667419,445.203064 619.941956,422.023895 
	C620.204163,399.878662 619.998230,377.727875 619.998108,355.579529 
	C619.998108,353.998871 619.998047,352.418182 619.998047,350.928131 
	C611.348145,350.928131 603.405884,350.928131 595.002991,350.928131 
	C595.002991,352.783783 595.002991,354.400879 595.002930,356.017975 
	C595.002686,375.834900 595.042847,395.651978 594.958374,415.468536 
	C594.945801,418.403900 594.560242,421.380127 593.979248,424.263306 
	C591.375977,437.181732 582.773315,443.712952 569.235046,443.218842 
	C557.017151,442.772919 547.986389,434.810730 547.095825,422.362427 
	C546.171997,409.448242 546.320312,396.457336 545.999817,382.500000 
M434.980225,435.570740 
	C434.980225,433.468719 434.980225,431.366699 434.980225,429.509125 
	C445.933594,428.989746 456.444946,429.204498 466.752747,427.859436 
	C490.878448,424.711273 504.043915,405.444550 499.454559,381.020599 
	C495.613434,360.578674 478.189819,351.881226 461.137939,351.132294 
	C445.017883,350.424316 428.848969,350.823273 412.701447,350.757965 
	C411.605499,350.753510 410.508759,350.939056 409.389099,351.038300 
	C409.389099,388.779999 409.389099,426.160156 409.389099,463.764893 
	C418.010529,463.764893 426.378479,463.764893 434.980927,463.764893 
	C434.980927,454.490295 434.980927,445.524200 434.980225,435.570740 
M144.731995,407.189545 
	C137.091263,425.991974 129.450531,444.794403 121.703293,463.858887 
	C131.219025,463.858887 139.996597,463.858887 148.701752,463.858887 
	C151.205444,457.030304 153.476212,450.358490 156.177979,443.866058 
	C156.728012,442.544250 158.887115,441.088135 160.326233,441.065277 
	C173.818649,440.851013 187.317917,441.060822 200.809998,440.836395 
	C203.819351,440.786346 204.773941,442.042572 205.646210,444.465118 
	C207.640274,450.003174 209.775421,455.496643 212.078064,460.912659 
	C212.608948,462.161346 214.015808,463.895020 215.066849,463.928680 
	C222.991241,464.182404 230.927460,464.067078 239.530945,464.067078 
	C224.018051,425.899597 208.777054,388.401093 193.446350,350.681885 
	C185.940491,350.681885 178.612762,350.898346 171.308517,350.578766 
	C168.249329,350.444946 167.036743,351.529877 165.993149,354.163330 
	C159.073669,371.624390 152.010071,389.028320 144.731995,407.189545 
M723.483765,360.006531 
	C722.518494,359.374054 721.580933,358.693726 720.583862,358.116119 
	C701.289551,346.938446 681.362183,344.348206 661.170898,355.137238 
	C647.800903,362.281372 643.702881,374.702118 645.061951,389.097687 
	C646.149170,400.613373 653.172363,407.824005 663.445557,412.142303 
	C667.791565,413.969116 672.284912,415.455475 676.746338,416.995087 
	C683.356018,419.276031 690.234131,420.946899 696.560669,423.835297 
	C703.513855,427.009796 705.472290,434.063721 700.694092,439.128326 
	C698.183655,441.789215 693.656128,443.417725 689.855225,443.835449 
	C675.583496,445.403870 663.280029,440.361755 652.272583,430.731384 
	C647.682983,436.500549 643.176636,442.164978 638.718628,447.768677 
	C651.090393,461.444458 677.720886,469.461761 695.421387,465.594940 
	C703.174438,463.901215 710.664795,462.041229 717.116333,457.142700 
	C731.963989,445.869171 735.387634,418.484100 717.063171,406.895782 
	C710.149231,402.523438 701.963867,400.128632 694.287781,397.005219 
	C688.246643,394.547089 681.826843,392.878723 676.067871,389.905365 
	C669.501221,386.515015 669.138184,378.430573 675.199890,374.529938 
	C678.109558,372.657593 681.823242,371.453064 685.284058,371.127167 
	C696.017578,370.116364 705.016174,374.866241 713.604248,380.844391 
	C718.132324,374.912292 722.630615,369.019318 727.230408,362.993317 
	C726.016174,362.053833 725.017090,361.280792 723.483765,360.006531 
M32.901402,358.309753 
	C11.864130,372.946960 3.152223,393.223389 7.208226,418.256897 
	C10.968509,441.465240 29.439419,461.641327 55.374866,465.506012 
	C76.035606,468.584778 95.052719,464.024597 109.363060,446.674225 
	C104.536270,441.191345 99.871117,435.892059 95.184334,430.568207 
	C77.631172,448.244568 56.465164,447.700775 42.299404,432.887543 
	C29.156240,419.143707 28.510954,397.502747 41.287342,384.216888 
	C55.065910,369.888885 75.110748,366.400574 93.310844,384.232697 
	C98.229843,378.905609 103.142952,373.584900 108.036514,368.285370 
	C90.558472,346.667755 59.523129,342.421875 32.901402,358.309753 
M267.781952,221.707062 
	C264.510437,221.789032 261.195160,221.556000 257.974335,222.003113 
	C233.496246,225.401016 219.338623,251.712952 223.764526,270.136292 
	C227.864746,287.203888 243.092606,301.289276 258.850830,302.073944 
	C282.996765,303.276276 298.233032,290.329956 302.872528,272.644806 
	C309.118835,248.834671 292.758362,224.436218 267.781952,221.707062 
M127.724518,550.657410 
	C136.742233,564.629944 149.516785,570.269348 165.748962,566.922668 
	C181.252243,563.726196 192.029373,551.757629 192.911255,536.135254 
	C194.333755,510.935577 170.750488,495.403046 148.387466,501.817352 
	C126.762962,508.019836 117.776039,528.856567 127.724518,550.657410 
M276.460938,510.968445 
	C267.923889,502.130951 257.663574,498.891846 245.511276,500.950348 
	C232.379639,503.174774 223.092361,510.015228 218.849609,522.776306 
	C214.654770,535.393372 216.477875,547.123840 225.659729,557.121155 
	C239.038651,571.688293 261.601654,570.849060 276.306091,559.112610 
	C277.565857,558.107178 278.836029,556.240295 278.882843,554.735596 
	C279.135010,546.627319 279.002167,538.506958 279.002167,530.197510 
	C269.539795,530.197510 260.472076,530.197510 251.201111,530.197510 
	C251.201111,534.130493 251.201111,537.866760 251.201111,542.166931 
	C255.906036,542.166931 260.436554,542.166931 265.993530,542.166931 
	C264.926971,545.729492 264.967041,549.800720 263.110260,551.047913 
	C256.186371,555.698730 248.422211,555.618530 241.206421,551.508545 
	C234.338409,547.596741 231.011215,540.894165 231.400558,533.291565 
	C231.842422,524.662964 236.260773,517.882080 244.891449,515.021179 
	C253.386230,512.205261 261.110565,513.811646 267.960938,521.294861 
	C271.112030,517.849426 274.017181,514.672852 276.460938,510.968445 
M365.133118,566.636353 
	C370.697083,566.761108 376.328186,567.490295 381.810638,566.881226 
	C392.278107,565.718323 399.182831,558.915466 399.737122,548.982544 
	C400.198730,540.710205 397.172028,534.434753 386.718719,530.204834 
	C381.755005,528.196228 376.535675,526.828430 371.490875,525.007690 
	C368.412872,523.896790 365.420319,522.021301 366.299194,518.297302 
	C367.114899,514.840942 370.096588,512.562805 373.735626,513.095947 
	C379.395233,513.925110 384.950897,515.463501 391.581909,516.929321 
	C393.129822,514.823242 395.621246,511.433502 398.174408,507.959747 
	C388.642090,501.152527 378.751434,498.544159 367.525238,500.940369 
	C355.678314,503.469025 348.255096,515.125977 352.062347,526.152893 
	C354.382416,532.872498 359.909241,535.988892 366.277557,538.023743 
	C371.217072,539.601990 376.286377,540.937561 380.956207,543.114319 
	C382.781586,543.965149 384.920929,547.004456 384.667297,548.713013 
	C384.365265,550.747620 381.797974,552.608582 379.904541,554.172363 
	C379.023346,554.900085 377.426697,554.864136 376.137054,554.977844 
	C368.307526,555.668030 362.014374,551.824707 355.741577,547.587036 
	C352.982391,550.948608 350.419128,554.071533 346.980988,558.260376 
	C353.294800,561.088013 358.889130,563.593445 365.133118,566.636353 
M658.229309,529.085938 
	C653.752197,527.610352 649.204529,526.314270 644.823486,524.594055 
	C642.046631,523.503784 639.176025,521.654175 640.160522,518.091858 
	C641.041687,514.903381 643.529541,512.483826 647.157532,513.051392 
	C652.826172,513.938416 658.414856,515.336792 665.005737,516.722046 
	C666.409241,514.947266 668.834167,511.880981 671.229858,508.851593 
	C661.976807,499.131104 644.896179,497.177673 633.842651,504.083557 
	C624.718323,509.784180 621.523926,522.734985 628.350586,530.318726 
	C631.946960,534.314026 637.783875,536.470215 642.883850,538.874023 
	C646.503174,540.579956 650.819519,540.846313 654.363708,542.657410 
	C656.384155,543.689880 658.839111,546.688965 658.629272,548.519470 
	C658.393982,550.571960 655.558899,553.615234 653.523071,553.906311 
	C649.176514,554.527893 644.459412,554.274170 640.189575,553.202271 
	C636.406616,552.252563 633.023560,549.710449 629.317261,547.795593 
	C626.788940,550.902588 624.318054,553.939026 621.707520,557.147034 
	C631.930603,565.337402 642.758850,569.573242 655.804443,567.073242 
	C668.543884,564.631897 675.928528,554.468811 672.984985,542.577576 
	C671.151062,535.168701 665.262268,532.062988 658.229309,529.085938 
M591.976135,504.444580 
	C575.627991,495.251190 554.797546,502.242950 546.099609,516.543762 
	C536.725037,531.957153 541.205139,551.586243 556.224548,561.847351 
	C571.599060,572.351074 592.563904,568.081787 601.224548,555.531677 
	C598.592285,552.597046 595.891602,549.586060 593.191772,546.576111 
	C582.021606,556.780762 570.424866,557.213196 561.639893,548.196411 
	C554.004456,540.359436 554.031494,527.602600 561.762512,519.762817 
	C568.693481,512.734314 581.886963,510.704834 591.270264,520.463196 
	C594.343262,517.324463 597.420898,514.180969 600.816406,510.712830 
	C598.184998,508.877350 595.365295,506.910583 591.976135,504.444580 
M442.628693,566.136169 
	C446.926727,566.136169 451.224792,566.136169 456.028229,566.136169 
	C456.028229,548.702820 456.028229,531.481934 456.028229,513.865967 
	C462.608154,513.865967 468.689972,513.865967 474.869995,513.865967 
	C474.869995,509.397369 474.869995,505.337708 474.869995,501.310547 
	C456.828918,501.310547 439.079987,501.310547 420.681641,501.310547 
	C421.184753,505.758453 421.650391,509.875000 422.135742,514.165894 
	C428.396393,514.165894 434.011566,514.165894 439.999054,514.165894 
	C439.999054,516.034241 439.999054,517.658081 439.999054,519.281982 
	C439.999023,533.445557 439.950897,547.609497 440.071503,561.772034 
	C440.083954,563.230652 441.103607,564.680725 442.628693,566.136169 
M67.534508,566.163940 
	C79.630592,566.163940 91.726677,566.163940 103.968369,566.163940 
	C103.968369,561.916260 103.968369,558.168518 103.968369,553.919189 
	C93.956406,553.919189 84.070366,553.919189 73.832840,553.919189 
	C73.832840,536.354553 73.832840,519.288513 73.832840,502.192505 
	C69.045738,502.192505 64.633194,502.192505 60.240017,502.192505 
	C60.240017,523.655884 60.240017,544.855042 60.240017,566.166870 
	C62.565182,566.166870 64.553764,566.166870 67.534508,566.163940 
M499.000275,522.500122 
	C499.000275,536.919495 499.000275,551.338867 499.000275,565.933228 
	C504.476044,565.933228 509.530365,565.933228 514.583801,565.933228 
	C514.583801,544.218933 514.583801,522.748108 514.583801,501.367157 
	C509.249390,501.367157 504.337067,501.367157 499.000336,501.367157 
	C499.000336,508.273560 499.000336,514.886902 499.000275,522.500122 
M322.014435,518.501709 
	C322.014435,512.760071 322.014435,507.018433 322.014435,501.325989 
	C316.671539,501.325989 312.233215,501.325989 307.658691,501.325989 
	C307.658691,522.965149 307.658691,544.360046 307.658691,565.721069 
	C312.646271,565.721069 317.225647,565.721069 322.014435,565.721069 
	C322.014435,550.113708 322.014435,534.807312 322.014435,518.501709 
z"/>
<path fill="#EB8000" opacity="1.000000" stroke="none" 
	d="
M158.062241,264.135590 
	C155.138412,265.257751 152.915619,265.377228 152.859543,261.187927 
	C152.771973,254.646851 152.487061,248.108383 152.878784,241.039856 
	C155.182358,239.675247 156.879745,238.148651 158.605576,238.115814 
	C170.015656,237.898621 181.432159,238.043549 192.845718,237.957077 
	C194.562057,237.944061 196.273895,237.337784 197.987793,237.005920 
	C198.130569,233.633270 198.273361,230.260605 197.984283,226.196091 
	C181.928116,225.361618 166.303864,225.202682 150.679230,225.145462 
	C150.142639,225.143494 149.602310,226.160461 149.063721,226.702484 
	C146.651932,226.801346 144.240158,226.900223 141.070862,226.655884 
	C125.351051,226.231445 110.388733,226.150223 95.426414,226.069000 
	C94.348160,225.652893 93.269897,225.236816 91.976135,224.268616 
	C91.461807,223.488327 91.162987,223.260162 90.864166,223.031998 
	C90.547562,222.640091 90.230957,222.248184 89.942856,221.110870 
	C89.953209,217.535049 89.935059,214.704636 89.916908,211.874237 
	C89.916908,211.874237 89.940674,211.965057 90.180588,211.819824 
	C90.591057,211.077652 90.761612,210.480713 90.932159,209.883759 
	C90.932167,209.883759 90.955299,209.961014 91.166031,209.862747 
	C91.572449,209.472214 91.768143,209.179947 91.963837,208.887665 
	C91.963829,208.887665 91.968506,208.967087 92.251724,208.947021 
	C93.012421,208.567535 93.489906,208.208099 93.967392,207.848663 
	C93.967392,207.848663 93.963715,207.944809 94.395844,207.959442 
	C108.897301,207.970932 122.966644,207.967758 137.501007,207.970825 
	C146.994644,207.985123 156.023911,208.050385 165.051315,207.949997 
	C166.732559,207.931305 168.406403,207.247101 170.083664,206.870026 
	C173.886810,204.573700 174.886230,200.847412 173.801727,197.062698 
	C172.664688,193.094559 168.936447,192.878189 165.268539,192.869583 
	C158.298660,192.853226 151.324402,192.645706 144.361435,192.316788 
	C137.360031,191.986069 133.599625,186.055832 136.207382,179.500168 
	C136.845581,177.895828 138.113724,176.542084 139.923431,175.028397 
	C162.981766,174.991165 185.208984,175.024948 207.435913,174.958588 
	C209.305450,174.953018 211.172989,174.275299 213.041458,173.909836 
	C218.521866,169.611801 218.638809,165.751968 213.302612,161.017090 
	C212.910324,160.298721 212.630112,160.030167 212.349838,160.030090 
	C186.713318,160.023285 161.076721,160.019638 135.440475,160.109100 
	C134.343033,160.112930 133.248642,160.990204 132.152832,161.460571 
	C128.384155,161.639664 124.615486,161.818756 120.068970,161.658295 
	C99.474831,161.225693 79.658546,161.132660 59.842258,161.039627 
	C51.981186,154.902008 52.169270,147.850204 61.003815,142.444595 
	C62.316055,142.791458 62.969345,142.972488 63.622711,142.972809 
	C101.724442,142.990875 139.826187,143.006989 177.927811,142.944336 
	C179.256897,142.942154 180.584656,142.140533 181.913040,141.711533 
	C186.372620,136.140137 186.270477,133.477661 181.323029,128.988022 
	C180.577957,128.289246 179.956604,128.039963 179.334930,128.039124 
	C160.169052,128.013351 141.003113,127.996536 121.837326,128.041702 
	C120.577713,128.044678 119.319275,128.550034 118.060295,128.821701 
	C108.540909,126.415985 106.012993,118.017403 114.601845,111.973984 
	C141.410400,111.973625 167.376999,112.009232 193.343460,111.964890 
	C194.895966,111.962242 196.447388,111.319839 197.999313,110.975128 
	C205.365875,105.350777 204.824539,99.408768 196.006683,94.916901 
	C194.787521,94.281181 194.143814,94.030510 193.499969,94.030212 
	C170.214005,94.019341 146.927979,94.015106 123.642197,94.089287 
	C122.450081,94.093086 121.260185,94.797913 120.069260,95.176346 
	C115.331528,95.445312 110.593788,95.714272 105.078537,95.645264 
	C95.564713,95.448761 86.828400,95.590240 78.092094,95.731712 
	C70.580048,94.048294 69.523392,87.634987 70.129486,82.977669 
	C70.865074,77.325348 76.457870,72.968681 82.196968,72.999985 
	C83.857437,73.009041 85.517632,73.069389 87.743240,73.592438 
	C89.359978,74.381470 90.410507,74.944550 91.462990,74.948204 
	C108.213791,75.006523 124.964890,75.008926 141.715729,74.959877 
	C142.797165,74.956711 143.877045,74.430710 144.957657,74.147926 
	C149.354538,74.138351 153.751434,74.128784 158.726501,74.591537 
	C160.024277,75.367622 160.742447,75.932274 161.463669,75.936195 
	C173.093307,75.999474 184.723480,76.013969 196.353073,75.954636 
	C197.235870,75.950134 198.115433,75.306877 198.996490,74.960541 
	C201.083359,72.349754 202.331543,69.708488 198.884583,66.251984 
	C197.692551,65.403099 196.905273,65.049271 196.117386,65.047920 
	C176.059387,65.013443 156.001297,65.006615 135.943298,65.040932 
	C135.004013,65.042542 134.065430,65.468430 133.126526,65.696732 
	C127.592346,63.787441 125.006821,59.875801 126.039627,54.974998 
	C127.098740,49.949455 130.154709,47.892300 136.789200,48.581585 
	C138.207458,49.369766 139.096115,49.932705 139.986069,49.934711 
	C164.473831,49.989864 188.961761,50.005230 213.449448,49.941959 
	C214.616058,49.938942 215.780624,49.155811 216.946152,48.735977 
	C222.364944,42.685577 222.429382,39.561333 216.857117,33.148598 
	C215.327988,32.333706 214.196136,32.024967 213.064072,32.024185 
	C175.671143,31.998411 138.278198,31.994923 100.885284,32.032478 
	C99.619102,32.033749 98.353386,32.492043 97.087448,32.737312 
	C92.387871,31.055029 91.035721,27.257513 90.940842,22.778473 
	C90.829231,17.509356 93.821182,14.364753 99.038994,12.570013 
	C101.521362,12.830173 103.345573,12.981819 105.169807,12.982024 
	C235.496078,12.996677 365.822357,12.993071 496.148621,13.016295 
	C505.191650,13.017907 503.964691,11.945171 503.976196,21.086742 
	C503.980255,24.322433 505.372864,28.184145 501.054413,30.086861 
	C496.990173,30.433626 492.925903,30.780392 488.132416,31.189379 
	C488.132416,34.708519 488.132416,38.431316 487.745422,42.910355 
	C487.241608,46.649330 487.023621,49.632030 487.022766,52.614799 
	C487.002869,122.410271 487.006409,192.205750 486.536438,262.003967 
	C430.845886,262.006683 375.624542,262.006683 320.831055,262.006683 
	C320.063660,259.382324 319.566864,257.683350 319.070068,255.984375 
	C319.070068,255.984375 318.893127,255.637360 318.928162,255.020203 
	C318.562988,252.718216 318.162750,251.033386 317.762512,249.348557 
	C313.508759,234.304672 305.156097,222.058945 291.812012,213.867203 
	C265.518555,197.726028 231.340027,206.930283 216.680695,234.091660 
	C213.626282,239.750961 212.152634,246.263443 209.394775,252.903412 
	C208.378281,256.437866 207.917511,259.451599 207.375046,262.999603 
	C205.512482,262.999603 203.730316,262.998932 201.948135,262.999695 
	C189.011871,263.005341 176.075287,262.970520 163.139694,263.066528 
	C161.444656,263.079102 159.754608,263.762756 158.062241,264.135590 
z"/>
<path fill="#EC8000" opacity="1.000000" stroke="none" 
	d="
M673.753723,251.936935 
	C671.166870,258.281464 665.984192,261.309998 659.016724,262.621521 
	C651.755798,262.307159 645.181519,262.307159 639.155090,262.307159 
	C637.818970,257.392059 636.761047,253.500305 635.703125,249.608551 
	C632.735901,240.501999 629.185120,231.737106 622.487183,224.563004 
	C609.167847,210.296768 593.243103,204.061722 573.533997,206.784912 
	C551.738159,209.796432 531.836609,227.531799 527.162903,253.891129 
	C526.846252,255.677200 526.975952,257.542419 526.332153,259.864807 
	C523.961487,260.907898 522.168762,261.878021 520.349854,261.930115 
	C513.912292,262.114319 507.465729,261.984741 501.004700,261.507324 
	C500.999054,199.033249 501.011230,137.025894 501.489655,75.007309 
	C518.213806,75.000305 534.471863,75.030693 550.729553,74.970772 
	C552.473328,74.964348 554.215210,74.432068 555.957947,74.143738 
	C567.167297,74.170235 575.315735,79.724342 581.705200,88.428398 
	C596.485474,108.562904 611.355225,128.632919 625.971375,148.885895 
	C630.456787,155.101135 636.918884,157.545212 643.651062,159.760696 
	C646.443176,160.679535 649.347046,161.268707 652.214661,161.946060 
	C663.776245,164.676987 670.707520,172.010162 673.428833,184.076660 
	C673.186890,192.950943 673.065613,201.130844 673.114624,209.309738 
	C673.119873,210.174545 674.125488,211.033340 674.666992,211.894913 
	C674.776428,213.329681 674.885864,214.764450 674.654114,216.939209 
	C674.226685,228.490280 674.140442,239.301346 674.054199,250.112427 
	C674.054199,250.112427 674.039856,250.022812 673.843201,250.122681 
	C673.682251,250.794022 673.717957,251.365479 673.753723,251.936935 
M524.040649,100.993774 
	C524.040649,100.993774 524.244080,101.029800 523.537842,101.516754 
	C523.360168,102.305138 523.029602,103.093132 523.027649,103.881950 
	C522.993896,117.415062 522.970764,130.948456 523.051758,144.481140 
	C523.058777,145.650345 523.812744,146.815079 524.026184,148.005081 
	C524.026184,148.005081 524.006897,147.811050 524.527588,148.486694 
	C524.993713,148.639816 525.459534,148.926163 525.925964,148.926941 
	C548.169556,148.964218 570.413208,148.998810 592.656555,148.926346 
	C593.757141,148.922760 594.854492,147.962158 595.371887,147.213348 
	C586.538696,135.305206 577.767517,123.350304 568.835205,111.516983 
	C566.104492,107.899384 562.931458,104.615662 559.455627,100.506645 
	C548.166260,100.372765 536.877014,100.224022 525.587219,100.152168 
	C525.063782,100.148842 524.536011,100.833786 524.040649,100.993774 
z"/>
<path fill="#FEFEFE" opacity="1.000000" stroke="none" 
	d="
M257.000732,452.981689 
	C257.000732,418.695862 257.000732,384.907959 257.000732,350.785065 
	C264.595978,350.785065 271.865631,350.642242 279.120392,350.907196 
	C280.548706,350.959381 282.346649,352.276581 283.252289,353.531342 
	C294.858093,369.611786 306.332550,385.786987 318.237030,402.494965 
	C327.703156,389.107025 337.509369,376.512848 345.843750,363.010193 
	C351.559875,353.749359 357.926300,348.446960 369.200073,350.676483 
	C372.203339,351.270416 375.423737,350.766235 378.766113,350.766235 
	C378.766113,388.560638 378.766113,425.977448 378.766113,463.734741 
	C370.778290,463.734741 362.710175,463.734741 354.102783,463.734741 
	C354.102783,440.063934 354.102783,416.235962 354.102783,391.086151 
	C343.154694,406.168396 333.022278,420.127655 322.888062,434.085632 
	C322.403168,434.753510 321.810364,435.360291 321.423645,436.079315 
	C319.362396,439.911652 317.719635,439.718811 315.180298,436.159149 
	C304.459167,421.130127 293.483582,406.282623 282.118713,390.707642 
	C282.118713,415.452271 282.118713,439.468567 282.118713,463.771545 
	C273.674164,463.771545 265.606873,463.771545 257.000702,463.771545 
	C257.000702,460.365051 257.000702,456.922363 257.000732,452.981689 
z"/>
<path fill="#FEFEFE" opacity="1.000000" stroke="none" 
	d="
M545.999756,383.000000 
	C546.320312,396.457336 546.171997,409.448242 547.095825,422.362427 
	C547.986389,434.810730 557.017151,442.772919 569.235046,443.218842 
	C582.773315,443.712952 591.375977,437.181732 593.979248,424.263306 
	C594.560242,421.380127 594.945801,418.403900 594.958374,415.468536 
	C595.042847,395.651978 595.002686,375.834900 595.002930,356.017975 
	C595.002991,354.400879 595.002991,352.783783 595.002991,350.928131 
	C603.405884,350.928131 611.348145,350.928131 619.998047,350.928131 
	C619.998047,352.418182 619.998108,353.998871 619.998108,355.579529 
	C619.998230,377.727875 620.204163,399.878662 619.941956,422.023895 
	C619.667419,445.203064 603.193604,461.448090 582.110474,465.034790 
	C569.453430,467.187988 557.000732,466.692017 545.479919,460.765350 
	C529.871399,452.735840 521.213379,439.781982 521.049011,421.949585 
	C520.846375,399.969666 521.000610,377.986420 521.000671,356.004608 
	C521.000671,354.369812 521.000671,352.735046 521.000671,350.933777 
	C529.424255,350.933777 537.480286,350.933777 545.999817,350.933777 
	C545.999817,361.612274 545.999817,372.056122 545.999756,383.000000 
z"/>
<path fill="#FDFDFD" opacity="1.000000" stroke="none" 
	d="
M434.980591,436.064423 
	C434.980927,445.524200 434.980927,454.490295 434.980927,463.764893 
	C426.378479,463.764893 418.010529,463.764893 409.389099,463.764893 
	C409.389099,426.160156 409.389099,388.779999 409.389099,351.038300 
	C410.508759,350.939056 411.605499,350.753510 412.701447,350.757965 
	C428.848969,350.823273 445.017883,350.424316 461.137939,351.132294 
	C478.189819,351.881226 495.613434,360.578674 499.454559,381.020599 
	C504.043915,405.444550 490.878448,424.711273 466.752747,427.859436 
	C456.444946,429.204498 445.933594,428.989746 434.980225,429.509125 
	C434.980225,431.366699 434.980225,433.468719 434.980591,436.064423 
M445.516418,406.000610 
	C449.667572,406.000397 453.822632,406.115997 457.969055,405.975861 
	C466.666443,405.682007 473.338409,399.913086 473.999176,392.276703 
	C474.823334,382.752563 470.505188,375.383057 461.777283,374.358459 
	C453.021942,373.330597 444.051788,374.132599 435.291504,374.132599 
	C435.291504,384.453491 435.291504,395.151093 435.291504,406.000824 
	C438.577454,406.000824 441.552734,406.000824 445.516418,406.000610 
z"/>
<path fill="#FEFEFD" opacity="1.000000" stroke="none" 
	d="
M144.862671,406.820190 
	C152.010071,389.028320 159.073669,371.624390 165.993149,354.163330 
	C167.036743,351.529877 168.249329,350.444946 171.308517,350.578766 
	C178.612762,350.898346 185.940491,350.681885 193.446350,350.681885 
	C208.777054,388.401093 224.018051,425.899597 239.530945,464.067078 
	C230.927460,464.067078 222.991241,464.182404 215.066849,463.928680 
	C214.015808,463.895020 212.608948,462.161346 212.078064,460.912659 
	C209.775421,455.496643 207.640274,450.003174 205.646210,444.465118 
	C204.773941,442.042572 203.819351,440.786346 200.809998,440.836395 
	C187.317917,441.060822 173.818649,440.851013 160.326233,441.065277 
	C158.887115,441.088135 156.728012,442.544250 156.177979,443.866058 
	C153.476212,450.358490 151.205444,457.030304 148.701752,463.858887 
	C139.996597,463.858887 131.219025,463.858887 121.703293,463.858887 
	C129.450531,444.794403 137.091263,425.991974 144.862671,406.820190 
M189.333557,420.972015 
	C191.452194,420.972015 193.570831,420.972015 196.090363,420.972015 
	C190.779510,406.985687 185.630478,393.425507 180.148575,378.988708 
	C177.255539,386.656433 174.639496,393.448639 172.130356,400.280151 
	C169.648117,407.038422 167.273788,413.836334 164.725464,420.971466 
	C173.094009,420.971466 180.732742,420.971466 189.333557,420.972015 
z"/>
<path fill="#FDFDFD" opacity="1.000000" stroke="none" 
	d="
M723.750854,360.257141 
	C725.017090,361.280792 726.016174,362.053833 727.230408,362.993317 
	C722.630615,369.019318 718.132324,374.912292 713.604248,380.844391 
	C705.016174,374.866241 696.017578,370.116364 685.284058,371.127167 
	C681.823242,371.453064 678.109558,372.657593 675.199890,374.529938 
	C669.138184,378.430573 669.501221,386.515015 676.067871,389.905365 
	C681.826843,392.878723 688.246643,394.547089 694.287781,397.005219 
	C701.963867,400.128632 710.149231,402.523438 717.063171,406.895782 
	C735.387634,418.484100 731.963989,445.869171 717.116333,457.142700 
	C710.664795,462.041229 703.174438,463.901215 695.421387,465.594940 
	C677.720886,469.461761 651.090393,461.444458 638.718628,447.768677 
	C643.176636,442.164978 647.682983,436.500549 652.272583,430.731384 
	C663.280029,440.361755 675.583496,445.403870 689.855225,443.835449 
	C693.656128,443.417725 698.183655,441.789215 700.694092,439.128326 
	C705.472290,434.063721 703.513855,427.009796 696.560669,423.835297 
	C690.234131,420.946899 683.356018,419.276031 676.746338,416.995087 
	C672.284912,415.455475 667.791565,413.969116 663.445557,412.142303 
	C653.172363,407.824005 646.149170,400.613373 645.061951,389.097687 
	C643.702881,374.702118 647.800903,362.281372 661.170898,355.137238 
	C681.362183,344.348206 701.289551,346.938446 720.583862,358.116119 
	C721.580933,358.693726 722.518494,359.374054 723.750854,360.257141 
z"/>
<path fill="#FDFDFD" opacity="1.000000" stroke="none" 
	d="
M33.222988,358.127960 
	C59.523129,342.421875 90.558472,346.667755 108.036514,368.285370 
	C103.142952,373.584900 98.229843,378.905609 93.310844,384.232697 
	C75.110748,366.400574 55.065910,369.888885 41.287342,384.216888 
	C28.510954,397.502747 29.156240,419.143707 42.299404,432.887543 
	C56.465164,447.700775 77.631172,448.244568 95.184334,430.568207 
	C99.871117,435.892059 104.536270,441.191345 109.363060,446.674225 
	C95.052719,464.024597 76.035606,468.584778 55.374866,465.506012 
	C29.439419,461.641327 10.968509,441.465240 7.208226,418.256897 
	C3.152223,393.223389 11.864130,372.946960 33.222988,358.127960 
z"/>
<path fill="#EC8100" opacity="1.000000" stroke="none" 
	d="
M268.201416,221.804153 
	C292.758362,224.436218 309.118835,248.834671 302.872528,272.644806 
	C298.233032,290.329956 282.996765,303.276276 258.850830,302.073944 
	C243.092606,301.289276 227.864746,287.203888 223.764526,270.136292 
	C219.338623,251.712952 233.496246,225.401016 257.974335,222.003113 
	C261.195160,221.556000 264.510437,221.789032 268.201416,221.804153 
z"/>
<path fill="#EC8100" opacity="1.000000" stroke="none" 
	d="
M590.022949,300.882080 
	C589.226501,301.247070 588.430115,301.612030 586.996582,301.646851 
	C581.838196,301.229187 577.316833,301.141632 572.795471,301.054108 
	C572.795471,301.054108 572.377563,301.071320 572.048828,300.770020 
	C571.156372,300.591888 570.592590,300.715027 570.028870,300.838196 
	C556.784973,296.892975 547.380127,288.508606 543.108765,275.433075 
	C535.147522,251.062149 550.910889,226.120834 575.070679,221.871811 
	C601.012390,217.309402 625.469299,239.659317 621.692444,267.568451 
	C619.714417,282.185059 611.379700,293.446014 596.191895,299.050720 
	C594.654297,299.417542 593.841675,299.798553 593.029114,300.179596 
	C593.029114,300.179626 593.039185,300.063934 592.749878,300.054077 
	C591.648071,300.323517 590.835510,300.602814 590.022949,300.882080 
z"/>
<path fill="#FCFCFC" opacity="1.000000" stroke="none" 
	d="
M127.497849,550.354614 
	C117.776039,528.856567 126.762962,508.019836 148.387466,501.817352 
	C170.750488,495.403046 194.333755,510.935577 192.911255,536.135254 
	C192.029373,551.757629 181.252243,563.726196 165.748962,566.922668 
	C149.516785,570.269348 136.742233,564.629944 127.497849,550.354614 
M175.303726,544.605164 
	C179.699707,536.427979 179.156387,528.455933 173.576553,521.174561 
	C168.325119,514.321777 160.858704,512.516785 152.790070,514.437927 
	C143.952087,516.542297 138.237305,524.606140 137.954712,533.543335 
	C137.685562,542.055115 142.846893,550.693115 152.222015,553.584900 
	C158.929382,555.653748 169.712875,554.475525 175.303726,544.605164 
z"/>
<path fill="#FCFCFC" opacity="1.000000" stroke="none" 
	d="
M276.691650,511.232361 
	C274.017181,514.672852 271.112030,517.849426 267.960938,521.294861 
	C261.110565,513.811646 253.386230,512.205261 244.891449,515.021179 
	C236.260773,517.882080 231.842422,524.662964 231.400558,533.291565 
	C231.011215,540.894165 234.338409,547.596741 241.206421,551.508545 
	C248.422211,555.618530 256.186371,555.698730 263.110260,551.047913 
	C264.967041,549.800720 264.926971,545.729492 265.993530,542.166931 
	C260.436554,542.166931 255.906036,542.166931 251.201111,542.166931 
	C251.201111,537.866760 251.201111,534.130493 251.201111,530.197510 
	C260.472076,530.197510 269.539795,530.197510 279.002167,530.197510 
	C279.002167,538.506958 279.135010,546.627319 278.882843,554.735596 
	C278.836029,556.240295 277.565857,558.107178 276.306091,559.112610 
	C261.601654,570.849060 239.038651,571.688293 225.659729,557.121155 
	C216.477875,547.123840 214.654770,535.393372 218.849609,522.776306 
	C223.092361,510.015228 232.379639,503.174774 245.511276,500.950348 
	C257.663574,498.891846 267.923889,502.130951 276.691650,511.232361 
z"/>
<path fill="#FCFCFC" opacity="1.000000" stroke="none" 
	d="
M364.808289,566.367554 
	C358.889130,563.593445 353.294800,561.088013 346.980988,558.260376 
	C350.419128,554.071533 352.982391,550.948608 355.741577,547.587036 
	C362.014374,551.824707 368.307526,555.668030 376.137054,554.977844 
	C377.426697,554.864136 379.023346,554.900085 379.904541,554.172363 
	C381.797974,552.608582 384.365265,550.747620 384.667297,548.713013 
	C384.920929,547.004456 382.781586,543.965149 380.956207,543.114319 
	C376.286377,540.937561 371.217072,539.601990 366.277557,538.023743 
	C359.909241,535.988892 354.382416,532.872498 352.062347,526.152893 
	C348.255096,515.125977 355.678314,503.469025 367.525238,500.940369 
	C378.751434,498.544159 388.642090,501.152527 398.174408,507.959747 
	C395.621246,511.433502 393.129822,514.823242 391.581909,516.929321 
	C384.950897,515.463501 379.395233,513.925110 373.735626,513.095947 
	C370.096588,512.562805 367.114899,514.840942 366.299194,518.297302 
	C365.420319,522.021301 368.412872,523.896790 371.490875,525.007690 
	C376.535675,526.828430 381.755005,528.196228 386.718719,530.204834 
	C397.172028,534.434753 400.198730,540.710205 399.737122,548.982544 
	C399.182831,558.915466 392.278107,565.718323 381.810638,566.881226 
	C376.328186,567.490295 370.697083,566.761108 364.808289,566.367554 
z"/>
<path fill="#FCFCFC" opacity="1.000000" stroke="none" 
	d="
M658.566284,529.289062 
	C665.262268,532.062988 671.151062,535.168701 672.984985,542.577576 
	C675.928528,554.468811 668.543884,564.631897 655.804443,567.073242 
	C642.758850,569.573242 631.930603,565.337402 621.707520,557.147034 
	C624.318054,553.939026 626.788940,550.902588 629.317261,547.795593 
	C633.023560,549.710449 636.406616,552.252563 640.189575,553.202271 
	C644.459412,554.274170 649.176514,554.527893 653.523071,553.906311 
	C655.558899,553.615234 658.393982,550.571960 658.629272,548.519470 
	C658.839111,546.688965 656.384155,543.689880 654.363708,542.657410 
	C650.819519,540.846313 646.503174,540.579956 642.883850,538.874023 
	C637.783875,536.470215 631.946960,534.314026 628.350586,530.318726 
	C621.523926,522.734985 624.718323,509.784180 633.842651,504.083557 
	C644.896179,497.177673 661.976807,499.131104 671.229858,508.851593 
	C668.834167,511.880981 666.409241,514.947266 665.005737,516.722046 
	C658.414856,515.336792 652.826172,513.938416 647.157532,513.051392 
	C643.529541,512.483826 641.041687,514.903381 640.160522,518.091858 
	C639.176025,521.654175 642.046631,523.503784 644.823486,524.594055 
	C649.204529,526.314270 653.752197,527.610352 658.566284,529.289062 
z"/>
<path fill="#FCFCFC" opacity="1.000000" stroke="none" 
	d="
M592.260864,504.694183 
	C595.365295,506.910583 598.184998,508.877350 600.816406,510.712830 
	C597.420898,514.180969 594.343262,517.324463 591.270264,520.463196 
	C581.886963,510.704834 568.693481,512.734314 561.762512,519.762817 
	C554.031494,527.602600 554.004456,540.359436 561.639893,548.196411 
	C570.424866,557.213196 582.021606,556.780762 593.191772,546.576111 
	C595.891602,549.586060 598.592285,552.597046 601.224548,555.531677 
	C592.563904,568.081787 571.599060,572.351074 556.224548,561.847351 
	C541.205139,551.586243 536.725037,531.957153 546.099609,516.543762 
	C554.797546,502.242950 575.627991,495.251190 592.260864,504.694183 
z"/>
<path fill="#FDFDFD" opacity="1.000000" stroke="none" 
	d="
M442.142273,566.135498 
	C441.103607,564.680725 440.083954,563.230652 440.071503,561.772034 
	C439.950897,547.609497 439.999023,533.445557 439.999054,519.281982 
	C439.999054,517.658081 439.999054,516.034241 439.999054,514.165894 
	C434.011566,514.165894 428.396393,514.165894 422.135742,514.165894 
	C421.650391,509.875000 421.184753,505.758453 420.681641,501.310547 
	C439.079987,501.310547 456.828918,501.310547 474.869995,501.310547 
	C474.869995,505.337708 474.869995,509.397369 474.869995,513.865967 
	C468.689972,513.865967 462.608154,513.865967 456.028229,513.865967 
	C456.028229,531.481934 456.028229,548.702820 456.028229,566.136169 
	C451.224792,566.136169 446.926727,566.136169 442.142273,566.135498 
z"/>
<path fill="#FEFEFE" opacity="1.000000" stroke="none" 
	d="
M67.038429,566.165405 
	C64.553764,566.166870 62.565182,566.166870 60.240017,566.166870 
	C60.240017,544.855042 60.240017,523.655884 60.240017,502.192505 
	C64.633194,502.192505 69.045738,502.192505 73.832840,502.192505 
	C73.832840,519.288513 73.832840,536.354553 73.832840,553.919189 
	C84.070366,553.919189 93.956406,553.919189 103.968369,553.919189 
	C103.968369,558.168518 103.968369,561.916260 103.968369,566.163940 
	C91.726677,566.163940 79.630592,566.163940 67.038429,566.165405 
z"/>
<path fill="#FEFEFE" opacity="1.000000" stroke="none" 
	d="
M499.000305,522.000183 
	C499.000336,514.886902 499.000336,508.273560 499.000336,501.367157 
	C504.337067,501.367157 509.249390,501.367157 514.583801,501.367157 
	C514.583801,522.748108 514.583801,544.218933 514.583801,565.933228 
	C509.530365,565.933228 504.476044,565.933228 499.000275,565.933228 
	C499.000275,551.338867 499.000275,536.919495 499.000305,522.000183 
z"/>
<path fill="#F6F6F6" opacity="1.000000" stroke="none" 
	d="
M322.014435,519.001282 
	C322.014435,534.807312 322.014435,550.113708 322.014435,565.721069 
	C317.225647,565.721069 312.646271,565.721069 307.658691,565.721069 
	C307.658691,544.360046 307.658691,522.965149 307.658691,501.325989 
	C312.233215,501.325989 316.671539,501.325989 322.014435,501.325989 
	C322.014435,507.018433 322.014435,512.760071 322.014435,519.001282 
z"/>
<path fill="#FDB900" opacity="1.000000" stroke="none" 
	d="
M501.491211,30.077345 
	C505.372864,28.184145 503.980255,24.322433 503.976196,21.086742 
	C503.964691,11.945171 505.191650,13.017907 496.148621,13.016295 
	C365.822357,12.993071 235.496078,12.996677 105.169807,12.982024 
	C103.345573,12.981819 101.521362,12.830173 99.373383,12.497837 
	C100.540749,12.166163 102.031876,12.015688 103.523010,12.015542 
	C235.830917,12.002594 368.138824,12.001208 500.446716,11.999034 
	C501.757568,11.999012 503.068420,11.999032 504.979095,11.999032 
	C504.979095,17.509609 505.095734,22.779648 504.843597,28.031984 
	C504.808868,28.755571 502.945038,29.391373 501.491211,30.077345 
z"/>
<path fill="#FDB200" opacity="1.000000" stroke="none" 
	d="
M487.005646,262.001221 
	C487.006409,192.205750 487.002869,122.410271 487.022766,52.614799 
	C487.023621,49.632030 487.241608,46.649330 487.637238,43.367798 
	C487.944885,96.447647 487.978607,149.826294 488.000031,203.204941 
	C488.007782,222.495224 487.986053,241.785492 487.694885,261.537415 
	C487.412048,261.999084 487.005646,262.001221 487.005646,262.001221 
z"/>
<path fill="#FDB900" opacity="1.000000" stroke="none" 
	d="
M501.023407,75.018555 
	C501.011230,137.025894 500.999054,199.033249 500.998138,261.761230 
	C501.003937,262.650940 500.998505,262.819977 500.993073,262.988983 
	C500.664001,261.835876 500.047821,260.682953 500.046967,259.529602 
	C500.001831,198.289230 500.008240,137.048843 500.017059,75.808441 
	C500.017120,75.314232 500.123627,74.820038 500.594971,74.411385 
	C501.014130,74.670807 501.018768,74.844681 501.023407,75.018555 
z"/>
<path fill="#FCA100" opacity="1.000000" stroke="none" 
	d="
M486.536438,262.003967 
	C487.005646,262.001221 487.412048,261.999084 487.615234,262.000092 
	C486.554810,262.425720 485.291382,263.220978 484.027588,263.221588 
	C430.322998,263.247284 376.618347,263.203613 322.913727,263.156403 
	C321.779633,263.155396 320.645660,263.013214 318.986084,262.901520 
	C318.986084,260.757812 318.986084,258.825012 319.028076,256.438293 
	C319.566864,257.683350 320.063660,259.382324 320.831055,262.006683 
	C375.624542,262.006683 430.845886,262.006683 486.536438,262.003967 
z"/>
<path fill="#FEB600" opacity="1.000000" stroke="none" 
	d="
M181.461945,141.816589 
	C180.584656,142.140533 179.256897,142.942154 177.927811,142.944336 
	C139.826187,143.006989 101.724442,142.990875 63.622711,142.972809 
	C62.969345,142.972488 62.316055,142.791458 61.348083,142.428528 
	C98.360443,142.107544 135.687439,142.054092 173.014450,141.995224 
	C175.679947,141.991028 178.345383,141.947098 181.461945,141.816589 
z"/>
<path fill="#FDB900" opacity="1.000000" stroke="none" 
	d="
M97.538452,32.849972 
	C98.353386,32.492043 99.619102,32.033749 100.885284,32.032478 
	C138.278198,31.994923 175.671143,31.998411 213.064072,32.024185 
	C214.196136,32.024967 215.327988,32.333706 216.711441,32.836739 
	C186.470367,33.115944 155.977798,33.055996 125.485222,32.999382 
	C116.319977,32.982365 107.154709,32.974625 97.538452,32.849972 
z"/>
<path fill="#FDAA00" opacity="1.000000" stroke="none" 
	d="
M216.489166,48.829868 
	C215.780624,49.155811 214.616058,49.938942 213.449448,49.941959 
	C188.961761,50.005230 164.473831,49.989864 139.986069,49.934711 
	C139.096115,49.932705 138.207458,49.369766 137.199158,48.706261 
	C163.397461,48.537437 189.714813,48.730598 216.489166,48.829868 
z"/>
<path fill="#FEBB00" opacity="1.000000" stroke="none" 
	d="
M132.548706,161.538818 
	C133.248642,160.990204 134.343033,160.112930 135.440475,160.109100 
	C161.076721,160.019638 186.713318,160.023285 212.349838,160.030090 
	C212.630112,160.030167 212.910324,160.298721 213.092194,160.732239 
	C186.310745,161.220688 159.627655,161.418869 132.548706,161.538818 
z"/>
<path fill="#FDA500" opacity="1.000000" stroke="none" 
	d="
M197.530670,110.985809 
	C196.447388,111.319839 194.895966,111.962242 193.343460,111.964890 
	C167.376999,112.009232 141.410400,111.973625 114.931305,111.944115 
	C116.137634,111.574295 117.856255,110.905983 119.575417,110.904587 
	C145.404251,110.883568 171.233154,110.950348 197.530670,110.985809 
z"/>
<path fill="#FEB400" opacity="1.000000" stroke="none" 
	d="
M120.528259,95.244736 
	C121.260185,94.797913 122.450081,94.093086 123.642197,94.089287 
	C146.927979,94.015106 170.214005,94.019341 193.499969,94.030212 
	C194.143814,94.030510 194.787521,94.281181 195.723022,94.716667 
	C171.005569,95.116531 145.996414,95.214828 120.528259,95.244736 
z"/>
<path fill="#FEAB00" opacity="1.000000" stroke="none" 
	d="
M212.569885,173.926529 
	C211.172989,174.275299 209.305450,174.953018 207.435913,174.958588 
	C185.208984,175.024948 162.981766,174.991165 140.271698,174.966614 
	C142.146149,174.552933 144.503082,173.815887 146.860992,173.812775 
	C168.606659,173.783966 190.352509,173.882050 212.569885,173.926529 
z"/>
<path fill="#FDB900" opacity="1.000000" stroke="none" 
	d="
M133.571228,65.821236 
	C134.065430,65.468430 135.004013,65.042542 135.943298,65.040932 
	C156.001297,65.006615 176.059387,65.013443 196.117386,65.047920 
	C196.905273,65.049271 197.692551,65.403099 198.707092,65.949432 
	C181.957565,66.204498 164.981064,66.100830 148.004532,66.002441 
	C143.341705,65.975418 138.678802,65.964203 133.571228,65.821236 
z"/>
<path fill="#FEBB00" opacity="1.000000" stroke="none" 
	d="
M118.520309,128.893158 
	C119.319275,128.550034 120.577713,128.044678 121.837326,128.041702 
	C141.003113,127.996536 160.169052,128.013351 179.334930,128.039124 
	C179.956604,128.039963 180.577957,128.289246 181.104584,128.711899 
	C160.333237,128.988937 139.656784,128.976791 118.520309,128.893158 
z"/>
<path fill="#FEA300" opacity="1.000000" stroke="none" 
	d="
M144.495163,74.086792 
	C143.877045,74.430710 142.797165,74.956711 141.715729,74.959877 
	C124.964890,75.008926 108.213791,75.006523 91.462990,74.948204 
	C90.410507,74.944550 89.359978,74.381470 88.184586,73.716881 
	C106.717979,73.578621 125.375320,73.802139 144.495163,74.086792 
z"/>
<path fill="#FCAE00" opacity="1.000000" stroke="none" 
	d="
M158.523636,264.187805 
	C159.754608,263.762756 161.444656,263.079102 163.139694,263.066528 
	C176.075287,262.970520 189.011871,263.005341 201.948135,262.999695 
	C203.730316,262.998932 205.512482,262.999603 207.375046,262.999603 
	C207.917511,259.451599 208.378281,256.437866 209.233505,253.242767 
	C209.314178,256.515961 209.000412,259.970490 208.612640,264.239990 
	C192.170532,264.239990 175.577774,264.239990 158.523636,264.187805 
z"/>
<path fill="#FEB400" opacity="1.000000" stroke="none" 
	d="
M60.091461,161.404297 
	C79.658546,161.132660 99.474831,161.225693 119.605637,161.576263 
	C100.060318,161.812195 80.200493,161.790573 60.091461,161.404297 
z"/>
<path fill="#FEA700" opacity="1.000000" stroke="none" 
	d="
M149.510086,226.766693 
	C149.602310,226.160461 150.142639,225.143494 150.679230,225.145462 
	C166.303864,225.202682 181.928116,225.361618 197.848785,225.831360 
	C182.082260,226.382629 166.019348,226.606750 149.510086,226.766693 
z"/>
<path fill="#FEA100" opacity="1.000000" stroke="none" 
	d="
M501.489655,75.007309 
	C501.018768,74.844681 501.014130,74.670807 500.998657,74.236221 
	C519.002991,73.990028 537.018127,74.004547 555.495605,74.081406 
	C554.215210,74.432068 552.473328,74.964348 550.729553,74.970772 
	C534.471863,75.030693 518.213806,75.000305 501.489655,75.007309 
z"/>
<path fill="#FEA100" opacity="1.000000" stroke="none" 
	d="
M198.528168,74.975105 
	C198.115433,75.306877 197.235870,75.950134 196.353073,75.954636 
	C184.723480,76.013969 173.093307,75.999474 161.463669,75.936195 
	C160.742447,75.932274 160.024277,75.367622 159.184113,74.700294 
	C172.062286,74.554375 185.061066,74.772026 198.528168,74.975105 
z"/>
<path fill="#F89800" opacity="1.000000" stroke="none" 
	d="
M137.035980,207.964584 
	C122.966644,207.967758 108.897301,207.970932 94.349243,207.947495 
	C97.932198,207.343231 101.993881,206.765549 106.845039,206.458267 
	C114.523827,206.717529 121.413139,206.706406 128.302444,206.695282 
	C128.920547,206.686493 129.538666,206.677719 130.877747,206.848480 
	C132.456787,206.965179 133.314865,206.902328 134.172928,206.839478 
	C134.897171,206.850510 135.621399,206.861542 136.683563,207.200699 
	C137.021484,207.528824 137.035980,207.964584 137.035980,207.964584 
z"/>
<path fill="#FDB900" opacity="1.000000" stroke="none" 
	d="
M197.520386,237.006165 
	C196.273895,237.337784 194.562057,237.944061 192.845718,237.957077 
	C181.432159,238.043549 170.015656,237.898621 158.605576,238.115814 
	C156.879745,238.148651 155.182358,239.675247 153.151855,240.719391 
	C152.937714,239.768356 153.043503,238.608780 153.189697,237.006393 
	C167.807388,237.006393 182.430191,237.006393 197.520386,237.006165 
z"/>
<path fill="#FDB200" opacity="1.000000" stroke="none" 
	d="
M95.758316,226.397369 
	C110.388733,226.150223 125.351051,226.231445 140.623611,226.579010 
	C125.985977,226.805466 111.038101,226.765594 95.758316,226.397369 
z"/>
<path fill="#FAA300" opacity="1.000000" stroke="none" 
	d="
M635.777710,250.088196 
	C636.761047,253.500305 637.818970,257.392059 639.155090,262.307159 
	C645.181519,262.307159 651.755798,262.307159 658.642212,262.574707 
	C651.742798,262.842255 644.531311,262.842255 637.226318,262.842255 
	C636.758362,258.661652 636.305359,254.614761 635.777710,250.088196 
z"/>
<path fill="#FDB900" opacity="1.000000" stroke="none" 
	d="
M137.501007,207.970825 
	C137.035980,207.964584 137.021484,207.528824 137.029358,207.310959 
	C147.736221,207.052200 158.435196,207.011307 169.608917,206.920227 
	C168.406403,207.247101 166.732559,207.931305 165.051315,207.949997 
	C156.023911,208.050385 146.994644,207.985123 137.501007,207.970825 
z"/>
<path fill="#FDB200" opacity="1.000000" stroke="none" 
	d="
M674.397888,249.844345 
	C674.140442,239.301346 674.226685,228.490280 674.578552,217.366928 
	C674.809998,227.895187 674.775818,238.735733 674.397888,249.844345 
z"/>
<path fill="#FEB600" opacity="1.000000" stroke="none" 
	d="
M674.697266,211.528442 
	C674.125488,211.033340 673.119873,210.174545 673.114624,209.309738 
	C673.065613,201.130844 673.186890,192.950943 673.489136,184.440460 
	C673.909424,191.650345 674.099670,199.191086 674.164307,207.415558 
	C674.021118,208.458160 674.149475,208.753571 674.423767,208.985489 
	C674.525024,209.710983 674.626282,210.436462 674.697266,211.528442 
z"/>
<path fill="#FDA500" opacity="1.000000" stroke="none" 
	d="
M78.541702,95.846901 
	C86.828400,95.590240 95.564713,95.448761 104.615311,95.567314 
	C96.283516,95.872253 87.637413,95.917175 78.541702,95.846901 
z"/>
<path fill="#FCA100" opacity="1.000000" stroke="none" 
	d="
M501.451050,263.101135 
	C500.998505,262.819977 501.003937,262.650940 501.015991,262.227966 
	C507.465729,261.984741 513.912292,262.114319 520.349854,261.930115 
	C522.168762,261.878021 523.961487,260.907898 526.160156,260.218689 
	C526.656677,262.787354 525.097839,263.258118 522.755066,263.225006 
	C515.807739,263.126709 508.857910,263.204407 501.451050,263.101135 
z"/>
<path fill="#AE5C00" opacity="1.000000" stroke="none" 
	d="
M127.924576,206.487061 
	C121.413139,206.706406 114.523827,206.717529 107.292023,206.495377 
	C113.815247,206.267685 120.680977,206.273270 127.924576,206.487061 
z"/>
<path fill="#FAA300" opacity="1.000000" stroke="none" 
	d="
M573.076782,301.390015 
	C577.316833,301.141632 581.838196,301.229187 586.667114,301.590881 
	C582.435852,301.818665 577.896912,301.772278 573.076782,301.390015 
z"/>
<path fill="#F89800" opacity="1.000000" stroke="none" 
	d="
M89.594269,212.054077 
	C89.935059,214.704636 89.953209,217.535049 89.940842,220.840866 
	C89.697426,218.288818 89.484520,215.261368 89.594269,212.054077 
z"/>
<path fill="#FCA100" opacity="1.000000" stroke="none" 
	d="
M317.811707,249.733124 
	C318.162750,251.033386 318.562988,252.718216 318.954468,254.827225 
	C318.584137,253.540161 318.222534,251.828918 317.811707,249.733124 
z"/>
<path fill="#FAA300" opacity="1.000000" stroke="none" 
	d="
M593.384033,300.129059 
	C593.841675,299.798553 594.654297,299.417542 595.833984,299.046936 
	C595.380310,299.397766 594.559692,299.738159 593.384033,300.129059 
z"/>
<path fill="#AE5C00" opacity="1.000000" stroke="none" 
	d="
M133.921463,206.673157 
	C133.314865,206.902328 132.456787,206.965179 131.183197,206.900299 
	C131.735123,206.683990 132.702560,206.595413 133.921463,206.673157 
z"/>
<path fill="#FAA300" opacity="1.000000" stroke="none" 
	d="
M590.368835,300.937378 
	C590.835510,300.602814 591.648071,300.323517 592.805542,300.070496 
	C592.338562,300.395416 591.526672,300.694031 590.368835,300.937378 
z"/>
<path fill="#F89800" opacity="1.000000" stroke="none" 
	d="
M90.649963,210.026611 
	C90.761612,210.480713 90.591057,211.077652 90.133659,211.821213 
	C90.020462,211.368378 90.194115,210.768921 90.649963,210.026611 
z"/>
<path fill="#FAA300" opacity="1.000000" stroke="none" 
	d="
M570.352295,300.910767 
	C570.592590,300.715027 571.156372,300.591888 571.857605,300.685394 
	C571.555298,300.929169 571.115479,300.956268 570.352295,300.910767 
z"/>
<path fill="#FDB200" opacity="1.000000" stroke="none" 
	d="
M673.863342,251.628876 
	C673.717957,251.365479 673.682251,250.794022 673.888550,250.122482 
	C674.078064,250.455200 674.025513,250.888000 673.863342,251.628876 
z"/>
<path fill="#F89800" opacity="1.000000" stroke="none" 
	d="
M93.656677,207.896851 
	C93.489906,208.208099 93.012421,208.567535 92.214134,208.933990 
	C92.377541,208.608994 92.861748,208.277008 93.656677,207.896851 
z"/>
<path fill="#F89800" opacity="1.000000" stroke="none" 
	d="
M90.955200,223.304321 
	C91.162987,223.260162 91.461807,223.488327 91.849419,223.992615 
	C91.640877,224.038040 91.343559,223.807343 90.955200,223.304321 
z"/>
<path fill="#EC8000" opacity="1.000000" stroke="none" 
	d="
M674.531433,208.746719 
	C674.149475,208.753571 674.021118,208.458160 674.105225,207.857254 
	C674.327576,207.912796 674.483337,208.210373 674.531433,208.746719 
z"/>
<path fill="#F89800" opacity="1.000000" stroke="none" 
	d="
M91.704224,208.973999 
	C91.768143,209.179947 91.572449,209.472214 91.125725,209.863922 
	C91.064667,209.662338 91.254639,209.361328 91.704224,208.973999 
z"/>
<path fill="#020100" opacity="1.000000" stroke="none" 
	d="
M559.960999,101.179031 
	C562.931458,104.615662 566.104492,107.899384 568.835205,111.516983 
	C577.767517,123.350304 586.538696,135.305206 595.220581,147.511810 
	C571.381836,147.810532 547.694336,147.810791 524.006897,147.811050 
	C524.006897,147.811050 524.026184,148.005081 524.100586,147.523407 
	C524.197998,131.704437 524.221008,116.367119 524.244019,101.029800 
	C524.244080,101.029800 524.040649,100.993774 524.495239,101.043877 
	C536.620239,101.122330 548.290649,101.150681 559.960999,101.179031 
z"/>
<path fill="#FEA300" opacity="1.000000" stroke="none" 
	d="
M524.267212,148.148865 
	C547.694336,147.810791 571.381836,147.810532 595.511353,147.628723 
	C594.854492,147.962158 593.757141,148.922760 592.656555,148.926346 
	C570.413208,148.998810 548.169556,148.964218 525.925964,148.926941 
	C525.459534,148.926163 524.993713,148.639816 524.267212,148.148865 
z"/>
<path fill="#FD9A00" opacity="1.000000" stroke="none" 
	d="
M523.890930,101.273277 
	C524.221008,116.367119 524.197998,131.704437 524.197388,147.511810 
	C523.812744,146.815079 523.058777,145.650345 523.051758,144.481140 
	C522.970764,130.948456 522.993896,117.415062 523.027649,103.881950 
	C523.029602,103.093132 523.360168,102.305138 523.890930,101.273277 
z"/>
<path fill="#FDB200" opacity="1.000000" stroke="none" 
	d="
M559.708313,100.842834 
	C548.290649,101.150681 536.620239,101.122330 524.480103,101.146080 
	C524.536011,100.833786 525.063782,100.148842 525.587219,100.152168 
	C536.877014,100.224022 548.166260,100.372765 559.708313,100.842834 
z"/>
<path fill="#020101" opacity="1.000000" stroke="none" 
	d="
M445.022217,406.000732 
	C441.552734,406.000824 438.577454,406.000824 435.291504,406.000824 
	C435.291504,395.151093 435.291504,384.453491 435.291504,374.132599 
	C444.051788,374.132599 453.021942,373.330597 461.777283,374.358459 
	C470.505188,375.383057 474.823334,382.752563 473.999176,392.276703 
	C473.338409,399.913086 466.666443,405.682007 457.969055,405.975861 
	C453.822632,406.115997 449.667572,406.000397 445.022217,406.000732 
z"/>
<path fill="#030303" opacity="1.000000" stroke="none" 
	d="
M188.852524,420.971741 
	C180.732742,420.971466 173.094009,420.971466 164.725464,420.971466 
	C167.273788,413.836334 169.648117,407.038422 172.130356,400.280151 
	C174.639496,393.448639 177.255539,386.656433 180.148575,378.988708 
	C185.630478,393.425507 190.779510,406.985687 196.090363,420.972015 
	C193.570831,420.972015 191.452194,420.972015 188.852524,420.971741 
z"/>
<path fill="#010101" opacity="1.000000" stroke="none" 
	d="
M175.165955,544.960083 
	C169.712875,554.475525 158.929382,555.653748 152.222015,553.584900 
	C142.846893,550.693115 137.685562,542.055115 137.954712,533.543335 
	C138.237305,524.606140 143.952087,516.542297 152.790070,514.437927 
	C160.858704,512.516785 168.325119,514.321777 173.576553,521.174561 
	C179.156387,528.455933 179.699707,536.427979 175.165955,544.960083 
z"/>
</svg>