<svg xmlns="http://www.w3.org/2000/svg" width="740" height="586" viewBox="0 0 740 586" version="1.1"><path d="M 489 9.115 C 483.775 9.562, 393.907 9.850, 289.293 9.754 C 184.679 9.659, 98.766 9.900, 98.376 10.290 C 97.986 10.681, 189.092 11, 300.833 11 L 504 11 504 19.667 C 504 30.150, 505.284 29.999, 505.589 19.480 C 505.797 12.313, 505.688 11.914, 502.999 9.999 C 501.455 8.900, 499.811 8.068, 499.346 8.151 C 498.881 8.234, 494.225 8.667, 489 9.115 M 91.636 13.636 C 90.093 15.179, 89.016 17.357, 89.039 18.886 C 89.078 21.482, 89.088 21.479, 90.421 18.415 C 91.160 16.719, 93.003 14.356, 94.517 13.165 C 96.253 11.799, 96.716 11, 95.771 11 C 94.947 11, 93.086 12.186, 91.636 13.636 M 88.652 23.464 C 87.829 25.610, 90.425 30.622, 93.100 32.054 C 94.554 32.832, 112.526 33.187, 152.823 33.234 C 218.308 33.310, 216.231 33.070, 216.798 40.625 C 217.068 44.237, 216.800 44.739, 213.798 46.232 C 210.511 47.867, 210.509 47.872, 213.177 47.936 C 216.464 48.015, 220 43.902, 220 40 C 220 38.498, 219.067 36.084, 217.927 34.635 L 215.855 32 155.677 31.968 C 89.280 31.933, 92.897 32.294, 90.552 25.473 C 89.610 22.733, 89.128 22.224, 88.652 23.464 M 493.750 29.742 L 487 30.091 487 146.046 L 487 262 402.300 262 C 343.637 262, 317.920 262.320, 318.640 263.040 C 319.344 263.744, 346.999 264.090, 404.090 264.109 L 488.500 264.138 489.745 261.694 C 490.708 259.802, 490.771 255.438, 490.024 242.375 C 488.594 217.387, 488.515 38.257, 489.932 34.614 C 491.006 31.852, 491.264 31.753, 495.926 32.305 C 499.942 32.780, 501.106 32.541, 502.554 30.941 C 504.234 29.084, 504.228 29.008, 502.405 29.196 C 501.357 29.304, 497.462 29.549, 493.750 29.742 M 129 46.781 C 125.549 47.915, 123.640 51.267, 123.570 56.317 C 123.526 59.493, 123.958 61.485, 124.750 61.749 C 125.438 61.979, 126 62.788, 126 63.548 C 126 66.111, 130.004 67.099, 142.278 67.561 C 149 67.815, 156.525 68.321, 159 68.686 L 163.500 69.351 158 70.179 C 154.975 70.634, 135.400 70.914, 114.500 70.801 C 88.151 70.658, 75.887 70.936, 74.500 71.706 C 69.554 74.453, 67.498 77.952, 67.552 83.535 C 67.589 87.399, 68.150 89.508, 69.550 91.055 C 73.398 95.307, 76.359 96.004, 93.954 96.800 C 108.730 97.469, 111.299 97.833, 113.660 99.595 C 115.152 100.710, 116.564 102.192, 116.796 102.889 C 117.029 103.586, 114.909 106.383, 112.087 109.103 C 107.914 113.125, 106.844 114.855, 106.364 118.359 C 105.810 122.405, 105.998 122.853, 109.446 125.695 C 114.015 129.461, 118.966 130.027, 154.893 130.890 C 177.325 131.429, 180.412 131.699, 181.360 133.205 C 182.742 135.400, 178.957 139.706, 175.127 140.296 C 173.401 140.562, 173.938 140.752, 176.693 140.850 C 181.464 141.021, 184 138.585, 184 133.834 C 184 128.214, 182.694 128.001, 148.027 127.985 C 114.289 127.969, 113.441 127.856, 109.716 122.837 C 107.327 119.618, 107.952 115.957, 111.495 112.414 L 113.909 110 155.320 110 C 195.699 110, 196.796 109.948, 199.365 107.927 C 204.323 104.028, 201.903 96.018, 195.264 94.351 C 193.790 93.981, 166.548 93.984, 134.727 94.357 C 81.548 94.981, 76.639 94.900, 74.020 93.353 C 67.012 89.213, 67.289 78.003, 74.502 73.907 C 77.280 72.331, 81.909 72.267, 137.466 73.046 C 179.609 73.637, 197.813 73.570, 198.716 72.821 C 200.380 71.440, 200.367 67.550, 198.695 66.161 C 197.830 65.444, 185.981 64.980, 163.607 64.789 L 129.825 64.500 127.412 61.694 C 126.086 60.151, 125 57.766, 125 56.395 C 125 53.302, 127.628 48.051, 129.276 47.851 C 129.949 47.770, 148.050 47.732, 169.500 47.768 C 194.883 47.810, 205.881 47.546, 201 47.012 C 193.047 46.143, 131.545 45.945, 129 46.781 M 187.199 67.997 C 182.676 69.054, 182.252 69.765, 185.426 70.972 C 188.453 72.123, 192.376 72.274, 195.750 71.370 C 199.722 70.305, 198.268 68.819, 192 67.534 C 191.175 67.365, 189.015 67.573, 187.199 67.997 M 501.250 70.713 C 500.012 70.947, 499 71.529, 499 72.006 C 499 72.483, 513.288 73.014, 530.750 73.187 C 572.837 73.602, 569.349 71.877, 592.387 103.677 C 621.509 143.874, 627.199 151.170, 631.601 153.962 C 633.967 155.462, 641.212 158.201, 647.701 160.048 C 658.766 163.197, 659.816 163.720, 664.574 168.461 C 672.562 176.421, 672.831 177.827, 673.636 215.805 C 674.016 233.742, 674.672 247.536, 675.094 246.458 C 676.230 243.551, 676.152 221.013, 674.931 200 C 673.808 180.678, 672.603 175.052, 668.393 169.477 C 665.638 165.831, 655.880 160.765, 647 158.371 C 636.599 155.568, 632.470 153.453, 627.584 148.427 C 625.063 145.832, 623 143.433, 623 143.095 C 623 142.756, 621.932 141.327, 620.626 139.919 C 619.320 138.511, 617.057 135.590, 615.597 133.429 C 612.286 128.529, 608.315 122.971, 606.716 121 C 604.230 117.935, 596.284 106.898, 589.333 96.855 C 579.892 83.214, 572.912 76.365, 565.924 73.886 C 561.470 72.306, 556.836 71.877, 540 71.488 C 528.725 71.227, 515.900 70.850, 511.500 70.650 C 507.100 70.450, 502.488 70.478, 501.250 70.713 M 497.794 75.250 C 497.563 75.938, 497.686 77.850, 498.068 79.500 C 498.706 82.253, 498.773 82.150, 498.882 78.250 C 499 74.011, 498.590 72.881, 497.794 75.250 M 187.696 100.235 C 181.845 102.254, 187.126 107.191, 194.159 106.278 C 197.750 105.811, 199.588 103.490, 198.127 101.265 C 197.156 99.785, 190.816 99.159, 187.696 100.235 M 523 123.500 L 523 147 559.032 147 L 595.063 147 590.839 141.250 C 580.297 126.899, 562.411 103.411, 560.790 101.790 C 559.203 100.203, 556.963 100, 541 100 L 523 100 523 123.500 M 524.656 104 C 524.100 106.822, 524.857 142.819, 525.513 144.750 C 525.840 145.714, 533.030 146, 556.933 146 C 587.319 146, 587.952 145.959, 589.045 143.917 C 589.938 142.246, 589.797 141.404, 588.330 139.667 C 587.323 138.475, 586.097 137.208, 585.605 136.851 C 585.113 136.495, 582.638 133.274, 580.105 129.693 C 570.744 116.462, 560.953 104.315, 558.759 103.211 C 557.446 102.551, 549.933 101.955, 540.824 101.788 L 525.148 101.500 524.656 104 M 55.073 143.635 C 53.933 145.084, 53.029 146.997, 53.063 147.885 C 53.101 148.846, 53.524 148.488, 54.108 147 C 54.647 145.625, 56.081 143.723, 57.294 142.772 C 58.507 141.822, 58.970 141.034, 58.323 141.022 C 57.675 141.010, 56.212 142.186, 55.073 143.635 M 52.081 152.167 C 51.929 155.284, 55.739 162.492, 58.664 164.624 C 61.200 166.472, 63.884 166.895, 79.286 167.874 C 89.024 168.493, 104.028 169, 112.628 169 C 126.643 169, 128.608 168.788, 131.579 166.951 C 134.193 165.336, 136.229 164.965, 141.197 165.201 C 144.664 165.365, 147.450 165.950, 147.389 166.500 C 147.327 167.050, 145.639 168.292, 143.636 169.259 C 131.729 175.011, 128.461 184.749, 136.354 190.959 C 138.373 192.547, 144.692 193.650, 158.215 194.775 C 167.426 195.541, 170.649 197.145, 169.419 200.350 C 168.051 203.916, 164.878 204.490, 143.500 205.039 L 122.500 205.578 145.750 205.789 C 167.818 205.989, 169.102 205.898, 171 204 C 173.365 201.635, 173.594 197.294, 171.512 194.320 C 170.140 192.362, 168.766 192.138, 153.983 191.468 C 138.456 190.765, 137.879 190.661, 135.971 188.236 C 132.737 184.125, 133.977 176.866, 138.442 173.765 C 139.024 173.361, 155.712 173.024, 175.527 173.015 C 206.500 173.002, 211.867 172.782, 213.777 171.443 C 216.663 169.422, 216.713 164.713, 213.880 161.880 L 211.761 159.761 135.630 160.489 L 59.500 161.217 57.030 158.560 C 55.672 157.099, 54.021 154.688, 53.362 153.202 C 52.597 151.479, 52.133 151.104, 52.081 152.167 M 205 165.658 C 204.175 165.933, 202.825 166.380, 202 166.651 C 199.702 167.405, 203.698 170, 207.156 170 C 209.845 170, 212.678 167.012, 211.298 165.631 C 210.574 164.907, 207.208 164.922, 205 165.658 M 89.687 207.805 C 88.209 209.347, 87.018 211.485, 87.039 212.555 C 87.067 213.925, 87.486 213.562, 88.460 211.323 C 89.220 209.576, 91.115 207.457, 92.671 206.613 C 94.309 205.726, 94.842 205.063, 93.937 205.040 C 93.077 205.018, 91.165 206.262, 89.687 207.805 M 250.272 206.370 C 235.310 210.188, 221.428 221.243, 214.619 234.763 C 210.649 242.647, 208.038 252.112, 208.015 258.704 L 208 262.908 180.750 263.204 C 165.762 263.367, 153.115 263.205, 152.645 262.845 C 151.452 261.932, 150.589 246.224, 151.426 240.648 L 152.117 236.037 174.808 235.769 L 197.500 235.500 197.500 230.500 L 197.500 225.500 146.500 225.819 C 90.338 226.169, 91.934 226.331, 88.752 219.986 C 87.362 217.216, 87.003 216.945, 87.002 218.668 C 86.997 224.910, 91.512 227.629, 104.089 228.960 C 126.497 231.330, 144.697 233.045, 147.212 233.023 L 149.924 233 149.876 247.405 C 149.845 256.728, 150.248 262.595, 151.019 264.036 C 152.134 266.120, 152.606 266.210, 158.356 265.443 C 161.735 264.992, 174.007 264.584, 185.626 264.537 C 210.003 264.437, 210 264.438, 210 256.781 C 210 243.221, 220.597 225.321, 233.885 216.438 C 235.873 215.109, 238.400 213.369, 239.500 212.571 C 242.565 210.348, 256.330 206.996, 262.232 207.036 C 268.940 207.081, 280.470 209.884, 288 213.299 C 292.928 215.534, 303.354 225.533, 307.455 231.957 C 311.423 238.171, 313.111 242.380, 316.006 253.279 C 317.771 259.922, 318.359 258.495, 316.983 250.906 C 313.687 232.728, 299.538 215.438, 282.622 208.915 C 272.994 205.202, 259.126 204.111, 250.272 206.370 M 568.263 206.514 C 564.832 207.259, 559.207 209.343, 555.763 211.145 C 548.266 215.066, 536.632 226.410, 532.822 233.513 C 529.891 238.978, 526 251.888, 526 256.148 C 526 261.949, 525.876 262, 511.893 262 L 499 262 498.827 237.750 C 498.645 212.204, 498.723 211.861, 496.505 248 C 495.443 265.320, 495.104 264.982, 512.683 264.116 C 519.934 263.759, 526.089 263.245, 526.361 262.972 C 526.633 262.700, 527.582 258.208, 528.470 252.989 C 529.358 247.770, 530.741 242.082, 531.542 240.349 C 532.344 238.616, 533 236.703, 533 236.099 C 533 235.494, 533.420 235, 533.933 235 C 534.446 235, 535.154 234.089, 535.508 232.976 C 537.111 227.926, 553.354 213.121, 559 211.564 C 560.375 211.185, 562.400 210.490, 563.500 210.021 C 573.246 205.861, 592.318 206.154, 600.827 210.593 C 602.297 211.360, 604.025 211.990, 604.667 211.994 C 605.308 211.997, 605.983 212.366, 606.167 212.813 C 606.350 213.260, 609.199 215.606, 612.497 218.027 C 619.786 223.376, 624.460 228.337, 626.605 233 C 627.490 234.925, 629.247 238.750, 630.508 241.500 C 631.769 244.250, 633.389 250.010, 634.109 254.300 C 634.828 258.590, 636.062 262.636, 636.851 263.291 C 638.563 264.713, 650.802 264.468, 659.259 262.843 C 666.394 261.472, 674 255.454, 674 251.181 C 674 248.615, 673.941 248.641, 672.147 252.016 C 671.127 253.932, 668.390 256.850, 666.065 258.500 C 661.972 261.404, 661.423 261.511, 648.918 261.829 L 636 262.159 635.983 259.329 C 635.948 253.604, 632.981 242.671, 629.498 235.429 C 622.697 221.290, 607.399 209.260, 592.201 206.101 C 585.288 204.665, 576.042 204.824, 568.263 206.514 M 255 219.928 C 247.041 221.918, 237.383 226.835, 233.928 230.656 C 226.880 238.449, 222.178 248.477, 220.325 259.665 C 219.753 263.119, 222.186 275.231, 224.226 279.088 C 226.306 283.019, 231.682 290.385, 233.661 292.014 C 244.321 300.793, 247.915 302.149, 261 302.336 C 273.239 302.511, 278.281 301.309, 286 296.380 C 298.047 288.686, 305 275.712, 305 260.927 C 305 253.215, 301.806 243.176, 297.834 238.405 C 288.203 226.834, 287.088 225.980, 276 221.666 C 267.454 218.341, 262.866 217.961, 255 219.928 M 568.250 221.030 C 562.916 223.400, 562.700 224.370, 567.917 222.529 C 574.400 220.242, 580.232 219.773, 586.977 220.996 C 600.338 223.419, 611.328 231.909, 617.091 244.259 C 620.178 250.875, 620.471 252.320, 620.485 261 C 620.499 269.731, 620.225 271.087, 617.101 277.753 C 612.939 286.632, 606.595 292.875, 597.223 297.315 C 590.994 300.266, 589.728 300.500, 580 300.500 C 570.307 300.500, 569 300.261, 563 297.387 C 554.718 293.420, 547.940 286.655, 543.777 278.199 C 540.748 272.045, 540.505 270.822, 540.562 262.021 C 540.610 254.693, 541.127 251.233, 542.805 247 C 545.764 239.536, 551.464 232.298, 557.950 227.767 C 563.909 223.604, 564.104 222.635, 558.230 226.375 C 551.997 230.344, 545.981 237.152, 542.656 244 C 539.630 250.233, 539.500 251.013, 539.500 263 L 539.500 275.500 543.280 281.317 C 548.594 289.493, 554.704 295.088, 562.526 298.938 C 568.769 302.011, 569.981 302.253, 579.376 302.293 C 596.032 302.364, 605.562 297.730, 615.058 284.944 C 618.949 279.705, 620.836 274.993, 622.178 267.169 C 623.787 257.784, 621.753 248.727, 615.984 239.592 C 612.060 233.379, 604.084 225.709, 599 223.259 C 589.336 218.602, 575.905 217.628, 568.250 221.030 M 256 221.098 C 249.252 222.416, 239.607 227.551, 234.740 232.418 C 229.585 237.573, 224.716 246.464, 222.992 253.874 C 219.182 270.241, 228.828 289.362, 244.877 297.259 C 251.097 300.319, 252.080 300.500, 262.482 300.500 C 272.785 300.500, 273.935 300.294, 280.201 297.326 C 304.446 285.840, 310.680 253.810, 292.495 234.168 C 286.231 227.402, 279.789 223.633, 270.913 221.541 C 263.803 219.865, 262.509 219.827, 256 221.098 M 173.739 228.942 C 169.051 229.873, 168.224 230.662, 170.060 232.454 C 171.071 233.442, 174.690 233.948, 182.224 234.156 C 193.415 234.465, 195.498 233.837, 194.833 230.356 C 194.523 228.737, 193.396 228.481, 185.989 228.347 C 181.320 228.263, 175.808 228.531, 173.739 228.942 M 151.459 231.067 C 151.096 231.653, 151.005 232.339, 151.257 232.590 C 151.954 233.288, 155 231.907, 155 230.893 C 155 229.641, 152.257 229.776, 151.459 231.067 M 55.500 346.685 C 53.850 346.897, 51.600 347.466, 50.500 347.950 C 49.400 348.434, 46.025 349.652, 43 350.656 C 27.753 355.718, 17.410 365.203, 9.122 381.721 C 7.405 385.143, 6.012 389.418, 6.026 391.221 C 6.048 393.978, 6.408 393.456, 8.287 387.942 C 16.590 363.587, 39.202 347.743, 65.500 347.853 C 79.657 347.912, 92.165 352.802, 102.922 362.481 C 107.743 366.819, 108.144 367.025, 105.877 364 C 100.800 357.225, 87.997 350.142, 75 346.916 C 71.542 346.058, 61.322 345.937, 55.500 346.685 M 674 346.615 C 667.252 347.879, 657.823 353.060, 652.386 358.490 C 645.015 365.852, 643 371.048, 643 382.691 C 643 393.806, 645.322 400.114, 651.652 406.200 C 655.296 409.703, 667.866 417, 670.257 417 C 670.868 417, 673.271 417.921, 675.595 419.046 C 677.920 420.172, 682.059 421.446, 684.793 421.878 C 687.527 422.310, 691.955 423.808, 694.632 425.206 C 698.532 427.242, 699.558 428.320, 699.794 430.624 C 700.175 434.351, 698.495 436.331, 693.230 438.357 C 685.391 441.373, 668.995 439.691, 663.921 435.351 C 663.053 434.608, 661.815 434, 661.171 434 C 660.527 434, 660 433.621, 660 433.157 C 660 431.961, 653.213 428.453, 652.424 429.243 C 650.528 431.138, 665.571 439.973, 674 441.915 C 680.726 443.464, 690.421 443.215, 695.018 441.376 C 701.663 438.717, 703.964 431.766, 699.905 426.607 C 697.021 422.940, 692.415 420.818, 679 416.974 C 660.456 411.661, 652.351 406.867, 647.280 398.214 C 643.478 391.727, 642.855 379.028, 645.937 370.853 C 651.513 356.066, 666.682 347.515, 687 347.707 C 700.008 347.829, 712.636 351.821, 721.816 358.713 C 724.967 361.079, 727.596 361.196, 725.268 358.868 C 722.872 356.472, 707.624 349, 705.130 349 C 704.179 349, 702.882 348.482, 702.248 347.848 C 701.073 346.673, 678.863 345.703, 674 346.615 M 169.379 348.121 C 167.864 348.716, 168.082 348.903, 170.500 349.082 C 172.150 349.204, 173.950 349.409, 174.500 349.537 C 175.050 349.665, 179.366 349.821, 184.092 349.885 L 192.684 350 195.452 357.056 C 196.975 360.937, 198.429 363.905, 198.682 363.651 C 199.435 362.899, 196.209 354.294, 193.765 350.531 L 191.500 347.046 181.379 347.215 C 175.813 347.307, 170.413 347.715, 169.379 348.121 M 259 348.508 C 256.733 349.797, 257.628 349.932, 268.597 349.965 L 280.694 350 290.038 363.250 C 295.177 370.538, 303.383 382.029, 308.273 388.787 L 317.163 401.074 320.401 396.787 C 325.110 390.551, 349.354 356.024, 351.498 352.500 L 353.324 349.500 350.912 352.022 C 349.585 353.409, 346.948 356.784, 345.051 359.522 C 343.155 362.260, 341.355 364.725, 341.051 365 C 340.748 365.275, 337.048 370.675, 332.828 377 C 328.608 383.325, 324.311 389.400, 323.277 390.500 C 322.244 391.600, 321.080 393.334, 320.691 394.354 C 320.246 395.520, 319.400 395.984, 318.410 395.604 C 317.544 395.272, 316.453 395, 315.983 395 C 315.514 395, 311.714 390.387, 307.539 384.750 C 303.363 379.113, 299.562 374.013, 299.091 373.418 C 298.621 372.823, 294.832 367.611, 290.672 361.836 C 286.512 356.061, 282.373 350.725, 281.474 349.978 C 280.480 349.154, 277.028 348.562, 272.670 348.469 C 268.726 348.385, 264.600 348.040, 263.500 347.702 C 262.400 347.364, 260.375 347.727, 259 348.508 M 408.695 348.351 C 408.176 349.705, 411.320 349.869, 435.804 349.767 L 463.500 349.652 439 348.927 C 425.525 348.528, 413.326 347.891, 411.891 347.511 C 410.009 347.013, 409.119 347.247, 408.695 348.351 M 537.716 347.618 C 537.430 347.904, 535.014 348.504, 532.348 348.951 C 527.916 349.695, 528.251 349.775, 536.250 349.882 L 545 350 545 382.668 C 545 418.607, 545.697 425.553, 549.979 432.306 C 555.137 440.438, 567.024 444.065, 578.277 440.940 C 583.332 439.536, 588.868 434.506, 591.417 429 C 593.389 424.740, 593.516 422.530, 593.807 387.526 C 593.977 367.190, 593.830 350.837, 593.481 351.186 C 593.132 351.535, 592.897 366.506, 592.959 384.454 C 593.054 411.949, 592.807 418.144, 591.392 423.794 C 589.182 432.617, 587.931 434.325, 581.417 437.409 C 571.537 442.087, 559.578 440.567, 553.298 433.834 C 548.026 428.182, 547.750 426.138, 546.916 386.619 C 546.488 366.335, 545.770 349.407, 545.319 349.001 C 544.231 348.022, 538.376 346.957, 537.716 347.618 M 595.309 348.421 C 595.530 349.083, 599.698 349.579, 606.085 349.703 C 611.813 349.815, 617.063 349.927, 617.750 349.953 C 619.775 350.029, 619.520 423.584, 617.467 431.465 C 612.034 452.324, 593.929 464.970, 569.500 464.970 C 548.693 464.970, 532.615 455.948, 524.494 439.714 C 520.681 432.093, 519.685 432.768, 523.153 440.623 C 525.816 446.655, 536.749 457.663, 543.188 460.797 C 548.779 463.518, 559.076 465.986, 567.892 466.720 C 578.468 467.599, 593.587 463.346, 601.781 457.185 C 611.270 450.052, 615.245 444.391, 618.942 432.743 C 620.655 427.345, 620.808 350.408, 619.109 348.708 C 617.516 347.116, 594.780 346.841, 595.309 348.421 M 362.500 349 L 354.500 349.633 365.250 349.817 C 371.872 349.930, 376 349.616, 376 349 C 376 347.960, 375.635 347.960, 362.500 349 M 164.448 351.250 C 164.070 352.488, 162.719 355.750, 161.446 358.500 C 159.185 363.381, 157.179 369.997, 158.262 369 C 159.518 367.843, 166.827 349, 166.019 349 C 165.533 349, 164.826 350.012, 164.448 351.250 M 519.124 350.500 C 518.521 352.707, 519.188 429.514, 519.820 430.646 C 520.194 431.316, 520.382 416.482, 520.238 397.682 C 519.975 363.290, 519.630 348.651, 519.124 350.500 M 378.160 399.083 C 378.281 435.781, 378.510 443.990, 379.106 433 C 379.854 419.208, 379.286 351.962, 378.414 351.083 C 378.186 350.854, 378.072 372.454, 378.160 399.083 M 407.193 352 C 406.492 355.626, 407.177 462.577, 407.906 463.306 C 408.855 464.255, 430.783 464.550, 431.707 463.626 C 432.052 463.282, 426.862 463, 420.175 463 L 408.017 463 407.750 406.750 C 407.603 375.813, 407.353 351.175, 407.193 352 M 475.335 353.377 C 483.162 356.689, 488.442 360.477, 492.028 365.352 C 493.662 367.575, 495 368.904, 495 368.305 C 495 367.706, 493.019 365.013, 490.598 362.321 C 485.849 357.038, 478.601 352.607, 473 351.561 C 470.339 351.064, 470.899 351.499, 475.335 353.377 M 255 407 C 254.725 437.525, 254.613 462.687, 254.750 462.917 C 255.823 464.705, 255.986 455.640, 255.759 406.908 L 255.500 351.500 255 407 M 719.500 370.777 C 713.756 378.468, 713.457 379, 714.883 379 C 716.005 379, 726 366.279, 726 364.851 C 726 362.847, 724.191 364.496, 719.500 370.777 M 199 365.315 C 199 365.488, 201.731 372.351, 205.069 380.565 C 208.407 388.779, 215.800 406.975, 221.497 421 C 227.194 435.025, 233.238 449.824, 234.928 453.888 C 236.618 457.951, 238 461.663, 238 462.138 C 238 462.612, 232.262 463.074, 225.250 463.165 L 212.500 463.329 224.500 464.004 C 231.157 464.378, 237.301 464.277, 238.298 463.778 C 240.514 462.669, 240.160 461.254, 234.924 450.271 C 232.766 445.744, 231 441.383, 231 440.580 C 231 439.776, 230.585 438.861, 230.077 438.548 C 229.569 438.234, 228.863 436.651, 228.507 435.030 C 228.150 433.409, 226.766 429.816, 225.430 427.046 C 224.093 424.276, 223 421.551, 223 420.991 C 223 420.431, 222.572 419.191, 222.048 418.236 C 220.649 415.682, 218.264 409.864, 217.442 407 C 216.674 404.324, 212.553 394.633, 210.962 391.764 C 210.433 390.809, 210 389.569, 210 389.009 C 210 388.449, 208.875 385.658, 207.500 382.808 C 206.125 379.958, 205 377.231, 205 376.749 C 205 375.460, 200.115 365, 199.514 365 C 199.231 365, 199 365.142, 199 365.315 M 99.553 375.551 C 95.821 379.704, 93.017 383.351, 93.322 383.655 C 94.113 384.447, 107 370.965, 107 369.346 C 107 368.606, 106.851 368, 106.669 368 C 106.486 368, 103.284 371.398, 99.553 375.551 M 153.991 376.519 C 152.287 380.239, 150.636 384.569, 150.322 386.141 C 150.007 387.714, 149.392 389, 148.954 389 C 148.517 389, 147.841 390.448, 147.452 392.217 C 147.064 393.987, 146.391 396.124, 145.957 396.967 C 145.523 397.810, 144.425 400.300, 143.516 402.500 C 141.416 407.586, 140.797 409.008, 137.063 417.320 C 135.379 421.071, 134 424.757, 134 425.511 C 134 426.265, 133.550 427.160, 133 427.500 C 132.450 427.840, 131.990 428.879, 131.978 429.809 C 131.965 430.739, 130.625 434.200, 129 437.500 C 127.375 440.800, 126.035 444.021, 126.022 444.658 C 126.010 445.294, 124.925 447.994, 123.611 450.658 C 119.826 458.329, 118.626 462.027, 119.606 462.995 C 120.098 463.481, 126.464 463.975, 133.753 464.092 C 144.763 464.269, 147.307 464.032, 148.792 462.688 C 150.499 461.143, 153.162 454.574, 154.425 448.792 C 154.751 447.303, 156.077 444.941, 157.373 443.542 L 159.729 441 179.615 441.032 C 195.410 441.057, 199.895 441.362, 201.418 442.515 C 203.251 443.902, 207.577 454.443, 208.697 460.250 C 208.988 461.762, 209.851 463, 210.613 463 C 211.376 463, 212 462.868, 212 462.706 C 212 462.544, 210.018 457.482, 207.596 451.456 L 203.192 440.500 179.712 440.232 L 156.232 439.964 151.964 451.482 L 147.696 463 134.348 463 C 127.006 463, 121 462.792, 121 462.538 C 121 462.099, 128.991 442.222, 149.004 392.880 C 153.957 380.668, 157.803 370.469, 157.549 370.216 C 157.296 369.963, 155.695 372.799, 153.991 376.519 M 677.316 371.943 C 673.141 373.839, 670 378.040, 670 381.728 C 670 386.662, 676.932 391.209, 690.052 394.880 C 714.900 401.833, 725.405 410.017, 727.904 424.371 C 730.452 439.004, 723.346 453.191, 710.077 459.961 C 696.667 466.802, 671.989 466.608, 656.165 459.538 C 651.435 457.424, 650.882 457.330, 652.816 458.967 C 655.044 460.853, 663.263 463.647, 673.264 465.918 C 679.065 467.235, 692.228 467.334, 696.429 466.092 C 709.071 462.355, 711.499 461.279, 716.752 457.082 C 721.109 453.602, 723.347 450.797, 726 445.495 C 729.181 439.138, 729.499 437.724, 729.491 430 C 729.484 422.730, 729.090 420.737, 726.772 416.228 C 725.281 413.329, 722.810 409.633, 721.280 408.016 C 718.246 404.806, 703.818 397, 700.921 397 C 699.929 397, 698.871 396.601, 698.570 396.113 C 698.269 395.626, 696.412 394.925, 694.443 394.555 C 690.072 393.735, 679.497 389.320, 675.750 386.750 C 673.713 385.353, 673.004 384.039, 673.015 381.682 C 673.034 377.697, 673.647 376.769, 678 374.130 C 680.597 372.555, 683.148 372.007, 687.889 372.004 C 693.290 372.001, 695.567 372.618, 702.619 376 C 707.206 378.200, 711.306 379.998, 711.730 379.996 C 714.042 379.983, 702.552 373.671, 697.145 371.983 C 689.201 369.504, 682.717 369.491, 677.316 371.943 M 56.836 372.859 C 46.015 376.435, 38.906 382.705, 34.136 392.880 C 31.955 397.533, 31.511 399.877, 31.554 406.500 C 31.619 416.465, 34.199 423.487, 40.398 430.566 C 54.065 446.176, 75.282 446.810, 91.321 432.089 L 94.142 429.500 100.532 436.500 C 104.046 440.350, 106.939 443.837, 106.961 444.250 C 107.030 445.568, 109 445.052, 109 443.716 C 109 443.009, 107.685 441.654, 106.077 440.705 C 104.470 439.755, 101.506 436.733, 99.492 433.989 C 97.478 431.245, 95.122 429, 94.257 429 C 93.392 429, 90.393 430.718, 87.592 432.819 C 78.040 439.981, 67.119 443.004, 59.242 440.664 C 51.952 438.499, 48.485 436.465, 43.097 431.189 C 34.413 422.686, 30.972 412.721, 32.900 401.655 C 34.903 390.148, 40.867 382.495, 52.359 376.685 C 57.736 373.966, 59.495 373.585, 66.500 373.617 C 74.956 373.656, 78.612 374.935, 85.944 380.422 C 90.358 383.726, 92.048 383.745, 88.960 380.457 C 87.646 379.058, 83.790 376.545, 80.391 374.872 C 72.405 370.940, 64.648 370.277, 56.836 372.859 M 434.068 375.234 C 434.134 378.427, 434.161 378.446, 435.284 376.107 C 436.431 373.719, 436.463 373.715, 448.850 374.343 C 462.287 375.024, 465.511 376.112, 469.351 381.264 C 470.484 382.784, 471.741 386.159, 472.144 388.764 L 472.877 393.500 472.619 387.908 C 472.095 376.531, 466.957 373.481, 446.750 372.554 L 434 371.968 434.068 375.234 M 498.500 388.845 C 498.500 402.621, 497.021 406.856, 489.341 415.067 C 480.284 424.750, 469.963 427.955, 447.750 427.983 L 434 428 434.150 431.750 C 434.264 434.610, 434.396 434.869, 434.707 432.842 C 435.113 430.200, 435.176 430.181, 445.808 429.608 C 460.422 428.821, 473.389 427.351, 475.634 426.228 C 476.660 425.714, 479.075 424.533, 481 423.602 C 482.925 422.671, 486.108 420.422, 488.072 418.604 C 491.951 415.015, 498 405.839, 498 403.544 C 498 402.760, 498.450 401.840, 499 401.500 C 500.148 400.790, 500.358 380.111, 499.235 378.345 C 498.831 377.711, 498.500 382.436, 498.500 388.845 M 178.743 379.607 C 178.108 380.634, 164 418.885, 164 419.579 C 164 419.811, 171.023 420, 179.607 420 C 194.074 420, 195.162 419.872, 194.506 418.250 C 193.798 416.501, 181.405 384.211, 180.047 380.579 C 179.652 379.522, 179.065 379.085, 178.743 379.607 M 176.494 389.779 C 175.449 392.926, 174.257 396.175, 173.845 397 C 170.633 403.437, 168.015 411.842, 168.006 415.750 C 168 417.960, 168.217 418, 180.107 418 C 191.246 418, 192.156 417.860, 191.492 416.250 C 191.095 415.288, 190.424 413.150, 190.003 411.500 C 188.702 406.411, 186.944 402.065, 181.823 391.279 L 178.394 384.058 176.494 389.779 M 281 393.178 C 281 396.639, 283.372 400, 285.815 400 C 286.451 400, 288.211 401.913, 289.726 404.250 C 291.242 406.587, 292.712 408.725, 292.993 409 C 294.057 410.040, 301.814 420.625, 303.618 423.500 C 304.653 425.149, 306.263 427.399, 307.196 428.500 C 308.128 429.600, 309.928 432.040, 311.196 433.923 C 312.463 435.806, 314.175 437.566, 315 437.836 C 316.159 438.214, 316.252 438.004, 315.411 436.913 C 314.812 436.136, 306.981 425.375, 298.007 413 C 289.034 400.625, 281.537 390.313, 281.346 390.083 C 281.156 389.854, 281 391.247, 281 393.178 M 335.703 414.124 C 326.464 426.837, 319.052 437.385, 319.232 437.565 C 319.976 438.309, 322.004 436.012, 328.557 427 C 332.356 421.775, 336.147 416.739, 336.982 415.809 C 337.817 414.878, 340.300 411.182, 342.500 407.594 C 344.700 404.006, 347.014 401.055, 347.643 401.036 C 348.272 401.016, 349.045 400.325, 349.362 399.500 C 351.133 394.883, 351.577 400.734, 351.312 425.250 C 351.151 440.238, 350.825 454.828, 350.589 457.674 C 350.270 461.519, 350.525 462.987, 351.580 463.392 C 352.791 463.857, 353 458.560, 353 427.469 C 353 407.411, 352.887 391.002, 352.750 391.005 C 352.613 391.007, 344.941 401.411, 335.703 414.124 M 434.131 399.344 L 434 405.188 448.250 404.844 C 463.882 404.467, 467.116 403.460, 470.364 397.960 C 473.010 393.481, 472.260 393.455, 468.250 397.887 C 463.846 402.754, 459.109 404, 445.004 404 L 436.281 404 435.272 398.750 L 434.263 393.500 434.131 399.344 M 4.607 396.582 C 3.750 398.816, 3.879 415.262, 4.765 416.655 C 5.169 417.289, 5.500 412.677, 5.500 406.405 C 5.500 400.132, 5.436 395, 5.357 395 C 5.278 395, 4.941 395.712, 4.607 396.582 M 281.030 431.218 L 281 462.937 269.250 463.270 L 257.500 463.603 269.986 463.551 L 282.472 463.500 282.646 433 C 282.741 416.225, 282.424 401.825, 281.940 401 C 281.421 400.114, 281.048 412.490, 281.030 431.218 M 6.348 422 C 7.349 429.943, 13.545 441.179, 21.177 448.891 C 33.972 461.821, 48.429 467.487, 66.687 466.727 C 79.866 466.178, 86.595 464.116, 96.405 457.623 C 103.875 452.679, 105.882 450.991, 107.239 448.510 C 107.837 447.416, 105.909 448.695, 102.953 451.352 C 92.712 460.560, 80.415 465, 65.155 465 C 53.528 465, 47.239 463.664, 38.235 459.282 C 24.629 452.661, 13.440 439.905, 8.215 425.058 C 6.599 420.466, 6.039 419.549, 6.348 422 M 647.750 431.080 C 646.788 431.641, 645.998 432.640, 645.995 433.300 C 645.993 433.960, 644.418 436.213, 642.495 438.306 C 640.573 440.399, 639 442.826, 639 443.699 C 639 444.573, 640.644 443.085, 642.653 440.394 C 644.663 437.702, 647.447 434.262, 648.840 432.750 C 651.411 429.960, 650.932 429.227, 647.750 431.080 M 638.006 449.199 C 638.013 450.480, 643.899 454.434, 644.663 453.671 C 644.878 453.455, 643.467 452.068, 641.527 450.589 C 639.350 448.928, 638.002 448.396, 638.006 449.199 M 378.100 456.750 L 378 463 366.750 463.209 L 355.500 463.419 365.500 463.752 C 379.050 464.203, 380.025 463.897, 379.900 459.231 C 379.845 457.179, 379.440 454.375, 379 453 C 378.405 451.142, 378.174 452.105, 378.100 456.750 M 434.300 457 C 434.300 460.025, 434.487 461.262, 434.716 459.750 C 434.945 458.238, 434.945 455.762, 434.716 454.250 C 434.487 452.738, 434.300 453.975, 434.300 457 M 306.614 497.823 C 305.726 498.001, 304.991 498.676, 304.980 499.323 C 304.451 530.764, 304.934 565.341, 305.911 565.945 C 306.559 566.346, 310.319 566.635, 314.266 566.587 C 323.521 566.475, 324.243 565.373, 323.492 552.500 C 323.204 547.550, 322.779 534.050, 322.549 522.500 C 322.318 510.950, 321.842 500.749, 321.489 499.832 C 321.006 498.573, 319.301 498.083, 314.538 497.832 C 311.068 497.649, 307.502 497.645, 306.614 497.823 M 642.656 498.125 C 633.941 499.450, 628.509 503.067, 625.143 509.788 C 622.089 515.886, 621.776 518.799, 623.577 524.355 C 626.263 532.637, 632.394 537.803, 641.500 539.456 C 643.700 539.855, 647.899 541.315, 650.831 542.701 C 655.713 545.009, 656.106 545.444, 655.510 547.861 C 654.513 551.898, 653.571 552.355, 646.468 552.248 C 641.149 552.167, 639.268 551.683, 636.691 549.732 C 634.936 548.404, 632.197 546.996, 630.605 546.603 C 628.181 546.005, 627.164 546.418, 624.355 549.141 C 622.510 550.929, 621.001 553.092, 621.003 553.946 C 621.004 554.854, 622.576 553.679, 624.784 551.118 L 628.563 546.736 634.280 549.963 C 638.284 552.223, 641.720 553.326, 645.749 553.644 C 652.562 554.183, 656.031 552.697, 657.463 548.625 C 658.334 546.149, 658.120 545.500, 655.770 543.479 C 654.291 542.206, 650.475 540.439, 647.290 539.551 C 629.562 534.607, 624 529.722, 624 519.097 C 624 511.531, 627.813 505.764, 635.500 501.704 C 641.417 498.580, 654.564 498.656, 661.679 501.856 C 664.527 503.137, 667.617 505.025, 668.546 506.051 C 670.145 507.817, 670.060 508.136, 666.949 512.064 C 664.354 515.341, 664.049 516.137, 665.498 515.856 C 666.507 515.660, 668.382 513.611, 669.666 511.301 L 672.001 507.103 668.751 504.661 C 661.143 498.948, 652.117 496.687, 642.656 498.125 M 148 498.695 C 139.514 500.131, 129.840 507.884, 124.402 517.609 C 121.250 523.244, 120.891 524.667, 120.845 531.689 C 120.727 549.997, 129.789 562.743, 145.611 566.522 C 158.611 569.627, 172.454 567.285, 179.439 560.800 C 180.505 559.810, 181.667 559, 182.022 559 C 183.323 559, 189.916 548.369, 191.324 544 C 193.845 536.183, 194.027 533.019, 192.383 525.664 C 189.821 514.209, 180.179 503.126, 169.715 499.608 C 165.241 498.104, 154.229 497.641, 148 498.695 M 239.500 498.740 C 234.465 499.479, 223.474 507.502, 220.262 512.783 C 215.248 521.027, 214.499 523.854, 214.511 534.504 C 214.520 543.684, 214.758 544.918, 217.394 549.504 C 222.390 558.191, 232.100 566.001, 237.904 565.999 C 239.896 565.999, 239.095 565.334, 234.460 563.141 C 227.037 559.629, 220.863 552.906, 217.936 545.147 C 216.223 540.604, 215.886 537.928, 216.213 531.459 C 216.713 521.567, 219.411 515.447, 226.191 508.826 C 238.143 497.154, 259.736 496.234, 272.159 506.868 L 276.143 510.278 271.863 514.639 C 267.590 518.993, 267.588 519, 270.292 519 C 273.840 519, 277 515.741, 277 512.082 C 277 508.484, 276.104 506, 274.806 506 C 274.268 506, 271.871 504.595, 269.479 502.878 C 267.088 501.161, 263.190 499.380, 260.816 498.921 C 256.368 498.062, 244.794 497.963, 239.500 498.740 M 364.073 498.669 C 360.840 499.357, 357.230 501.778, 353.393 505.832 C 349.716 509.715, 346.813 520.213, 348.852 522.252 C 349.484 522.884, 350 524.354, 350 525.520 C 350 530.214, 360.777 537.930, 369.664 539.597 C 371.511 539.943, 373.269 540.626, 373.570 541.113 C 373.871 541.601, 375.104 542.015, 376.309 542.033 C 377.514 542.052, 379.586 542.971, 380.913 544.076 L 383.327 546.085 381.310 548.793 C 379.498 551.226, 378.579 551.530, 372.230 551.792 C 365.590 552.067, 364.957 551.902, 361.701 549.042 C 357.221 545.109, 353.300 545.034, 349.679 548.813 C 346.522 552.109, 345.535 558.700, 348 560.025 C 352.670 562.533, 361.294 565.993, 362.777 565.953 C 363.725 565.927, 362.306 565.050, 359.624 564.002 C 354.691 562.076, 346.975 557.243, 347.030 556.114 C 347.046 555.776, 348.759 553.534, 350.836 551.132 L 354.612 546.764 360.305 549.977 C 364.285 552.223, 367.727 553.326, 371.749 553.644 C 378.562 554.183, 382.031 552.697, 383.463 548.625 C 384.333 546.151, 384.120 545.500, 381.784 543.490 C 380.312 542.225, 374.696 539.804, 369.304 538.112 C 357.859 534.519, 353.798 531.657, 351.459 525.531 C 347.334 514.730, 354.033 503.234, 366.401 499.887 C 372.483 498.241, 382.582 499.320, 389 502.301 C 397.958 506.463, 397.803 506.143, 393.662 511.908 C 391.650 514.709, 390.414 517, 390.916 517 C 391.419 517, 393.498 514.727, 395.538 511.949 L 399.246 506.898 395.943 503.949 C 394.126 502.327, 391.911 501, 391.020 501 C 390.129 501, 388.877 500.477, 388.238 499.838 C 387.025 498.625, 368.489 497.728, 364.073 498.669 M 419.365 499.475 C 418.059 500.430, 417.989 501.486, 418.904 506.438 C 419.497 509.648, 420.492 512.888, 421.114 513.637 C 422.412 515.201, 429.762 515.446, 432 514 C 433.059 513.316, 431.696 513.026, 427.367 513.015 C 420.469 512.998, 420.040 512.487, 420.014 504.250 L 420 500 447 500 L 474 500 474 506.500 L 474 513 464.500 513 L 455 513 455 539 L 455 565 447 565 L 439 565 439 539 C 439 516.556, 438.795 513, 437.500 513 C 435.900 513, 435.458 514.547, 436.818 515.387 C 437.268 515.665, 437.726 526.829, 437.836 540.196 C 438.003 560.443, 438.286 564.687, 439.533 565.621 C 440.375 566.252, 444.411 566.689, 448.765 566.621 L 456.500 566.500 456.768 541.581 C 456.950 524.644, 457.404 516.218, 458.185 515.277 C 459.080 514.199, 461.068 514.043, 467.144 514.573 L 474.953 515.254 475.976 512.562 C 477.493 508.573, 477.256 500.457, 475.581 499.067 C 473.650 497.464, 421.599 497.842, 419.365 499.475 M 497.516 499.627 C 495.849 501.294, 495.767 503.530, 495.990 541.500 C 496.094 559.369, 496.405 563.940, 497.644 565.844 C 498.815 567.643, 499.674 568.014, 501.335 567.438 C 502.526 567.025, 505.750 566.645, 508.500 566.593 C 511.250 566.542, 514.048 566.145, 514.719 565.710 C 515.653 565.105, 515.813 557.638, 515.405 533.710 C 515.113 516.545, 514.675 501.512, 514.432 500.306 C 514.024 498.281, 513.410 498.111, 506.511 498.111 C 501.161 498.111, 498.600 498.543, 497.516 499.627 M 579.363 499.469 C 587.076 501.095, 593.174 503.927, 597.250 507.777 C 599.305 509.718, 600 509.979, 600 508.810 C 600 506.772, 595.996 503.505, 591 501.466 C 590.175 501.130, 588.744 500.453, 587.820 499.962 C 586.895 499.471, 583.070 498.834, 579.320 498.547 L 572.500 498.023 579.363 499.469 M 63.500 500 C 62.018 500.637, 62.794 500.874, 66.500 500.914 C 70.078 500.954, 71.073 500.694, 70 500 C 68.203 498.839, 66.202 498.839, 63.500 500 M 150.045 500.042 C 133.889 503.391, 122.571 516.775, 122.599 532.500 C 122.623 546.454, 129.231 557.036, 141.772 563.207 C 147.784 566.165, 149.330 566.496, 156.982 566.462 C 167.560 566.415, 175.372 563.243, 182.314 556.176 C 189.107 549.260, 191.426 543.373, 191.443 533 C 191.459 522.994, 188.794 516.056, 182.459 509.612 C 174.890 501.914, 160.917 497.789, 150.045 500.042 M 561.419 500.369 C 553.925 503.120, 546.099 510.878, 541.784 519.835 C 538.907 525.807, 538.763 526.665, 539.276 534.835 C 539.652 540.842, 540.492 544.880, 542.012 548 C 544.424 552.947, 551.669 561, 553.708 561 C 554.419 561, 555.003 561.337, 555.006 561.750 C 555.016 562.938, 560.950 566, 563.241 566 C 564.464 566, 562.796 564.739, 559.189 562.936 C 549.071 557.881, 542.862 549.462, 540.858 538.083 C 537.822 520.847, 549.381 504.148, 566.972 500.359 C 572.178 499.237, 572.267 499.170, 568.500 499.203 C 566.300 499.223, 563.114 499.747, 561.419 500.369 M 306 532.500 L 306 565 313.500 565 L 321 565 321 532.500 L 321 500 313.500 500 L 306 500 306 532.500 M 498 532.500 L 498 565 506 565 L 514 565 514 532.500 L 514 500 506 500 L 498 500 498 532.500 M 58.182 503.500 C 58.023 504.050, 57.667 518.047, 57.390 534.605 L 56.886 564.710 59.732 565.889 C 61.719 566.712, 68.584 566.940, 82.472 566.645 C 100.188 566.268, 102.509 566.024, 103.683 564.420 C 105.304 562.202, 105.420 553.820, 103.851 552.251 C 103.039 551.439, 98.833 551.276, 89.514 551.698 C 77.228 552.253, 76.264 552.164, 75.416 550.397 C 74.915 549.354, 74.262 538.600, 73.965 526.500 L 73.425 504.500 73.212 528.750 L 73 553 88 553 L 103 553 103 559 L 103 565 81.014 565 L 59.028 565 58.749 533.750 C 58.596 516.563, 58.341 502.950, 58.182 503.500 M 367.455 514.455 C 366.105 515.805, 365 517.526, 365 518.280 C 365 521.046, 369.732 523.933, 379.261 526.980 C 386.723 529.366, 389.937 530.972, 392.907 533.800 C 402.513 542.947, 399.744 558.022, 387.340 564.110 C 383.306 566.090, 381.001 566.480, 373.500 566.447 C 366.045 566.414, 365.187 566.558, 368.500 567.281 C 377.714 569.292, 389.491 566.509, 394.975 561.025 C 401.927 554.073, 402.472 540.517, 396.069 533.815 C 393.023 530.627, 382.432 525, 379.478 525 C 378.335 525, 376.973 524.585, 376.450 524.077 C 375.928 523.569, 374.195 523.007, 372.601 522.827 C 368.509 522.365, 367.081 519.732, 369.032 516.241 C 370.233 514.093, 371.531 513.370, 375.032 512.900 L 379.500 512.300 374.705 512.150 C 370.827 512.029, 369.439 512.470, 367.455 514.455 M 594.579 515.919 L 590.682 519.910 587.866 517.541 C 584.848 515.001, 578.249 512.418, 577.273 513.393 C 576.947 513.719, 578.118 514.274, 579.875 514.625 C 581.851 515.020, 584.343 516.751, 586.406 519.161 L 589.742 523.058 594.522 518.731 C 597.150 516.351, 599.116 513.847, 598.889 513.166 C 598.639 512.416, 596.939 513.502, 594.579 515.919 M 641.039 514.189 C 638.932 516.450, 638.490 518.682, 639.765 520.610 C 640.831 522.221, 645.354 524.299, 654.971 527.596 C 668.365 532.188, 674.240 539.703, 672.497 550.015 C 671.318 556.994, 666.265 562.129, 657.500 565.254 L 652.500 567.037 657.493 566.368 C 663.580 565.554, 667.098 563.081, 671.147 556.771 C 673.939 552.420, 674.192 551.363, 673.826 545.603 C 673.509 540.634, 672.832 538.469, 670.736 535.720 C 668.010 532.146, 656.537 525, 653.525 525 C 651.185 525, 642.071 521.924, 641.454 520.926 C 641.171 520.467, 641.217 518.985, 641.556 517.631 C 642.226 514.963, 645.416 513.296, 651 512.696 C 653.299 512.449, 652.540 512.265, 648.789 512.160 C 644.077 512.028, 642.721 512.383, 641.039 514.189 M 242.370 514.440 C 240.649 515.190, 238.940 516.288, 238.573 516.882 C 238.206 517.475, 239.165 517.331, 240.703 516.560 C 242.241 515.790, 244.625 514.704, 246 514.147 C 247.375 513.591, 247.825 513.123, 247 513.107 C 246.175 513.091, 244.092 513.691, 242.370 514.440 M 258.451 515.354 C 261.174 516.772, 263.551 517.783, 263.732 517.601 C 264.347 516.987, 259.227 514.095, 256.354 513.434 C 254.411 512.987, 255.080 513.600, 258.451 515.354 M 568.030 514.113 C 557.349 518.375, 552.158 531.146, 556.880 541.541 C 558.829 545.832, 563.717 550.541, 567.944 552.200 C 574.381 554.727, 586.037 552.275, 589.939 547.573 C 592.139 544.923, 588.864 545.650, 586.269 548.388 C 581.303 553.628, 569.687 552.964, 562.540 547.034 C 559.898 544.841, 557 537.058, 557 532.155 C 557 528.120, 557.606 526.493, 560.546 522.644 C 562.496 520.090, 564.901 518, 565.891 518 C 566.880 518, 568.482 517.125, 569.449 516.056 C 570.417 514.987, 572.174 513.923, 573.354 513.692 C 575.210 513.329, 575.162 513.263, 573 513.200 C 571.625 513.160, 569.388 513.570, 568.030 514.113 M 657.206 515.373 C 659.890 517.978, 662 518.768, 662 517.169 C 662 516.460, 659.203 514.739, 655.500 513.171 C 654.950 512.938, 655.718 513.929, 657.206 515.373 M 146.500 515.861 C 135.860 522.433, 133.787 537.710, 142.298 546.834 C 148.267 553.233, 159.001 554.912, 167.093 550.713 C 177.721 545.197, 180.197 528.257, 171.702 519.172 C 167.632 514.818, 165.221 514.330, 168.785 518.582 C 170.591 520.737, 172.472 523.010, 172.965 523.633 C 173.457 524.256, 174.367 526.648, 174.986 528.948 C 176.300 533.828, 175.271 538.068, 171.166 544.688 C 168.222 549.434, 165.649 550.899, 158.839 551.705 C 150.985 552.636, 141.706 546.781, 140.359 540.044 C 140.019 538.347, 139.350 536.716, 138.871 536.420 C 135.029 534.046, 143.660 516, 148.637 516 C 149.322 516, 150.160 515.550, 150.500 515 C 151.450 513.462, 149.812 513.814, 146.500 515.861 M 233.138 522.750 C 230.768 527.198, 229.926 533.011, 231.038 537.250 C 233.634 547.137, 240.988 553, 250.795 553 C 257.679 553, 264 550.464, 264 547.703 C 264 545.628, 263.995 545.628, 261.972 547.799 C 260.857 548.996, 258.832 550.206, 257.472 550.488 C 256.113 550.770, 253.935 551.219, 252.633 551.486 C 251.331 551.753, 247.988 551.295, 245.203 550.468 C 239.548 548.788, 235.533 544.557, 232.688 537.278 C 231.133 533.298, 231.146 532.708, 232.914 527.028 C 234.797 520.977, 234.875 519.490, 233.138 522.750 M 269.753 523.980 C 265.919 526.996, 262.004 528.248, 260.448 526.957 C 258.449 525.298, 253.405 525.505, 250.570 527.362 C 247.411 529.432, 246.413 533.082, 248.165 536.157 C 249.435 538.385, 249.515 538.267, 249.805 533.750 L 250.110 529 264.055 529 L 278 529 278 542.411 L 278 555.822 274.880 558.447 C 270.779 561.898, 267.183 563.705, 260.770 565.535 L 255.500 567.039 261.072 566.532 C 267.515 565.945, 271.800 564.046, 275.873 559.973 C 279.434 556.412, 279.929 553.586, 279.561 538.921 C 279.165 523.148, 276.320 518.814, 269.753 523.980 M 596.652 550.428 C 599.907 554.346, 601.642 555.068, 599.877 551.771 C 598.306 548.836, 596.419 547, 594.973 547 C 594.329 547, 595.085 548.543, 596.652 550.428 M 595.563 559.617 C 591.788 562.895, 581.314 567, 576.728 567 C 575.594 567, 574.946 567.280, 575.288 567.622 C 576.329 568.663, 589.302 565.802, 592.500 563.826 C 594.150 562.806, 596.273 561.705, 597.217 561.378 C 598.770 560.841, 600.675 557.318, 599.841 556.525 C 599.654 556.346, 597.728 557.738, 595.563 559.617 M 620.226 558.179 C 620.678 559.534, 621.456 559.997, 629.096 563.462 C 632.175 564.858, 635.550 565.979, 636.596 565.953 C 637.643 565.927, 636.453 565.105, 633.952 564.127 C 631.451 563.148, 627.634 561.144, 625.470 559.673 C 621.214 556.781, 619.608 556.324, 620.226 558.179" stroke="none" fill="#000000" fill-rule="evenodd"/><path d="M 49.202 350.022 C 38.656 352.785, 30.460 357.465, 22.935 365.020 C 11.236 376.765, 5.639 390.204, 5.660 406.500 C 5.682 423.232, 10.854 435.800, 22.523 447.483 C 34.505 459.479, 47.736 465, 64.500 465 C 79.954 465, 93.174 460.221, 103.017 451.076 L 108.348 446.123 103.424 440.434 C 100.716 437.305, 97.540 433.577, 96.367 432.150 L 94.234 429.556 89.992 433.388 C 80.393 442.061, 65.845 445.215, 54.753 441.028 C 46.782 438.019, 38.913 430.601, 34.774 422.193 C 31.805 416.162, 31.501 414.701, 31.509 406.521 C 31.516 398.714, 31.888 396.743, 34.273 391.874 C 39.700 380.792, 52.209 372.225, 64.361 371.269 C 72.065 370.662, 80.045 373.284, 87.401 378.838 L 92.582 382.749 99.804 374.943 L 107.026 367.137 102.047 362.235 C 96.505 356.780, 87.323 351.702, 78.992 349.485 C 71.384 347.461, 58.063 347.701, 49.202 350.022 M 671.251 349.545 C 655.142 353.883, 645.304 365.017, 644.222 380.134 C 643.246 393.778, 648.074 403.165, 659.265 409.384 C 662.694 411.289, 671.800 414.716, 679.500 416.999 C 697.689 422.391, 701.928 425.088, 701.978 431.300 C 702.040 439.096, 696.276 443, 684.704 443 C 674.998 443, 665.930 440.189, 657.586 434.594 L 651.104 430.248 647.254 434.874 C 641.646 441.611, 639 445.604, 639 447.328 C 639 449.076, 650.538 457.030, 657.075 459.788 C 666.119 463.603, 671.338 464.500, 684.500 464.500 C 696.363 464.500, 698.189 464.247, 705.375 461.603 C 719.859 456.275, 728 445.021, 728 430.329 C 728 421.119, 726.346 416.540, 720.846 410.522 C 715.006 404.132, 708.075 400.641, 690.059 395.016 C 679.243 391.638, 675.973 390.173, 673.309 387.509 C 669.360 383.560, 668.980 379.566, 672.168 375.514 C 678.238 367.796, 693.539 368.135, 707.076 376.287 L 712.653 379.645 719.020 371.241 C 723.911 364.786, 725.161 362.478, 724.409 361.287 C 722.529 358.306, 710.936 352.202, 703.182 350.110 C 693.946 347.618, 679.366 347.360, 671.251 349.545 M 165.429 352.250 C 165.040 353.488, 155.054 378.350, 143.238 407.500 C 131.421 436.650, 121.536 461.063, 121.270 461.750 C 120.898 462.712, 123.866 463, 134.143 462.998 L 147.500 462.996 151.657 451.748 L 155.813 440.500 179.657 440.252 L 203.500 440.004 207.884 451.502 L 212.268 463 225.241 463 C 237.178 463, 238.162 462.860, 237.562 461.250 C 237.203 460.288, 226.918 434.867, 214.705 404.761 L 192.500 350.022 179.317 350.011 C 166.518 350, 166.114 350.065, 165.429 352.250 M 256.667 350.667 C 256.300 351.033, 256 376.458, 256 407.167 L 256 463 268.488 463 L 280.975 463 281.238 426.458 L 281.500 389.916 298.500 413.392 C 307.850 426.304, 316.175 437.018, 317 437.200 C 318.500 437.532, 320.387 435.103, 342.671 404.157 L 353 389.814 353 426.407 L 353 463 365.500 463 L 378 463 378 406.500 L 378 350 366.084 350 L 354.168 350 351.272 353.750 C 349.679 355.813, 341.495 367.288, 333.085 379.250 C 324.676 391.212, 317.504 400.994, 317.148 400.987 C 316.791 400.980, 315.600 399.643, 314.500 398.016 C 313.400 396.389, 305.301 384.920, 296.503 372.529 L 280.506 350 268.920 350 C 262.547 350, 257.033 350.300, 256.667 350.667 M 408.732 406.250 L 408.964 462.500 421.482 462.780 L 434 463.060 434 445.530 L 434 428 446.250 427.992 C 474.259 427.975, 487.379 422.137, 495.219 406.202 C 498.325 399.891, 498.500 398.947, 498.500 388.518 C 498.500 378.511, 498.247 376.984, 495.738 371.875 C 492.661 365.611, 485.426 358.278, 479.174 355.089 C 470.763 350.798, 464.156 350.030, 435.500 350.015 L 408.500 350 408.732 406.250 M 520.414 351.363 C 520.126 352.113, 520.031 370.226, 520.202 391.613 C 520.508 429.744, 520.560 430.614, 522.864 436.344 C 527.556 448.013, 538.944 458.420, 551.533 462.545 C 560.251 465.401, 580.091 465.190, 588.419 462.151 C 599.658 458.050, 609.393 450.030, 613.933 441.131 C 618.458 432.261, 618.970 426.810, 618.985 387.250 L 619 350 606.500 350 L 594 350 594 385.318 C 594 424.497, 593.557 428.018, 587.809 434.565 C 584.056 438.839, 580.740 440.648, 574.013 442.091 C 563.335 444.381, 552.828 439.133, 548.163 429.181 L 545.500 423.500 545.194 386.750 L 544.887 350 532.912 350 C 523.723 350, 520.816 350.317, 520.414 351.363 M 434 388.346 L 434 405 447.250 404.978 C 463.506 404.951, 467.663 403.540, 471.051 396.901 C 473.726 391.657, 473.399 383.351, 470.358 379.277 C 466.613 374.262, 462.418 372.976, 447.614 372.307 L 434 371.692 434 388.346 M 178.637 379 C 175.816 386.105, 164 418.541, 164 419.180 C 164 419.631, 170.975 420, 179.500 420 C 188.025 420, 195 419.841, 195 419.647 C 195 419.453, 191.683 410.565, 187.628 399.897 C 183.574 389.229, 180.026 379.825, 179.745 379 C 179.290 377.667, 179.167 377.667, 178.637 379 M 244.500 500.032 C 233.567 501.572, 223.878 508.762, 219.151 518.845 C 216.894 523.660, 216.501 525.839, 216.509 533.510 C 216.518 541.481, 216.857 543.189, 219.452 548.318 C 229.376 567.932, 255.611 572.684, 274.750 558.335 L 278 555.898 278 542.449 L 278 529 264 529 L 250 529 250 533.965 C 250 539.904, 251.392 541, 258.934 541 L 264 541 264 545.348 C 264 549.493, 263.803 549.785, 259.773 551.598 C 250.961 555.563, 239.339 552.599, 234.287 545.099 C 229.492 537.981, 229.102 530.640, 233.103 522.798 C 237.744 513.702, 250.641 510.320, 261.356 515.389 C 264.392 516.825, 267.263 518, 267.735 518 C 268.208 518, 270.289 516.264, 272.361 514.143 L 276.128 510.285 272.814 507.483 C 265.496 501.294, 255.053 498.546, 244.500 500.032 M 367.086 500.085 C 354.177 502.619, 346.731 515.616, 351.979 526.457 C 354.691 532.058, 359.437 535.094, 371 538.623 C 383.603 542.470, 387.321 547.242, 381.365 551.927 C 377.257 555.159, 369.999 554.736, 362 550.800 C 358.425 549.041, 355.263 547.579, 354.973 547.551 C 354.684 547.523, 352.720 549.411, 350.609 551.747 L 346.772 555.995 349.136 557.986 C 356.584 564.260, 370.152 567.812, 379.833 566.024 C 391.735 563.825, 398.451 556.679, 398.244 546.434 C 398.026 535.705, 392.982 531.043, 376.190 526.052 C 365.248 522.800, 362.116 518.414, 367.635 514.073 C 371.278 511.206, 378.070 511.354, 384.704 514.443 L 389.909 516.866 393.421 511.977 L 396.933 507.089 393.875 504.911 C 389.919 502.094, 379.840 498.970, 375.161 499.110 C 373.147 499.170, 369.514 499.609, 367.086 500.085 M 569.305 500.062 C 558.443 501.539, 548.868 508.460, 543.995 518.359 C 541.438 523.552, 540.902 525.852, 540.883 531.702 C 540.856 540.551, 542.125 545.337, 546.089 551.320 C 552.700 561.302, 562.228 566.198, 575.123 566.239 C 581.149 566.258, 583.872 565.745, 588.123 563.791 C 593.288 561.417, 600 556.540, 600 555.161 C 600 554.797, 598.219 552.551, 596.042 550.169 L 592.084 545.839 588.292 548.796 C 579.619 555.560, 570.085 555.526, 562.316 548.704 C 550.786 538.581, 553.414 520.321, 567.232 514.548 C 574.088 511.683, 583.055 513.010, 588.048 517.630 L 590.596 519.987 594.933 515.568 C 597.466 512.988, 599.044 510.557, 598.726 509.728 C 598.426 508.947, 596.030 506.883, 593.400 505.141 C 586.386 500.496, 578.438 498.820, 569.305 500.062 M 638.216 500.826 C 631.873 503.094, 628.369 506.129, 625.890 511.500 C 623.532 516.610, 623.549 521.409, 625.943 526.684 C 628.406 532.109, 633.198 535.165, 644.500 538.521 C 655.336 541.738, 658.899 544.542, 657.435 548.703 C 655.206 555.042, 645.806 555.811, 635.370 550.510 L 628.500 547.019 624.757 551.260 L 621.015 555.500 624.654 558.733 C 632.648 565.834, 649.871 568.738, 659.500 564.609 C 667.954 560.984, 672 555.025, 672 546.198 C 672 536.355, 667.325 531.606, 653 526.896 C 639.994 522.620, 637.248 520.143, 639.938 515.116 C 642.210 510.871, 652.562 510.774, 659.607 514.931 L 662.875 516.859 666.532 512.396 C 670.836 507.143, 670.532 506.386, 662.543 502.477 C 655.311 498.939, 645.375 498.264, 638.216 500.826 M 146.047 501.171 C 136.857 503.809, 127.604 512.936, 124.306 522.616 C 122.153 528.935, 122.910 542.071, 125.740 547.500 C 129.396 554.513, 134.735 559.744, 141.771 563.208 C 147.721 566.137, 149.342 566.491, 156.479 566.420 C 171.128 566.275, 182.804 559.283, 188.701 547.126 C 191.026 542.332, 191.428 540.233, 191.420 532.930 C 191.413 525.618, 191.007 523.535, 188.655 518.728 C 185.198 511.661, 177.649 504.761, 170.414 502.054 C 164.407 499.806, 152.328 499.369, 146.047 501.171 M 307 532.454 L 307 565 314.014 565 L 321.028 565 320.764 532.750 L 320.500 500.500 313.750 500.204 L 307 499.909 307 532.454 M 420.346 505.750 C 420.666 508.913, 420.944 511.837, 420.964 512.250 C 420.984 512.663, 425.050 513, 430 513 L 439 513 439 539 L 439 565 447 565 L 455 565 455 539 L 455 513 464.500 513 L 474 513 474 506.500 L 474 500 446.882 500 L 419.764 500 420.346 505.750 M 498.706 500.627 C 498.318 501.015, 498 515.658, 498 533.167 L 498 565 506.014 565 L 514.028 565 513.764 532.750 L 513.500 500.500 506.456 500.210 C 502.582 500.051, 499.095 500.239, 498.706 500.627 M 59.667 501.667 C 59.300 502.033, 59 516.433, 59 533.667 L 59 565 81 565 L 103 565 103 559 L 103 553 88 553 L 73 553 73 528.200 C 73 510.244, 72.669 503.069, 71.800 502.200 C 70.542 500.942, 60.818 500.515, 59.667 501.667 M 148.500 514.606 C 137.804 520.442, 134.118 531.866, 139.483 542.554 C 143.609 550.772, 153.287 555.399, 161.599 553.125 C 178.496 548.504, 182.552 527.614, 168.694 516.587 C 165.450 514.007, 163.897 513.515, 158.194 513.264 C 153.428 513.055, 150.636 513.441, 148.500 514.606" stroke="none" fill="#ffffff" fill-rule="evenodd"/><path d="M 94.171 13.509 C 90.046 16.981, 88.907 20.689, 90.523 25.388 C 92.901 32.307, 89.197 31.933, 155.677 31.968 L 215.855 32 217.927 34.635 C 220.596 38.027, 220.562 42.015, 217.837 45.480 L 215.673 48.231 173.087 47.978 C 149.664 47.838, 129.949 47.786, 129.276 47.862 C 127.631 48.047, 125 53.297, 125 56.395 C 125 57.766, 126.086 60.151, 127.412 61.694 L 129.825 64.500 163.607 64.789 C 185.981 64.980, 197.830 65.444, 198.695 66.161 C 200.367 67.550, 200.380 71.440, 198.716 72.821 C 197.813 73.570, 179.609 73.637, 137.466 73.046 C 81.909 72.267, 77.280 72.331, 74.502 73.907 C 67.289 78.003, 67.012 89.213, 74.020 93.353 C 76.639 94.900, 81.548 94.981, 134.727 94.357 C 166.548 93.984, 193.790 93.981, 195.264 94.351 C 201.903 96.018, 204.323 104.028, 199.365 107.927 C 196.914 109.855, 195.433 110, 178.143 110 C 161.034 110, 159.732 110.124, 161.777 111.557 C 167.101 115.286, 162.255 116.897, 145.286 117.042 C 127.996 117.189, 124.755 116.172, 130.504 112.405 C 132.532 111.076, 134.577 110.877, 141.254 111.359 C 145.789 111.686, 151.300 111.566, 153.500 111.092 C 156.232 110.503, 150.593 110.194, 135.705 110.115 C 113.927 110, 113.907 110.002, 111.495 112.414 C 107.952 115.957, 107.327 119.618, 109.716 122.837 C 113.441 127.856, 114.289 127.969, 148.027 127.985 C 174.927 127.998, 179.881 128.228, 181.777 129.557 C 184.409 131.400, 184.708 135.544, 182.443 138.777 L 180.887 141 120.408 141 C 53.332 141, 56.240 140.713, 53.978 147.566 C 52.613 151.704, 53.385 154.591, 56.862 158.354 L 59.500 161.207 135.630 160.484 L 211.761 159.761 213.880 161.880 C 216.713 164.713, 216.663 169.422, 213.777 171.443 C 211.867 172.782, 206.500 173.002, 175.527 173.015 C 155.712 173.024, 139.024 173.361, 138.442 173.765 C 133.977 176.866, 132.737 184.125, 135.971 188.236 C 137.879 190.661, 138.456 190.765, 153.983 191.468 C 168.766 192.138, 170.140 192.362, 171.512 194.320 C 173.640 197.359, 173.349 201.651, 170.844 204.156 C 168.689 206.311, 168.669 206.311, 132.094 205.640 C 96.999 204.996, 95.371 205.048, 92.353 206.907 C 87.754 209.739, 86.283 214.872, 88.670 219.748 C 91.909 226.362, 90.090 226.171, 146.500 225.819 L 197.500 225.500 197.500 230.500 L 197.500 235.500 174.808 235.769 L 152.117 236.037 151.426 240.648 C 150.589 246.224, 151.452 261.932, 152.645 262.845 C 153.115 263.205, 165.762 263.367, 180.750 263.204 L 208 262.908 208.015 258.704 C 208.059 246.201, 214.888 230.902, 224.880 220.920 C 240.264 205.552, 262.191 201.035, 282.809 208.987 C 300.638 215.862, 314.621 233.973, 317.307 253.666 L 318.443 262 402.722 262 L 487 262 487 146 L 487 30 492.375 30 C 495.331 30, 499.156 29.719, 500.875 29.375 L 504 28.750 504 19.875 L 504 11 300.577 11 L 97.153 11 94.171 13.509 M 499 167.437 L 499 262 511.893 262 C 525.876 262, 526 261.949, 526 256.148 C 526 251.888, 529.891 238.978, 532.822 233.513 C 536.623 226.425, 548.266 215.066, 555.730 211.162 C 566.296 205.636, 580.488 203.667, 592.201 206.101 C 607.399 209.260, 622.697 221.290, 629.498 235.429 C 632.981 242.671, 635.948 253.604, 635.983 259.329 L 636 262.159 648.918 261.829 C 661.423 261.511, 661.972 261.404, 666.065 258.500 C 674.324 252.640, 674.266 252.972, 673.568 215.862 C 672.853 177.831, 672.591 176.451, 664.574 168.461 C 659.816 163.720, 658.766 163.197, 647.701 160.048 C 641.212 158.201, 633.967 155.462, 631.601 153.962 C 627.199 151.170, 621.509 143.874, 592.387 103.677 C 577.311 82.867, 573.927 79.130, 567.127 75.780 C 562.652 73.575, 561.454 73.490, 530.750 73.187 L 499 72.873 499 167.437 M 523 123.500 L 523 147 559.032 147 L 595.063 147 590.839 141.250 C 580.297 126.899, 562.411 103.411, 560.790 101.790 C 559.203 100.203, 556.963 100, 541 100 L 523 100 523 123.500 M 256 221.098 C 249.252 222.416, 239.607 227.551, 234.740 232.418 C 229.585 237.573, 224.716 246.464, 222.992 253.874 C 219.182 270.241, 228.828 289.362, 244.877 297.259 C 251.097 300.319, 252.080 300.500, 262.482 300.500 C 272.785 300.500, 273.935 300.294, 280.201 297.326 C 304.446 285.840, 310.680 253.810, 292.495 234.168 C 286.231 227.402, 279.789 223.633, 270.913 221.541 C 263.803 219.865, 262.509 219.827, 256 221.098 M 571 221.603 C 551.630 226.786, 538.653 245.339, 540.335 265.444 C 541.463 278.923, 550.221 291.266, 563 297.387 C 569 300.261, 570.307 300.500, 580 300.500 C 589.728 300.500, 590.994 300.266, 597.223 297.315 C 606.595 292.875, 612.939 286.632, 617.101 277.753 C 620.225 271.087, 620.499 269.731, 620.485 261 C 620.471 252.320, 620.178 250.875, 617.091 244.259 C 611.422 232.110, 600.395 223.468, 587.526 221.089 C 580.079 219.713, 577.801 219.784, 571 221.603 M 408.467 406 C 408.467 436.525, 408.594 449.012, 408.749 433.750 C 408.905 418.487, 408.905 393.512, 408.749 378.250 C 408.594 362.987, 408.467 375.475, 408.467 406 M 445.250 372.716 C 446.762 372.945, 449.238 372.945, 450.750 372.716 C 452.262 372.487, 451.025 372.300, 448 372.300 C 444.975 372.300, 443.738 372.487, 445.250 372.716 M 306.448 532.500 C 306.447 550.650, 306.582 558.216, 306.748 549.314 C 306.913 540.411, 306.914 525.561, 306.749 516.314 C 306.583 507.066, 306.448 514.350, 306.448 532.500" stroke="none" fill="#f1aa54" fill-rule="evenodd"/></svg>