<svg xmlns="http://www.w3.org/2000/svg" width="740" height="586" viewBox="0 0 740 586" version="1.1"><path d="M 94.171 13.509 C 90.046 16.981, 88.907 20.689, 90.523 25.388 C 92.901 32.307, 89.205 31.933, 155.595 31.968 C 213.074 31.999, 215.764 32.082, 217.388 33.876 C 220.275 37.066, 220.507 42.086, 217.920 45.375 L 215.659 48.249 173.079 47.971 C 149.661 47.818, 129.949 47.762, 129.276 47.847 C 127.596 48.057, 125 53.327, 125 56.527 C 125 58.097, 126.176 60.330, 127.923 62.077 L 130.846 65 164.223 65 C 188.850 65, 197.915 65.315, 198.800 66.200 C 200.379 67.779, 200.333 71.479, 198.718 72.819 C 197.818 73.566, 179.543 73.637, 137.478 73.058 C 104.501 72.604, 76.616 72.578, 75.510 73.001 C 72.193 74.271, 69.863 77.603, 69.286 81.904 C 68.596 87.051, 70.280 91.143, 73.989 93.335 C 76.682 94.925, 81.232 95.001, 136.197 94.371 L 195.500 93.691 198.750 96.434 C 203.001 100.023, 203.260 104.863, 199.365 107.927 C 196.914 109.855, 195.433 110, 178.143 110 C 161.034 110, 159.732 110.124, 161.777 111.557 C 167.101 115.286, 162.255 116.897, 145.286 117.042 C 127.996 117.189, 124.755 116.172, 130.504 112.405 C 132.532 111.076, 134.577 110.877, 141.254 111.359 C 145.789 111.686, 151.300 111.562, 153.500 111.082 C 156.141 110.506, 149.870 110.259, 135.039 110.355 L 112.578 110.500 110.289 113.898 C 107.283 118.360, 107.401 120.298, 110.916 124.234 L 113.833 127.500 147.498 128 C 179.357 128.473, 181.240 128.604, 182.582 130.441 C 184.431 132.972, 184.380 136.012, 182.443 138.777 L 180.887 141 120.378 141 C 78.945 141, 59.232 141.341, 57.850 142.080 C 55.170 143.515, 52.739 149.533, 53.478 152.902 C 53.804 154.384, 55.253 156.871, 56.698 158.430 L 59.325 161.263 135.553 160.522 L 211.781 159.781 213.891 161.891 C 216.714 164.714, 216.658 169.426, 213.777 171.443 C 211.867 172.782, 206.500 173.002, 175.527 173.015 C 155.712 173.024, 139.024 173.361, 138.442 173.765 C 133.801 176.988, 132.689 184.420, 136.250 188.409 C 138.417 190.836, 139.081 190.954, 154.296 191.611 C 168.732 192.234, 170.216 192.471, 171.546 194.369 C 173.640 197.359, 173.335 201.665, 170.854 204.146 C 168.710 206.290, 168.661 206.291, 132.444 205.574 C 99.902 204.929, 95.856 205.023, 93.012 206.494 C 86.360 209.934, 85.732 219.237, 91.822 224.112 C 94.496 226.252, 94.576 226.255, 146 225.878 L 197.500 225.500 197.500 230.500 L 197.500 235.500 174.871 235.768 L 152.243 236.037 151.621 239.143 C 150.813 243.184, 150.999 257.785, 151.900 261 C 152.457 262.989, 153.203 263.474, 155.550 263.372 C 157.172 263.301, 169.637 263.189, 183.250 263.122 L 208 263 208.015 258.750 C 208.058 246.241, 214.696 231.339, 224.783 221.105 C 239.763 205.904, 262.449 200.935, 281.751 208.627 C 290.607 212.156, 294.358 214.623, 301 221.285 C 310.614 230.928, 316.286 242.571, 317.595 255.353 L 318.276 262 402.638 262 L 487 262 487 146 L 487 30 492.375 30 C 495.331 30, 499.156 29.719, 500.875 29.375 L 504 28.750 504 19.875 L 504 11 300.577 11 L 97.153 11 94.171 13.509 M 499 167.529 L 499 262.058 512.250 261.779 L 525.500 261.500 526.100 255.925 C 529.415 225.095, 555.550 202.806, 585.420 205.335 C 600.673 206.626, 613.819 213.781, 623.442 226.029 C 629.578 233.840, 633.725 243.710, 635.173 253.951 L 636.312 262 647.906 261.978 C 661.489 261.952, 666.046 260.436, 670.616 254.423 L 673.500 250.628 673.298 217.218 C 673.062 178.022, 672.821 176.676, 664.597 168.492 C 659.839 163.757, 658.734 163.201, 648 160.137 C 629.050 154.728, 630.296 155.843, 606.521 123 C 574.505 78.773, 572.351 76.406, 562 74.066 C 559.521 73.506, 544.361 73.038, 528.250 73.024 L 499 73 499 167.529 M 523 123.500 L 523 147 559.015 147 L 595.030 147 586.343 135.250 C 570.412 113.703, 561.809 102.512, 560.206 101.250 C 559.070 100.356, 553.542 100, 540.809 100 L 523 100 523 123.500 M 254.265 221.542 C 238.469 225.796, 227.344 237.088, 223.007 253.269 C 218.724 269.254, 228.686 289.292, 244.877 297.259 C 251.100 300.320, 252.075 300.500, 262.482 300.495 C 272.384 300.491, 274.091 300.214, 279.336 297.761 C 291.192 292.216, 298.424 283.870, 301.433 272.258 C 305.499 256.568, 301.582 242.430, 290.226 231.808 C 284.173 226.146, 278.379 223.081, 270.500 221.372 C 263.027 219.751, 260.829 219.774, 254.265 221.542 M 571.305 221.429 C 546.929 227.339, 533.010 256.327, 543.914 278.477 C 548.003 286.783, 554.807 293.537, 562.997 297.418 C 568.977 300.252, 570.345 300.500, 580 300.500 C 589.728 300.500, 590.994 300.266, 597.223 297.315 C 606.595 292.875, 612.939 286.632, 617.101 277.753 C 620.219 271.100, 620.500 269.715, 620.500 261 C 620.500 252.331, 620.211 250.888, 617.197 244.500 C 611.452 232.324, 600.907 223.823, 588.201 221.125 C 581.676 219.740, 578.002 219.806, 571.305 221.429 M 171.280 349.736 C 173.909 349.943, 177.959 349.940, 180.280 349.731 C 182.601 349.521, 180.450 349.352, 175.500 349.355 C 170.550 349.358, 168.651 349.530, 171.280 349.736 M 441.768 372.725 C 443.565 372.947, 446.265 372.943, 447.768 372.715 C 449.271 372.486, 447.800 372.304, 444.500 372.310 C 441.200 372.315, 439.971 372.502, 441.768 372.725 M 306.448 532.500 C 306.447 550.650, 306.582 558.216, 306.748 549.314 C 306.913 540.411, 306.914 525.561, 306.749 516.314 C 306.583 507.066, 306.448 514.350, 306.448 532.500" stroke="none" fill="#eb8100" fill-rule="evenodd"/><path d="M 489 9.115 C 483.775 9.562, 393.907 9.850, 289.293 9.754 C 184.679 9.659, 98.766 9.900, 98.376 10.290 C 97.986 10.681, 189.092 11, 300.833 11 L 504 11 504 19.667 C 504 30.150, 505.284 29.999, 505.589 19.480 C 505.797 12.313, 505.688 11.914, 502.999 9.999 C 501.455 8.900, 499.811 8.068, 499.346 8.151 C 498.881 8.234, 494.225 8.667, 489 9.115 M 91.636 13.636 C 90.093 15.179, 89.016 17.357, 89.039 18.886 C 89.078 21.482, 89.088 21.479, 90.421 18.415 C 91.160 16.719, 93.003 14.356, 94.517 13.165 C 96.253 11.799, 96.716 11, 95.771 11 C 94.947 11, 93.086 12.186, 91.636 13.636 M 88.652 23.464 C 87.829 25.610, 90.425 30.622, 93.100 32.054 C 94.554 32.832, 112.526 33.187, 152.823 33.234 C 218.308 33.310, 216.231 33.070, 216.798 40.625 C 217.068 44.237, 216.800 44.739, 213.798 46.232 C 210.511 47.867, 210.509 47.872, 213.177 47.936 C 217.068 48.029, 220.351 43.549, 219.633 39.126 C 219.332 37.270, 218.322 34.908, 217.388 33.876 C 215.764 32.082, 213.074 31.999, 155.595 31.968 C 89.289 31.933, 92.897 32.293, 90.552 25.473 C 89.610 22.733, 89.128 22.224, 88.652 23.464 M 493.750 29.742 L 487 30.091 487 146.046 L 487 262 402.300 262 C 343.637 262, 317.920 262.320, 318.640 263.040 C 319.344 263.744, 346.999 264.090, 404.090 264.109 L 488.500 264.138 489.745 261.694 C 490.708 259.802, 490.771 255.438, 490.024 242.375 C 488.594 217.387, 488.515 38.257, 489.932 34.614 C 491.006 31.852, 491.264 31.753, 495.926 32.305 C 499.942 32.780, 501.106 32.541, 502.554 30.941 C 504.234 29.084, 504.228 29.008, 502.405 29.196 C 501.357 29.304, 497.462 29.549, 493.750 29.742 M 129 46.781 C 125.549 47.915, 123.640 51.267, 123.570 56.317 C 123.526 59.493, 123.958 61.485, 124.750 61.749 C 125.438 61.979, 126 62.788, 126 63.548 C 126 66.111, 130.004 67.099, 142.278 67.561 C 149 67.815, 156.525 68.321, 159 68.686 L 163.500 69.351 158 70.179 C 154.975 70.634, 135.400 70.914, 114.500 70.801 C 88.151 70.658, 75.887 70.936, 74.500 71.706 C 69.554 74.453, 67.498 77.952, 67.552 83.535 C 67.589 87.399, 68.150 89.508, 69.550 91.055 C 73.398 95.307, 76.359 96.004, 93.954 96.800 C 108.730 97.469, 111.299 97.833, 113.660 99.595 C 115.152 100.710, 116.564 102.192, 116.796 102.889 C 117.029 103.586, 114.909 106.383, 112.087 109.103 C 107.914 113.125, 106.844 114.855, 106.364 118.359 C 105.810 122.405, 105.998 122.853, 109.446 125.695 C 114.015 129.461, 118.966 130.027, 154.893 130.890 C 177.325 131.429, 180.412 131.699, 181.360 133.205 C 182.742 135.400, 178.957 139.706, 175.127 140.296 C 173.401 140.562, 173.938 140.752, 176.693 140.850 C 179.995 140.968, 181.218 140.528, 182.443 138.777 C 184.380 136.012, 184.431 132.972, 182.582 130.441 C 181.240 128.604, 179.357 128.473, 147.498 128 L 113.833 127.500 110.916 124.234 C 107.401 120.298, 107.283 118.360, 110.289 113.898 L 112.578 110.500 155.185 110 C 195.289 109.529, 197.916 109.388, 199.896 107.595 C 203.198 104.606, 202.701 99.770, 198.750 96.434 L 195.500 93.691 136.197 94.371 C 81.232 95.001, 76.682 94.925, 73.989 93.335 C 66.785 89.079, 67.766 75.965, 75.510 73.001 C 76.616 72.578, 104.501 72.604, 137.478 73.058 C 179.543 73.637, 197.818 73.566, 198.718 72.819 C 200.333 71.479, 200.379 67.779, 198.800 66.200 C 197.915 65.315, 188.850 65, 164.223 65 L 130.846 65 127.923 62.077 C 126.176 60.330, 125 58.097, 125 56.527 C 125 53.410, 127.434 48.358, 129.229 47.750 C 129.928 47.514, 148.050 47.439, 169.500 47.585 C 194.031 47.752, 205.717 47.543, 201 47.021 C 193.075 46.145, 131.560 45.940, 129 46.781 M 187.199 67.997 C 182.676 69.054, 182.252 69.765, 185.426 70.972 C 188.453 72.123, 192.376 72.274, 195.750 71.370 C 199.722 70.305, 198.268 68.819, 192 67.534 C 191.175 67.365, 189.015 67.573, 187.199 67.997 M 501.250 70.713 C 500.012 70.947, 499 71.558, 499 72.070 C 499 72.622, 510.892 73.010, 528.250 73.024 C 544.361 73.038, 559.521 73.506, 562 74.066 C 572.351 76.406, 574.505 78.773, 606.521 123 C 630.296 155.843, 629.050 154.728, 648 160.137 C 658.722 163.198, 659.843 163.761, 664.574 168.468 C 672.585 176.440, 672.861 177.884, 673.652 215.844 C 674.025 233.755, 674.674 247.530, 675.095 246.455 C 676.231 243.551, 676.151 221.004, 674.931 200 C 673.808 180.678, 672.603 175.052, 668.393 169.477 C 665.638 165.831, 655.880 160.765, 647 158.371 C 636.599 155.568, 632.470 153.453, 627.584 148.427 C 625.063 145.832, 623 143.433, 623 143.095 C 623 142.756, 621.932 141.327, 620.626 139.919 C 619.320 138.511, 617.057 135.590, 615.597 133.429 C 612.286 128.529, 608.315 122.971, 606.716 121 C 604.230 117.935, 596.284 106.898, 589.333 96.855 C 579.892 83.214, 572.912 76.365, 565.924 73.886 C 561.470 72.306, 556.836 71.877, 540 71.488 C 528.725 71.227, 515.900 70.850, 511.500 70.650 C 507.100 70.450, 502.488 70.478, 501.250 70.713 M 497.794 75.250 C 497.563 75.938, 497.686 77.850, 498.068 79.500 C 498.706 82.253, 498.773 82.150, 498.882 78.250 C 499 74.011, 498.590 72.881, 497.794 75.250 M 187.696 100.235 C 181.845 102.254, 187.126 107.191, 194.159 106.278 C 197.750 105.811, 199.588 103.490, 198.127 101.265 C 197.156 99.785, 190.816 99.159, 187.696 100.235 M 523 123.500 L 523 147 559.015 147 L 595.030 147 586.343 135.250 C 570.412 113.703, 561.809 102.512, 560.206 101.250 C 559.070 100.356, 553.542 100, 540.809 100 L 523 100 523 123.500 M 524.656 104 C 524.100 106.822, 524.857 142.819, 525.513 144.750 C 525.840 145.714, 533.030 146, 556.933 146 C 587.319 146, 587.952 145.959, 589.045 143.917 C 589.938 142.246, 589.797 141.404, 588.330 139.667 C 587.323 138.475, 586.097 137.208, 585.605 136.851 C 585.113 136.495, 582.638 133.274, 580.105 129.693 C 570.744 116.462, 560.953 104.315, 558.759 103.211 C 557.446 102.551, 549.933 101.955, 540.824 101.788 L 525.148 101.500 524.656 104 M 55.073 143.635 C 53.933 145.084, 53.018 146.997, 53.039 147.885 C 53.061 148.773, 53.695 148.083, 54.449 146.350 C 55.202 144.618, 56.647 142.719, 57.660 142.131 C 58.672 141.542, 58.970 141.047, 58.323 141.030 C 57.675 141.014, 56.212 142.186, 55.073 143.635 M 52.081 152.167 C 51.929 155.284, 55.739 162.492, 58.664 164.624 C 61.200 166.472, 63.884 166.895, 79.286 167.874 C 89.024 168.493, 104.028 169, 112.628 169 C 126.643 169, 128.608 168.788, 131.579 166.951 C 134.193 165.336, 136.229 164.965, 141.197 165.201 C 144.664 165.365, 147.450 165.950, 147.389 166.500 C 147.327 167.050, 145.639 168.292, 143.636 169.259 C 131.729 175.011, 128.461 184.749, 136.354 190.959 C 138.373 192.547, 144.692 193.650, 158.215 194.775 C 167.426 195.541, 170.649 197.145, 169.419 200.350 C 168.077 203.849, 164.801 204.491, 145.500 205.042 L 126.500 205.585 147.750 205.792 C 167.817 205.988, 169.111 205.889, 171 204 C 173.351 201.649, 173.597 197.298, 171.546 194.369 C 170.216 192.471, 168.732 192.234, 154.296 191.611 C 139.081 190.954, 138.417 190.836, 136.250 188.409 C 132.689 184.420, 133.801 176.988, 138.442 173.765 C 139.024 173.361, 155.712 173.024, 175.527 173.015 C 206.500 173.002, 211.867 172.782, 213.777 171.443 C 216.658 169.426, 216.714 164.714, 213.891 161.891 L 211.781 159.781 135.499 160.523 L 59.217 161.264 56.891 158.590 C 55.612 157.119, 54.025 154.697, 53.364 153.207 C 52.599 151.484, 52.133 151.106, 52.081 152.167 M 205 165.658 C 204.175 165.933, 202.825 166.380, 202 166.651 C 199.702 167.405, 203.698 170, 207.156 170 C 209.845 170, 212.678 167.012, 211.298 165.631 C 210.574 164.907, 207.208 164.922, 205 165.658 M 89.687 207.805 C 88.209 209.347, 87.018 211.485, 87.039 212.555 C 87.067 213.925, 87.486 213.562, 88.460 211.323 C 89.220 209.576, 91.115 207.457, 92.671 206.613 C 94.309 205.726, 94.842 205.063, 93.937 205.040 C 93.077 205.018, 91.165 206.262, 89.687 207.805 M 250.272 206.370 C 230.520 211.410, 214.249 228.123, 209.504 248.246 C 208.693 251.686, 208.023 256.413, 208.015 258.750 L 208 263 183.250 263.122 C 169.637 263.189, 157.172 263.301, 155.550 263.372 C 153.203 263.474, 152.457 262.989, 151.900 261 C 150.999 257.785, 150.813 243.184, 151.621 239.143 L 152.243 236.037 174.871 235.768 L 197.500 235.500 197.500 230.500 L 197.500 225.500 146.308 225.903 C 89.394 226.351, 91.460 226.573, 88.459 219.675 C 87.334 217.089, 87.071 216.902, 87.039 218.668 C 86.927 224.868, 91.499 227.628, 104.089 228.960 C 126.497 231.330, 144.697 233.045, 147.212 233.023 L 149.924 233 149.876 247.405 C 149.845 256.728, 150.248 262.595, 151.019 264.036 C 152.134 266.120, 152.606 266.210, 158.356 265.443 C 161.735 264.992, 174.007 264.584, 185.626 264.537 C 210.003 264.437, 210 264.438, 210 256.781 C 210 243.221, 220.597 225.321, 233.885 216.438 C 235.873 215.109, 238.400 213.369, 239.500 212.571 C 242.565 210.348, 256.330 206.996, 262.232 207.036 C 268.940 207.081, 280.470 209.884, 288 213.299 C 292.918 215.529, 303.351 225.528, 307.469 231.957 C 309.775 235.555, 312.461 241.200, 313.439 244.500 C 314.417 247.800, 315.830 252.300, 316.580 254.500 L 317.943 258.500 317.355 253.500 C 316.010 242.072, 310.081 230.393, 301 221.285 C 294.329 214.593, 290.611 212.157, 281.569 208.554 C 273.189 205.214, 258.749 204.207, 250.272 206.370 M 569.500 206.104 C 561.879 207.648, 550.793 213.422, 544.624 219.061 C 534.122 228.659, 527.646 241.546, 526.100 255.925 L 525.500 261.500 512.250 261.779 L 499 262.058 498.827 237.779 C 498.645 212.207, 498.722 211.867, 496.505 248 C 495.443 265.320, 495.104 264.982, 512.683 264.116 C 519.934 263.759, 526.089 263.245, 526.361 262.972 C 526.633 262.700, 527.582 258.208, 528.470 252.989 C 529.358 247.770, 530.741 242.082, 531.542 240.349 C 532.344 238.616, 533 236.703, 533 236.099 C 533 235.494, 533.420 235, 533.933 235 C 534.446 235, 535.154 234.089, 535.508 232.976 C 537.111 227.926, 553.354 213.121, 559 211.564 C 560.375 211.185, 562.400 210.490, 563.500 210.021 C 573.246 205.861, 592.318 206.154, 600.827 210.593 C 602.297 211.360, 604.025 211.990, 604.667 211.994 C 605.308 211.997, 605.983 212.366, 606.167 212.813 C 606.350 213.260, 609.199 215.606, 612.497 218.027 C 619.786 223.376, 624.460 228.337, 626.605 233 C 627.490 234.925, 629.247 238.750, 630.508 241.500 C 631.769 244.250, 633.389 250.010, 634.109 254.300 C 634.828 258.590, 636.062 262.636, 636.851 263.291 C 638.563 264.713, 650.802 264.468, 659.259 262.843 C 666.414 261.468, 674.004 255.453, 673.994 251.165 L 673.988 248.500 672.425 251.498 C 668.049 259.889, 663.230 261.949, 647.906 261.978 L 636.312 262 635.173 253.951 C 632.608 235.812, 621.433 219.396, 606.033 211.143 C 596.734 206.159, 580.366 203.902, 569.500 206.104 M 255 219.928 C 247.041 221.918, 237.383 226.835, 233.928 230.656 C 226.880 238.449, 222.178 248.477, 220.325 259.665 C 219.753 263.119, 222.186 275.231, 224.226 279.088 C 226.306 283.019, 231.682 290.385, 233.661 292.014 C 244.321 300.793, 247.915 302.149, 261 302.336 C 273.239 302.511, 278.281 301.309, 286 296.380 C 298.047 288.686, 305 275.712, 305 260.927 C 305 253.215, 301.806 243.176, 297.834 238.405 C 288.203 226.834, 287.088 225.980, 276 221.666 C 267.454 218.341, 262.866 217.961, 255 219.928 M 568.250 221.030 C 562.945 223.387, 562.718 224.208, 567.861 222.436 C 574.302 220.217, 581.293 219.712, 587.580 221.012 C 600.833 223.752, 611.339 232.083, 617.197 244.500 C 620.211 250.888, 620.500 252.331, 620.500 261 C 620.500 269.715, 620.219 271.100, 617.101 277.753 C 612.939 286.632, 606.595 292.875, 597.223 297.315 C 590.994 300.266, 589.728 300.500, 580 300.500 C 570.345 300.500, 568.977 300.252, 562.997 297.418 C 554.735 293.503, 547.996 286.770, 543.797 278.235 C 540.743 272.029, 540.505 270.833, 540.570 262.018 C 540.623 254.723, 541.147 251.215, 542.813 247 C 545.759 239.544, 551.458 232.302, 557.950 227.767 C 563.909 223.604, 564.104 222.635, 558.230 226.375 C 551.997 230.344, 545.981 237.152, 542.656 244 C 539.630 250.233, 539.500 251.013, 539.500 263 L 539.500 275.500 543.280 281.317 C 548.594 289.493, 554.704 295.088, 562.526 298.938 C 568.769 302.011, 569.981 302.253, 579.376 302.293 C 596.032 302.364, 605.562 297.730, 615.058 284.944 C 618.949 279.705, 620.836 274.993, 622.178 267.169 C 623.787 257.784, 621.753 248.727, 615.984 239.592 C 612.060 233.379, 604.084 225.709, 599 223.259 C 589.336 218.602, 575.905 217.628, 568.250 221.030 M 254.265 221.542 C 238.469 225.796, 227.344 237.088, 223.007 253.269 C 218.724 269.254, 228.686 289.292, 244.877 297.259 C 251.100 300.320, 252.075 300.500, 262.482 300.495 C 272.384 300.491, 274.091 300.214, 279.336 297.761 C 291.192 292.216, 298.424 283.870, 301.433 272.258 C 305.499 256.568, 301.582 242.430, 290.226 231.808 C 284.173 226.146, 278.379 223.081, 270.500 221.372 C 263.027 219.751, 260.829 219.774, 254.265 221.542 M 173.739 228.942 C 169.051 229.873, 168.224 230.662, 170.060 232.454 C 171.071 233.442, 174.690 233.948, 182.224 234.156 C 193.415 234.465, 195.498 233.837, 194.833 230.356 C 194.523 228.737, 193.396 228.481, 185.989 228.347 C 181.320 228.263, 175.808 228.531, 173.739 228.942 M 151.459 231.067 C 151.096 231.653, 151.005 232.339, 151.257 232.590 C 151.954 233.288, 155 231.907, 155 230.893 C 155 229.641, 152.257 229.776, 151.459 231.067 M 55.500 346.685 C 53.850 346.897, 51.600 347.466, 50.500 347.950 C 49.400 348.434, 46.025 349.652, 43 350.656 C 27.753 355.718, 17.410 365.203, 9.122 381.721 C 7.405 385.143, 6.012 389.418, 6.026 391.221 C 6.048 393.978, 6.408 393.456, 8.287 387.942 C 16.608 363.535, 39.146 347.743, 65.500 347.853 C 79.657 347.912, 92.165 352.802, 102.922 362.481 C 107.743 366.819, 108.144 367.025, 105.877 364 C 100.800 357.225, 87.997 350.142, 75 346.916 C 71.542 346.058, 61.322 345.937, 55.500 346.685 M 674 346.615 C 667.252 347.879, 657.823 353.060, 652.386 358.490 C 645.015 365.852, 643 371.048, 643 382.691 C 643 393.806, 645.322 400.114, 651.652 406.200 C 655.296 409.703, 667.866 417, 670.257 417 C 670.868 417, 673.271 417.921, 675.595 419.046 C 677.920 420.172, 682.059 421.446, 684.793 421.878 C 687.527 422.310, 691.955 423.808, 694.632 425.206 C 698.532 427.242, 699.558 428.320, 699.794 430.624 C 700.175 434.351, 698.495 436.331, 693.230 438.357 C 685.391 441.373, 668.995 439.691, 663.921 435.351 C 663.053 434.608, 661.815 434, 661.171 434 C 660.527 434, 660 433.621, 660 433.157 C 660 431.961, 653.213 428.453, 652.424 429.243 C 650.528 431.138, 665.571 439.973, 674 441.915 C 680.726 443.464, 690.421 443.215, 695.018 441.376 C 701.663 438.717, 703.964 431.766, 699.905 426.607 C 696.988 422.898, 692.309 420.747, 679 416.998 C 652.977 409.667, 644.032 401.177, 644.010 383.788 C 643.981 361.370, 660.558 347.458, 687 347.707 C 700.008 347.829, 712.636 351.821, 721.816 358.713 C 724.967 361.079, 727.596 361.196, 725.268 358.868 C 722.872 356.472, 707.624 349, 705.130 349 C 704.179 349, 702.882 348.482, 702.248 347.848 C 701.073 346.673, 678.863 345.703, 674 346.615 M 169.379 348.121 C 167.702 348.780, 170.803 349.010, 188.465 349.536 C 192.421 349.654, 192.436 349.669, 195.346 356.863 C 196.950 360.828, 198.460 363.873, 198.703 363.631 C 199.438 362.895, 196.177 354.244, 193.765 350.531 L 191.500 347.046 181.379 347.215 C 175.813 347.307, 170.413 347.715, 169.379 348.121 M 259.448 348.464 C 257.696 349.788, 258.663 349.940, 269.085 349.968 L 280.670 350 292.548 366.750 C 299.082 375.962, 307.297 387.445, 310.806 392.267 L 317.185 401.034 318.948 398.767 C 322.094 394.720, 349.628 355.589, 351.503 352.500 L 353.324 349.500 350.912 352.022 C 349.585 353.409, 346.948 356.784, 345.051 359.522 C 343.155 362.260, 341.355 364.725, 341.051 365 C 340.748 365.275, 337.048 370.675, 332.828 377 C 328.608 383.325, 324.311 389.400, 323.277 390.500 C 322.244 391.600, 321.080 393.334, 320.691 394.354 C 320.246 395.520, 319.400 395.984, 318.410 395.604 C 317.544 395.272, 316.453 395, 315.983 395 C 315.514 395, 311.714 390.387, 307.539 384.750 C 303.363 379.113, 299.562 374.013, 299.091 373.418 C 298.621 372.823, 294.832 367.611, 290.672 361.836 C 286.512 356.061, 282.373 350.725, 281.474 349.978 C 280.480 349.154, 277.028 348.562, 272.670 348.469 C 268.726 348.385, 264.576 348.018, 263.448 347.654 C 262.236 347.262, 260.597 347.594, 259.448 348.464 M 408.695 348.351 C 408.176 349.705, 411.320 349.869, 435.804 349.767 L 463.500 349.652 439 348.927 C 425.525 348.528, 413.326 347.891, 411.891 347.511 C 410.009 347.013, 409.119 347.247, 408.695 348.351 M 536.750 347.729 C 533.393 348.530, 535.036 349.500, 539.750 349.500 L 544.500 349.500 545.069 386 C 545.436 409.570, 546.049 423.711, 546.797 425.918 C 551.140 438.720, 564.064 444.887, 578.277 440.940 C 583.332 439.536, 588.868 434.506, 591.417 429 C 593.389 424.740, 593.516 422.530, 593.807 387.526 C 593.977 367.190, 593.830 350.837, 593.481 351.186 C 593.132 351.535, 592.897 366.506, 592.959 384.454 C 593.054 411.949, 592.807 418.144, 591.392 423.794 C 589.182 432.617, 587.931 434.325, 581.417 437.409 C 571.537 442.087, 559.578 440.567, 553.298 433.834 C 548.026 428.182, 547.750 426.138, 546.916 386.619 C 546.488 366.335, 545.770 349.407, 545.319 349.001 C 544.208 348.002, 538.906 347.215, 536.750 347.729 M 595.307 348.421 C 595.532 349.097, 599.928 349.555, 607.083 349.648 L 618.500 349.795 618.766 387.148 C 618.936 411.064, 618.643 426.378, 617.951 429.719 C 614.463 446.574, 599.754 460.633, 582.109 463.979 C 574.448 465.432, 562.544 465.217, 555.231 463.492 C 541.494 460.254, 530.523 451.767, 524.494 439.714 C 520.681 432.093, 519.685 432.768, 523.153 440.623 C 525.816 446.655, 536.749 457.663, 543.188 460.797 C 548.779 463.518, 559.076 465.986, 567.892 466.720 C 578.468 467.599, 593.587 463.346, 601.781 457.185 C 611.270 450.052, 615.245 444.391, 618.942 432.743 C 620.655 427.345, 620.808 350.408, 619.109 348.708 C 617.516 347.116, 594.781 346.841, 595.307 348.421 M 362.500 349 L 354.500 349.633 365.250 349.817 C 371.872 349.930, 376 349.616, 376 349 C 376 347.960, 375.635 347.960, 362.500 349 M 164.448 351.250 C 164.070 352.488, 162.719 355.750, 161.446 358.500 C 159.185 363.381, 157.179 369.997, 158.262 369 C 159.518 367.843, 166.827 349, 166.019 349 C 165.533 349, 164.826 350.012, 164.448 351.250 M 519.124 350.500 C 518.521 352.707, 519.188 429.514, 519.820 430.646 C 520.194 431.316, 520.382 416.482, 520.238 397.682 C 519.975 363.290, 519.630 348.651, 519.124 350.500 M 378.160 399.083 C 378.281 435.781, 378.510 443.990, 379.106 433 C 379.854 419.208, 379.286 351.962, 378.414 351.083 C 378.186 350.854, 378.072 372.454, 378.160 399.083 M 407.193 352 C 406.492 355.626, 407.177 462.577, 407.906 463.306 C 408.855 464.255, 430.783 464.550, 431.707 463.626 C 432.052 463.282, 426.862 463, 420.175 463 L 408.017 463 407.750 406.750 C 407.603 375.813, 407.353 351.175, 407.193 352 M 475.335 353.377 C 483.162 356.689, 488.442 360.477, 492.028 365.352 C 493.662 367.575, 495 368.904, 495 368.305 C 495 367.706, 493.019 365.013, 490.598 362.321 C 485.849 357.038, 478.601 352.607, 473 351.561 C 470.339 351.064, 470.899 351.499, 475.335 353.377 M 255 407 C 254.725 437.525, 254.613 462.687, 254.750 462.917 C 255.823 464.705, 255.986 455.640, 255.759 406.908 L 255.500 351.500 255 407 M 719.500 370.777 C 713.756 378.468, 713.457 379, 714.883 379 C 716.005 379, 726 366.279, 726 364.851 C 726 362.847, 724.191 364.496, 719.500 370.777 M 199 365.315 C 199 365.488, 201.731 372.351, 205.069 380.565 C 208.407 388.779, 215.800 406.975, 221.497 421 C 227.194 435.025, 233.238 449.824, 234.928 453.888 C 236.618 457.951, 238 461.663, 238 462.138 C 238 462.612, 232.262 463.074, 225.250 463.165 L 212.500 463.329 224.500 464.004 C 231.157 464.378, 237.301 464.277, 238.298 463.778 C 240.514 462.669, 240.160 461.254, 234.924 450.271 C 232.766 445.744, 231 441.383, 231 440.580 C 231 439.776, 230.585 438.861, 230.077 438.548 C 229.569 438.234, 228.863 436.651, 228.507 435.030 C 228.150 433.409, 226.766 429.816, 225.430 427.046 C 224.093 424.276, 223 421.551, 223 420.991 C 223 420.431, 222.572 419.191, 222.048 418.236 C 220.649 415.682, 218.264 409.864, 217.442 407 C 216.674 404.324, 212.553 394.633, 210.962 391.764 C 210.433 390.809, 210 389.569, 210 389.009 C 210 388.449, 208.875 385.658, 207.500 382.808 C 206.125 379.958, 205 377.231, 205 376.749 C 205 375.460, 200.115 365, 199.514 365 C 199.231 365, 199 365.142, 199 365.315 M 99.553 375.551 C 95.821 379.704, 93.017 383.351, 93.322 383.655 C 94.113 384.447, 107 370.965, 107 369.346 C 107 368.606, 106.851 368, 106.669 368 C 106.486 368, 103.284 371.398, 99.553 375.551 M 153.991 376.519 C 152.287 380.239, 150.636 384.569, 150.322 386.141 C 150.007 387.714, 149.392 389, 148.954 389 C 148.517 389, 147.841 390.448, 147.452 392.217 C 147.064 393.987, 146.391 396.124, 145.957 396.967 C 145.523 397.810, 144.425 400.300, 143.516 402.500 C 141.416 407.586, 140.797 409.008, 137.063 417.320 C 135.379 421.071, 134 424.757, 134 425.511 C 134 426.265, 133.550 427.160, 133 427.500 C 132.450 427.840, 131.990 428.879, 131.978 429.809 C 131.965 430.739, 130.625 434.200, 129 437.500 C 127.375 440.800, 126.035 444.021, 126.022 444.658 C 126.010 445.294, 124.925 447.994, 123.611 450.658 C 119.826 458.329, 118.626 462.027, 119.606 462.995 C 120.098 463.481, 126.464 463.975, 133.753 464.092 C 144.763 464.269, 147.307 464.032, 148.792 462.688 C 150.499 461.143, 153.162 454.574, 154.425 448.792 C 154.751 447.303, 156.077 444.941, 157.373 443.542 L 159.729 441 179.615 441.032 C 195.410 441.057, 199.895 441.362, 201.418 442.515 C 203.251 443.902, 207.577 454.443, 208.697 460.250 C 208.988 461.762, 209.851 463, 210.613 463 C 211.376 463, 212 462.868, 212 462.706 C 212 462.544, 210.018 457.482, 207.596 451.456 L 203.192 440.500 179.712 440.232 L 156.232 439.964 151.964 451.482 L 147.696 463 134.348 463 C 127.006 463, 121 462.792, 121 462.538 C 121 462.099, 128.991 442.222, 149.004 392.880 C 153.957 380.668, 157.803 370.469, 157.549 370.216 C 157.296 369.963, 155.695 372.799, 153.991 376.519 M 677.259 371.969 C 672.026 374.345, 669.090 379.509, 670.573 383.729 C 672.264 388.535, 676.422 390.653, 696.855 397.117 C 719.899 404.407, 728.335 413.509, 728.304 431.050 C 728.282 442.978, 721.152 454.311, 710.131 459.933 C 696.293 466.993, 670.340 466.562, 654.831 459.016 C 650.653 456.983, 650.582 456.979, 652.816 458.918 C 655.036 460.844, 663.144 463.620, 673.264 465.918 C 679.065 467.235, 692.228 467.334, 696.429 466.092 C 709.071 462.355, 711.499 461.279, 716.752 457.082 C 721.109 453.602, 723.347 450.797, 726 445.495 C 729.181 439.138, 729.499 437.724, 729.491 430 C 729.484 422.730, 729.090 420.737, 726.772 416.228 C 725.281 413.329, 722.810 409.633, 721.280 408.016 C 718.246 404.806, 703.818 397, 700.921 397 C 699.929 397, 698.871 396.601, 698.570 396.113 C 698.269 395.626, 696.412 394.925, 694.443 394.555 C 690.072 393.735, 679.497 389.320, 675.750 386.750 C 673.713 385.353, 673.004 384.039, 673.015 381.682 C 673.034 377.697, 673.647 376.769, 678 374.130 C 680.597 372.555, 683.148 372.007, 687.889 372.004 C 693.290 372.001, 695.567 372.618, 702.619 376 C 712.575 380.774, 714.078 381.048, 708 376.979 C 702.380 373.217, 692.251 369.993, 686.145 370.022 C 683.590 370.034, 679.592 370.910, 677.259 371.969 M 56.239 373.036 C 40.656 378.122, 29.496 394.656, 31.310 409.971 C 33.234 426.212, 46.935 440.902, 61.803 442.663 C 70.914 443.742, 82.135 440, 90.016 433.254 L 94.260 429.621 100.591 436.561 C 104.073 440.377, 106.939 443.837, 106.961 444.250 C 107.030 445.568, 109 445.052, 109 443.716 C 109 443.009, 107.685 441.654, 106.077 440.705 C 104.470 439.755, 101.506 436.733, 99.492 433.989 C 97.478 431.245, 95.122 429, 94.257 429 C 93.392 429, 90.393 430.718, 87.592 432.819 C 78.040 439.981, 67.119 443.004, 59.242 440.664 C 51.952 438.499, 48.485 436.465, 43.097 431.189 C 34.413 422.686, 30.972 412.721, 32.900 401.655 C 34.903 390.148, 40.867 382.495, 52.359 376.685 C 57.736 373.966, 59.495 373.585, 66.500 373.617 C 74.956 373.656, 78.612 374.935, 85.944 380.422 C 90.358 383.726, 92.048 383.745, 88.960 380.457 C 85.142 376.393, 75.255 372.063, 68.500 371.496 C 64.081 371.125, 60.850 371.531, 56.239 373.036 M 434.068 375.403 C 434.135 378.467, 434.148 378.474, 435.284 376.107 C 436.431 373.719, 436.463 373.715, 448.850 374.343 C 462.287 375.024, 465.511 376.112, 469.351 381.264 C 470.484 382.784, 471.741 386.159, 472.144 388.764 L 472.877 393.500 472.619 387.908 C 472.091 376.432, 466.844 373.350, 446.750 372.712 L 434 372.307 434.068 375.403 M 498.500 388.845 C 498.500 402.621, 497.021 406.856, 489.341 415.067 C 480.284 424.750, 469.963 427.955, 447.750 427.983 L 434 428 434.150 431.750 C 434.264 434.610, 434.396 434.869, 434.707 432.842 C 435.113 430.200, 435.176 430.181, 445.808 429.608 C 460.422 428.821, 473.389 427.351, 475.634 426.228 C 476.660 425.714, 479.075 424.533, 481 423.602 C 482.925 422.671, 486.108 420.422, 488.072 418.604 C 491.951 415.015, 498 405.839, 498 403.544 C 498 402.760, 498.450 401.840, 499 401.500 C 500.148 400.790, 500.358 380.111, 499.235 378.345 C 498.831 377.711, 498.500 382.436, 498.500 388.845 M 178.743 379.607 C 178.108 380.634, 164 418.885, 164 419.579 C 164 419.811, 171.023 420, 179.607 420 C 194.074 420, 195.162 419.872, 194.506 418.250 C 193.798 416.501, 181.405 384.211, 180.047 380.579 C 179.652 379.522, 179.065 379.085, 178.743 379.607 M 176.494 389.779 C 175.449 392.926, 174.257 396.175, 173.845 397 C 170.633 403.437, 168.015 411.842, 168.006 415.750 C 168 417.960, 168.217 418, 180.107 418 C 191.246 418, 192.156 417.860, 191.492 416.250 C 191.095 415.288, 190.424 413.150, 190.003 411.500 C 188.702 406.411, 186.944 402.065, 181.823 391.279 L 178.394 384.058 176.494 389.779 M 281 393.178 C 281 396.639, 283.372 400, 285.815 400 C 286.451 400, 288.211 401.913, 289.726 404.250 C 291.242 406.587, 292.712 408.725, 292.993 409 C 294.057 410.040, 301.814 420.625, 303.618 423.500 C 304.653 425.149, 306.263 427.399, 307.196 428.500 C 308.128 429.600, 309.928 432.040, 311.196 433.923 C 312.463 435.806, 314.175 437.566, 315 437.836 C 316.159 438.214, 316.252 438.004, 315.411 436.913 C 314.812 436.136, 306.981 425.375, 298.007 413 C 289.034 400.625, 281.537 390.313, 281.346 390.083 C 281.156 389.854, 281 391.247, 281 393.178 M 335.703 414.124 C 326.464 426.837, 319.052 437.385, 319.232 437.565 C 319.976 438.309, 322.004 436.012, 328.557 427 C 332.356 421.775, 336.147 416.739, 336.982 415.809 C 337.817 414.878, 340.300 411.182, 342.500 407.594 C 344.700 404.006, 347.014 401.055, 347.643 401.036 C 348.272 401.016, 349.045 400.325, 349.362 399.500 C 351.133 394.883, 351.577 400.734, 351.312 425.250 C 351.151 440.238, 350.825 454.828, 350.589 457.674 C 350.270 461.519, 350.525 462.987, 351.580 463.392 C 352.791 463.857, 353 458.560, 353 427.469 C 353 407.411, 352.887 391.002, 352.750 391.005 C 352.613 391.007, 344.941 401.411, 335.703 414.124 M 434.131 399.250 L 434 405 446.250 404.994 C 452.988 404.991, 460.150 404.530, 462.168 403.970 C 465.695 402.990, 472 397.134, 472 394.837 C 472 394.235, 470.313 395.608, 468.250 397.887 C 463.846 402.754, 459.109 404, 445.004 404 L 436.281 404 435.272 398.750 L 434.263 393.500 434.131 399.250 M 4.607 396.582 C 3.750 398.816, 3.879 415.262, 4.765 416.655 C 5.169 417.289, 5.500 412.677, 5.500 406.405 C 5.500 400.132, 5.436 395, 5.357 395 C 5.278 395, 4.941 395.712, 4.607 396.582 M 281.030 431.218 L 281 462.937 269.250 463.270 L 257.500 463.603 269.986 463.551 L 282.472 463.500 282.646 433 C 282.741 416.225, 282.424 401.825, 281.940 401 C 281.421 400.114, 281.048 412.490, 281.030 431.218 M 6.348 422 C 7.349 429.943, 13.545 441.179, 21.177 448.891 C 33.972 461.821, 48.429 467.487, 66.687 466.727 C 79.866 466.178, 86.595 464.116, 96.405 457.623 C 103.875 452.679, 105.882 450.991, 107.239 448.510 C 107.837 447.416, 105.909 448.695, 102.953 451.352 C 92.712 460.560, 80.415 465, 65.155 465 C 53.528 465, 47.239 463.664, 38.235 459.282 C 24.629 452.661, 13.440 439.905, 8.215 425.058 C 6.599 420.466, 6.039 419.549, 6.348 422 M 647.750 431.080 C 646.788 431.641, 645.998 432.640, 645.995 433.300 C 645.993 433.960, 644.418 436.213, 642.495 438.306 C 640.573 440.399, 639 442.826, 639 443.699 C 639 444.573, 640.644 443.085, 642.653 440.394 C 644.663 437.702, 647.447 434.262, 648.840 432.750 C 651.411 429.960, 650.932 429.227, 647.750 431.080 M 638.006 449.199 C 638.013 450.480, 643.899 454.434, 644.663 453.671 C 644.878 453.455, 643.467 452.068, 641.527 450.589 C 639.350 448.928, 638.002 448.396, 638.006 449.199 M 378.100 456.750 L 378 463 366.750 463.209 L 355.500 463.419 365.500 463.752 C 379.050 464.203, 380.025 463.897, 379.900 459.231 C 379.845 457.179, 379.440 454.375, 379 453 C 378.405 451.142, 378.174 452.105, 378.100 456.750 M 434.300 457 C 434.300 460.025, 434.487 461.262, 434.716 459.750 C 434.945 458.238, 434.945 455.762, 434.716 454.250 C 434.487 452.738, 434.300 453.975, 434.300 457 M 306.614 497.823 C 305.726 498.001, 304.991 498.676, 304.980 499.323 C 304.451 530.764, 304.934 565.341, 305.911 565.945 C 306.559 566.346, 310.319 566.635, 314.266 566.587 C 323.521 566.475, 324.243 565.373, 323.492 552.500 C 323.204 547.550, 322.779 534.050, 322.549 522.500 C 322.318 510.950, 321.842 500.749, 321.489 499.832 C 321.006 498.573, 319.301 498.083, 314.538 497.832 C 311.068 497.649, 307.502 497.645, 306.614 497.823 M 642.656 498.125 C 633.941 499.450, 628.509 503.067, 625.143 509.788 C 622.089 515.886, 621.776 518.799, 623.577 524.355 C 626.263 532.637, 632.394 537.803, 641.500 539.456 C 643.700 539.855, 647.899 541.315, 650.831 542.701 C 655.713 545.009, 656.106 545.444, 655.510 547.861 C 654.512 551.905, 653.577 552.353, 646.276 552.282 C 641.837 552.238, 640.190 552.499, 641.500 553.038 C 644.552 554.292, 651.206 554.119, 653.983 552.714 C 655.349 552.023, 656.915 550.183, 657.463 548.625 C 658.334 546.149, 658.120 545.500, 655.770 543.479 C 654.291 542.206, 650.475 540.439, 647.290 539.551 C 629.562 534.607, 624 529.722, 624 519.097 C 624 511.531, 627.813 505.764, 635.500 501.704 C 641.417 498.580, 654.564 498.656, 661.679 501.856 C 664.527 503.137, 667.617 505.025, 668.546 506.051 C 670.145 507.817, 670.060 508.136, 666.949 512.064 C 664.354 515.341, 664.049 516.137, 665.498 515.856 C 666.507 515.660, 668.382 513.611, 669.666 511.301 L 672.001 507.103 668.751 504.661 C 661.143 498.948, 652.117 496.687, 642.656 498.125 M 148 498.695 C 139.514 500.131, 129.840 507.884, 124.402 517.609 C 121.250 523.244, 120.891 524.667, 120.845 531.689 C 120.727 549.997, 129.789 562.743, 145.611 566.522 C 158.611 569.627, 172.454 567.285, 179.439 560.800 C 180.505 559.810, 181.667 559, 182.022 559 C 183.323 559, 189.916 548.369, 191.324 544 C 193.845 536.183, 194.027 533.019, 192.383 525.664 C 189.821 514.209, 180.179 503.126, 169.715 499.608 C 165.241 498.104, 154.229 497.641, 148 498.695 M 239.500 498.740 C 234.465 499.479, 223.474 507.502, 220.262 512.783 C 215.248 521.027, 214.499 523.854, 214.511 534.504 C 214.520 543.684, 214.758 544.918, 217.394 549.504 C 222.390 558.191, 232.100 566.001, 237.904 565.999 C 239.901 565.999, 239.117 565.343, 234.500 563.155 C 228.025 560.087, 222.441 554.626, 218.793 547.795 C 216.841 544.139, 216.500 542.011, 216.500 533.500 C 216.500 521.532, 218.566 516.273, 226.191 508.826 C 238.143 497.154, 259.736 496.234, 272.159 506.868 L 276.143 510.278 271.863 514.639 C 267.590 518.993, 267.588 519, 270.292 519 C 273.840 519, 277 515.741, 277 512.082 C 277 508.484, 276.104 506, 274.806 506 C 274.268 506, 271.871 504.595, 269.479 502.878 C 267.088 501.161, 263.190 499.380, 260.816 498.921 C 256.368 498.062, 244.794 497.963, 239.500 498.740 M 364.073 498.669 C 360.840 499.357, 357.230 501.778, 353.393 505.832 C 349.716 509.715, 346.813 520.213, 348.852 522.252 C 349.484 522.884, 350 524.354, 350 525.520 C 350 530.214, 360.777 537.930, 369.664 539.597 C 371.511 539.943, 373.269 540.626, 373.570 541.113 C 373.871 541.601, 375.104 542.015, 376.309 542.033 C 377.514 542.052, 379.586 542.971, 380.913 544.076 L 383.327 546.085 381.310 548.793 C 379.498 551.226, 378.579 551.530, 372.230 551.792 C 365.590 552.067, 364.957 551.902, 361.701 549.042 C 357.221 545.109, 353.300 545.034, 349.679 548.813 C 346.522 552.109, 345.535 558.700, 348 560.025 C 352.605 562.498, 361.291 565.997, 362.777 565.976 C 363.725 565.963, 361.977 564.914, 358.892 563.646 C 353.148 561.283, 346.977 557.400, 347.030 556.182 C 347.046 555.807, 348.759 553.534, 350.836 551.132 L 354.612 546.764 360.305 549.977 C 364.285 552.223, 367.727 553.326, 371.749 553.644 C 378.562 554.183, 382.031 552.697, 383.463 548.625 C 384.337 546.140, 384.120 545.500, 381.694 543.414 C 380.174 542.106, 376.358 540.321, 373.215 539.448 C 359.091 535.523, 354.044 532.300, 351.469 525.559 C 347.333 514.729, 354.017 503.238, 366.401 499.887 C 372.483 498.241, 382.582 499.320, 389 502.301 C 397.958 506.463, 397.803 506.143, 393.662 511.908 C 391.650 514.709, 390.414 517, 390.916 517 C 391.419 517, 393.498 514.727, 395.538 511.949 L 399.246 506.898 395.943 503.949 C 394.126 502.327, 391.911 501, 391.020 501 C 390.129 501, 388.877 500.477, 388.238 499.838 C 387.025 498.625, 368.489 497.728, 364.073 498.669 M 419.365 499.475 C 418.059 500.430, 417.989 501.486, 418.904 506.438 C 419.497 509.648, 420.492 512.888, 421.114 513.637 C 422.412 515.201, 429.762 515.446, 432 514 C 433.059 513.316, 431.696 513.026, 427.367 513.015 C 420.469 512.998, 420.040 512.487, 420.014 504.250 L 420 500 447 500 L 474 500 474 506.500 L 474 513 464.500 513 L 455 513 455 539 L 455 565 447 565 L 439 565 439 539 C 439 516.556, 438.795 513, 437.500 513 C 435.900 513, 435.458 514.547, 436.818 515.387 C 437.268 515.665, 437.726 526.829, 437.836 540.196 C 438.003 560.443, 438.286 564.687, 439.533 565.621 C 440.375 566.252, 444.411 566.689, 448.765 566.621 L 456.500 566.500 456.768 541.581 C 456.950 524.644, 457.404 516.218, 458.185 515.277 C 459.080 514.199, 461.068 514.043, 467.144 514.573 L 474.953 515.254 475.976 512.562 C 477.493 508.573, 477.256 500.457, 475.581 499.067 C 473.650 497.464, 421.599 497.842, 419.365 499.475 M 497.516 499.627 C 495.849 501.294, 495.767 503.530, 495.990 541.500 C 496.094 559.369, 496.405 563.940, 497.644 565.844 C 498.815 567.643, 499.674 568.014, 501.335 567.438 C 502.526 567.025, 505.750 566.645, 508.500 566.593 C 511.250 566.542, 514.048 566.145, 514.719 565.710 C 515.653 565.105, 515.813 557.638, 515.405 533.710 C 515.113 516.545, 514.675 501.512, 514.432 500.306 C 514.024 498.281, 513.410 498.111, 506.511 498.111 C 501.161 498.111, 498.600 498.543, 497.516 499.627 M 579.363 499.469 C 587.076 501.095, 593.174 503.927, 597.250 507.777 C 599.305 509.718, 600 509.979, 600 508.810 C 600 506.772, 595.996 503.505, 591 501.466 C 590.175 501.130, 588.744 500.453, 587.820 499.962 C 586.895 499.471, 583.070 498.834, 579.320 498.547 L 572.500 498.023 579.363 499.469 M 63.500 500 C 62.018 500.637, 62.794 500.874, 66.500 500.914 C 70.078 500.954, 71.073 500.694, 70 500 C 68.203 498.839, 66.202 498.839, 63.500 500 M 148.024 500.546 C 132.488 504.884, 122.631 517.257, 122.570 532.500 C 122.515 546.326, 129.204 557.023, 141.772 563.207 C 147.784 566.165, 149.330 566.496, 156.982 566.462 C 167.940 566.413, 175.653 563.175, 182.795 555.623 C 189.207 548.843, 191.503 542.737, 191.490 532.500 C 191.477 523.041, 188.672 515.932, 182.459 509.612 C 174.238 501.251, 159.447 497.357, 148.024 500.546 M 561.419 500.369 C 553.925 503.120, 546.099 510.878, 541.784 519.835 C 538.907 525.807, 538.763 526.665, 539.276 534.835 C 539.652 540.842, 540.492 544.880, 542.012 548 C 544.424 552.947, 551.669 561, 553.708 561 C 554.419 561, 555.003 561.337, 555.006 561.750 C 555.017 562.966, 560.976 566.001, 563.331 565.990 C 564.759 565.984, 563.793 565.183, 560.500 563.645 C 550.382 558.920, 543.941 551.136, 541.303 540.443 C 536.862 522.447, 548.452 504.349, 566.972 500.359 C 572.178 499.237, 572.267 499.170, 568.500 499.203 C 566.300 499.223, 563.114 499.747, 561.419 500.369 M 306 532.500 L 306 565 313.500 565 L 321 565 321 532.500 L 321 500 313.500 500 L 306 500 306 532.500 M 498 532.500 L 498 565 506 565 L 514 565 514 532.500 L 514 500 506 500 L 498 500 498 532.500 M 58.182 503.500 C 58.023 504.050, 57.667 518.047, 57.390 534.605 L 56.886 564.710 59.732 565.889 C 61.719 566.712, 68.584 566.940, 82.472 566.645 C 100.188 566.268, 102.509 566.024, 103.683 564.420 C 105.304 562.202, 105.420 553.820, 103.851 552.251 C 103.039 551.439, 98.833 551.276, 89.514 551.698 C 77.228 552.253, 76.264 552.164, 75.416 550.397 C 74.915 549.354, 74.262 538.600, 73.965 526.500 L 73.425 504.500 73.212 528.750 L 73 553 88 553 L 103 553 103 559 L 103 565 81.014 565 L 59.028 565 58.749 533.750 C 58.596 516.563, 58.341 502.950, 58.182 503.500 M 367.455 514.455 C 366.105 515.805, 365 517.526, 365 518.280 C 365 521.027, 369.706 523.925, 379 526.902 C 390.158 530.477, 395.108 534.098, 397.540 540.465 C 400.981 549.476, 396.637 559.547, 387.340 564.110 C 383.306 566.090, 381.001 566.480, 373.500 566.447 C 366.045 566.414, 365.187 566.558, 368.500 567.281 C 377.714 569.292, 389.491 566.509, 394.975 561.025 C 401.927 554.073, 402.472 540.517, 396.069 533.815 C 393.023 530.627, 382.432 525, 379.478 525 C 378.335 525, 376.973 524.585, 376.450 524.077 C 375.928 523.569, 374.195 523.007, 372.601 522.827 C 368.509 522.365, 367.081 519.732, 369.032 516.241 C 370.233 514.093, 371.531 513.370, 375.032 512.900 L 379.500 512.300 374.705 512.150 C 370.827 512.029, 369.439 512.470, 367.455 514.455 M 594.579 515.919 L 590.682 519.910 587.866 517.541 C 584.848 515.001, 578.249 512.418, 577.273 513.393 C 576.947 513.719, 578.118 514.274, 579.875 514.625 C 581.851 515.020, 584.343 516.751, 586.406 519.161 L 589.742 523.058 594.522 518.731 C 597.150 516.351, 599.116 513.847, 598.889 513.166 C 598.639 512.416, 596.939 513.502, 594.579 515.919 M 641.052 514.445 C 639.412 516.190, 638.929 517.583, 639.364 519.316 C 640.013 521.899, 643.310 523.594, 656.464 528.110 C 665.075 531.066, 670.316 535.727, 671.978 541.909 C 674.871 552.671, 669.127 561.568, 656.676 565.611 L 652.500 566.966 657.493 566.333 C 663.567 565.563, 667.087 563.097, 671.147 556.771 C 673.939 552.420, 674.192 551.363, 673.826 545.603 C 673.509 540.634, 672.832 538.469, 670.736 535.720 C 668.010 532.146, 656.537 525, 653.525 525 C 651.185 525, 642.071 521.924, 641.454 520.926 C 641.171 520.467, 641.217 518.985, 641.556 517.631 C 642.226 514.963, 645.416 513.296, 651 512.696 C 653.372 512.441, 652.703 512.269, 648.924 512.160 C 644.187 512.024, 643.003 512.368, 641.052 514.445 M 242.370 514.440 C 240.649 515.190, 238.940 516.288, 238.573 516.882 C 238.206 517.475, 239.165 517.331, 240.703 516.560 C 242.241 515.790, 244.625 514.704, 246 514.147 C 247.375 513.591, 247.825 513.123, 247 513.107 C 246.175 513.091, 244.092 513.691, 242.370 514.440 M 258.451 515.354 C 261.174 516.772, 263.551 517.783, 263.732 517.601 C 264.347 516.987, 259.227 514.095, 256.354 513.434 C 254.411 512.987, 255.080 513.600, 258.451 515.354 M 568.030 514.113 C 560.544 517.100, 555 525.255, 555 533.277 C 555 538.845, 558.451 545.550, 563.306 549.413 C 570.227 554.919, 584.671 553.921, 589.939 547.573 C 592.139 544.923, 588.864 545.650, 586.269 548.388 C 581.303 553.628, 569.687 552.964, 562.540 547.034 C 559.898 544.841, 557 537.058, 557 532.155 C 557 528.120, 557.606 526.493, 560.546 522.644 C 562.496 520.090, 564.901 518, 565.891 518 C 566.880 518, 568.482 517.125, 569.449 516.056 C 570.417 514.987, 572.174 513.923, 573.354 513.692 C 575.210 513.329, 575.162 513.263, 573 513.200 C 571.625 513.160, 569.388 513.570, 568.030 514.113 M 657.206 515.373 C 659.890 517.978, 662 518.768, 662 517.169 C 662 516.460, 659.203 514.739, 655.500 513.171 C 654.950 512.938, 655.718 513.929, 657.206 515.373 M 146.500 515.861 C 140.479 519.580, 137.131 525.747, 137.044 533.282 C 136.871 548.178, 153.448 557.794, 167.093 550.713 C 177.721 545.197, 180.197 528.257, 171.702 519.172 C 167.632 514.818, 165.221 514.330, 168.785 518.582 C 170.591 520.737, 172.472 523.010, 172.965 523.633 C 173.457 524.256, 174.367 526.648, 174.986 528.948 C 176.300 533.828, 175.271 538.068, 171.166 544.688 C 168.222 549.434, 165.649 550.899, 158.839 551.705 C 150.985 552.636, 141.706 546.781, 140.359 540.044 C 140.019 538.347, 139.350 536.716, 138.871 536.420 C 135.029 534.046, 143.660 516, 148.637 516 C 149.322 516, 150.160 515.550, 150.500 515 C 151.450 513.462, 149.812 513.814, 146.500 515.861 M 233.138 522.750 C 230.768 527.198, 229.926 533.011, 231.038 537.250 C 233.634 547.137, 240.988 553, 250.795 553 C 257.679 553, 264 550.464, 264 547.703 C 264 545.628, 263.995 545.628, 261.972 547.799 C 260.857 548.996, 258.832 550.206, 257.472 550.488 C 256.113 550.770, 253.935 551.219, 252.633 551.486 C 251.331 551.753, 247.988 551.295, 245.203 550.468 C 239.548 548.788, 235.533 544.557, 232.688 537.278 C 231.133 533.298, 231.146 532.708, 232.914 527.028 C 234.797 520.977, 234.875 519.490, 233.138 522.750 M 269.753 523.980 C 265.919 526.996, 262.004 528.248, 260.448 526.957 C 258.449 525.298, 253.405 525.505, 250.570 527.362 C 247.411 529.432, 246.413 533.082, 248.165 536.157 C 249.435 538.385, 249.515 538.267, 249.805 533.750 L 250.110 529 264.055 529 L 278 529 278 542.411 L 278 555.822 274.880 558.447 C 270.779 561.898, 267.183 563.705, 260.770 565.535 L 255.500 567.039 261.072 566.532 C 267.515 565.945, 271.800 564.046, 275.873 559.973 C 279.434 556.412, 279.929 553.586, 279.561 538.921 C 279.165 523.148, 276.320 518.814, 269.753 523.980 M 624.069 549.428 C 622.258 551.297, 620.949 553.348, 621.162 553.986 C 621.375 554.624, 623.045 553.283, 624.875 551.006 C 629.009 545.862, 628.498 544.859, 624.069 549.428 M 629 546.551 C 629 547.238, 638.090 552.243, 638.533 551.800 C 639.196 551.137, 633.829 547.426, 631.250 546.765 C 630.013 546.447, 629 546.351, 629 546.551 M 596.652 550.428 C 599.907 554.346, 601.642 555.068, 599.877 551.771 C 598.306 548.836, 596.419 547, 594.973 547 C 594.329 547, 595.085 548.543, 596.652 550.428 M 595.563 559.617 C 591.788 562.895, 581.314 567, 576.728 567 C 575.594 567, 574.946 567.280, 575.288 567.622 C 576.329 568.663, 589.302 565.802, 592.500 563.826 C 594.150 562.806, 596.273 561.705, 597.217 561.378 C 598.770 560.841, 600.675 557.318, 599.841 556.525 C 599.654 556.346, 597.728 557.738, 595.563 559.617 M 620.226 558.179 C 620.678 559.534, 621.456 559.997, 629.096 563.462 C 632.175 564.858, 635.550 565.979, 636.596 565.953 C 637.643 565.927, 636.453 565.105, 633.952 564.127 C 631.451 563.148, 627.634 561.144, 625.470 559.673 C 621.214 556.781, 619.608 556.324, 620.226 558.179" stroke="none" fill="#000000" fill-rule="evenodd"/><path d="M 49.202 350.022 C 38.375 352.859, 30.484 357.434, 22.342 365.596 C 10.803 377.166, 5.474 390.535, 5.640 407.500 C 5.797 423.549, 11.007 435.905, 22.500 447.487 C 30.216 455.263, 39.817 460.936, 49.552 463.472 C 56.407 465.257, 70.626 465.471, 78.201 463.903 C 86.067 462.275, 96.780 456.789, 102.985 451.211 L 108.471 446.281 104.785 441.890 C 102.758 439.476, 99.557 435.711, 97.671 433.524 L 94.243 429.548 89.997 433.384 C 80.393 442.061, 65.847 445.216, 54.753 441.028 C 46.782 438.019, 38.913 430.601, 34.774 422.193 C 31.807 416.165, 31.501 414.697, 31.505 406.521 C 31.510 398.544, 31.849 396.831, 34.431 391.722 C 42.142 376.468, 60.629 367.743, 75.108 372.526 C 80.877 374.431, 83.459 375.838, 89.018 380.102 L 92.535 382.800 99.987 374.745 L 107.439 366.691 101.969 361.788 C 95.863 356.314, 87.164 351.660, 78.955 349.475 C 71.380 347.460, 58.047 347.705, 49.202 350.022 M 671.251 349.487 C 654.379 354.216, 645.133 364.986, 644.207 380.988 C 643.414 394.676, 648.252 403.668, 659.674 409.735 C 662.878 411.437, 671.800 414.706, 679.500 417 C 687.200 419.293, 694.885 422.020, 696.578 423.060 C 704.019 427.630, 703.507 437.633, 695.643 441.365 C 690.717 443.703, 678.869 443.512, 670.614 440.962 C 666.985 439.842, 661.110 436.935, 657.557 434.502 L 651.098 430.080 645.049 437.599 C 641.722 441.735, 639 445.927, 639 446.914 C 639 449.044, 648.508 455.970, 656.380 459.574 C 667.293 464.570, 684.251 466.365, 697.464 463.922 C 716.347 460.431, 728 447.611, 728 430.329 C 728 421.119, 726.346 416.540, 720.846 410.522 C 715.065 404.196, 708.272 400.758, 690.208 395.014 C 679.762 391.692, 676.148 390.062, 673.326 387.401 C 670.134 384.390, 669.801 383.612, 670.325 380.383 C 672.279 368.343, 690.544 366.332, 707.145 376.328 L 712.790 379.728 718.895 371.485 C 722.253 366.951, 725 362.728, 725 362.099 C 725 360.330, 713.653 353.416, 706.723 350.962 C 698.588 348.081, 679.150 347.273, 671.251 349.487 M 160.252 365.250 C 156.897 373.637, 146.692 398.928, 137.576 421.452 C 128.459 443.975, 121 462.537, 121 462.702 C 121 462.866, 126.985 463, 134.299 463 L 147.598 463 148.941 459.250 C 149.679 457.188, 151.609 452.012, 153.229 447.750 L 156.175 440 179.838 440.017 L 203.500 440.034 207.884 451.517 L 212.268 463 225.241 463 C 237.177 463, 238.162 462.860, 237.565 461.250 C 237.207 460.288, 226.936 434.863, 214.740 404.750 L 192.565 350 179.459 350 L 166.353 350 160.252 365.250 M 256.667 350.667 C 256.300 351.033, 256 376.458, 256 407.167 L 256 463 268.488 463 L 280.975 463 281.238 426.520 L 281.500 390.040 298.500 413.449 C 307.850 426.324, 316.193 437.049, 317.041 437.281 C 318.374 437.647, 334.971 415.861, 350.250 393.690 L 353 389.699 353 426.350 L 353 463 365.500 463 L 378 463 378 406.500 L 378 350 365.750 350.038 L 353.500 350.075 335.619 375.538 C 325.785 389.542, 317.460 400.984, 317.119 400.964 C 316.779 400.945, 308.412 389.470, 298.527 375.464 L 280.554 350 268.944 350 C 262.558 350, 257.033 350.300, 256.667 350.667 M 408.242 406.250 L 408.500 462.500 421.250 462.780 L 434 463.060 434 445.660 L 434 428.260 450.250 427.748 C 474.184 426.994, 483.090 423.547, 492.181 411.518 C 497.250 404.812, 499.383 396.516, 498.816 385.713 C 498.268 375.282, 495.154 368.288, 488.130 361.718 C 477.132 351.431, 470.818 350.034, 435.242 350.015 L 407.983 350 408.242 406.250 M 520.667 350.667 C 520.300 351.033, 520 368.039, 520 388.457 C 520 427.953, 520.389 431.962, 525.120 441.235 C 528.060 446.998, 537.560 456.237, 543.795 459.396 C 560.036 467.626, 584.107 466.557, 599.093 456.940 C 604.933 453.193, 611.169 446.550, 613.933 441.131 C 618.458 432.261, 618.970 426.810, 618.985 387.250 L 619 350 606.500 350 L 594 350 594 385.318 C 594 424.613, 593.567 428.006, 587.707 434.681 C 581.155 442.144, 569.277 444.431, 559.512 440.109 C 553.027 437.239, 550.671 434.929, 547.831 428.652 C 545.546 423.602, 545.494 422.772, 545.194 386.750 L 544.887 350 533.110 350 C 526.633 350, 521.033 350.300, 520.667 350.667 M 434 388.355 L 434 405 447.250 404.978 C 463.506 404.951, 467.663 403.540, 471.051 396.901 C 473.726 391.657, 473.399 383.351, 470.358 379.277 C 466.714 374.396, 462.653 373.162, 447.750 372.406 L 434 371.709 434 388.355 M 178.259 380 C 175.708 386.510, 164 418.854, 164 419.391 C 164 419.726, 171.023 420, 179.607 420 C 191.676 420, 195.108 419.717, 194.745 418.750 C 194.487 418.063, 191.117 409.175, 187.257 399 C 183.396 388.825, 180.013 379.825, 179.738 379 C 179.376 377.912, 178.969 378.187, 178.259 380 M 153 500.077 C 149.425 500.412, 144.925 501.378, 143 502.224 C 128.092 508.773, 120.136 524.041, 123.394 539.851 C 125.641 550.753, 132.278 558.907, 142.954 563.881 C 147.587 566.040, 149.900 566.458, 157 566.422 C 167.861 566.366, 175.760 563.102, 182.516 555.879 C 189.213 548.719, 191.334 543.274, 191.425 533 C 191.490 525.646, 191.126 523.739, 188.730 518.858 C 182.142 505.443, 169.068 498.572, 153 500.077 M 243.132 500.027 C 232.720 502.193, 223.571 509.194, 218.992 518.500 C 216.906 522.738, 216.529 524.948, 216.516 533 C 216.502 541.382, 216.827 543.166, 219.280 548.161 C 222.625 554.973, 228.294 560.322, 235.880 563.824 C 240.611 566.008, 242.923 566.419, 250.500 566.419 C 258.206 566.419, 260.357 566.024, 265.458 563.670 C 268.735 562.158, 272.897 559.790, 274.708 558.409 L 278 555.898 278 542.449 L 278 529 264 529 L 250 529 250 533.965 C 250 539.904, 251.392 541, 258.934 541 L 264 541 264 545.348 C 264 549.478, 263.793 549.790, 259.858 551.564 C 252.192 555.021, 240.852 553.032, 235.871 547.356 C 232.571 543.597, 230.681 538.432, 230.618 533 C 230.438 517.470, 246.411 508.318, 261.356 515.389 C 264.392 516.825, 267.263 518, 267.735 518 C 268.208 518, 270.289 516.264, 272.361 514.143 L 276.128 510.285 272.814 507.483 C 265.264 501.098, 252.906 497.994, 243.132 500.027 M 365.939 500.365 C 353.349 503.760, 346.877 515.918, 352.013 526.528 C 354.820 532.325, 359.062 535.114, 370.155 538.456 C 374.916 539.890, 379.978 541.982, 381.405 543.104 C 384.806 545.780, 384.746 549.264, 381.250 552.034 C 377.253 555.202, 368.252 554.370, 360.378 550.105 L 354.583 546.967 350.834 551.233 C 348.772 553.580, 347.066 555.791, 347.043 556.146 C 346.972 557.221, 356.289 562.834, 361.043 564.579 C 367.104 566.804, 381.239 566.840, 386.216 564.642 C 398.051 559.417, 402.342 545.061, 394.898 535.597 C 392.264 532.249, 385.610 528.855, 376.190 526.053 C 365.248 522.799, 362.116 518.414, 367.635 514.073 C 371.278 511.207, 378.070 511.354, 384.704 514.442 L 389.908 516.865 393.427 512.183 L 396.945 507.500 394.222 505.233 C 390.766 502.355, 380.048 498.980, 374.645 499.067 C 372.365 499.105, 368.447 499.688, 365.939 500.365 M 568.871 500.018 C 557.790 501.889, 548.835 508.527, 543.919 518.512 C 541.150 524.137, 540.759 525.941, 540.789 532.939 C 540.830 542.230, 543.428 549.148, 549.332 555.682 C 559.018 566.404, 576.912 569.677, 589.825 563.089 C 594.095 560.911, 600 556.261, 600 555.077 C 600 554.668, 598.228 552.414, 596.063 550.068 L 592.126 545.804 588.313 548.842 C 582.696 553.317, 576.521 554.584, 569.823 552.637 C 551.523 547.317, 549.789 521.836, 567.232 514.548 C 574.150 511.657, 584.920 513.566, 588.913 518.390 C 590.214 519.962, 590.668 519.761, 594.663 515.840 C 597.048 513.499, 599 511.025, 599 510.343 C 599 509.660, 597.513 507.967, 595.695 506.581 C 588.274 500.920, 578.168 498.448, 568.871 500.018 M 638.216 500.829 C 631.875 503.093, 628.370 506.128, 625.890 511.500 C 623.532 516.610, 623.549 521.409, 625.943 526.684 C 628.406 532.109, 633.198 535.165, 644.500 538.521 C 655.336 541.738, 658.899 544.542, 657.435 548.703 C 655.188 555.093, 645.656 555.837, 635.323 550.430 L 628.500 546.860 624.753 551.180 C 622.692 553.556, 621.005 555.725, 621.005 556 C 621.003 557.054, 630.708 563.015, 635 564.596 C 641.670 567.052, 654.299 566.908, 660 564.311 C 671.715 558.972, 676.131 546.426, 669.670 536.838 C 666.864 532.674, 661.757 529.756, 651.200 526.284 C 642.319 523.364, 639 521.100, 639 517.961 C 639 511.856, 649.530 509.908, 658.362 514.380 L 663.063 516.760 666.653 512.379 C 670.906 507.188, 670.569 506.404, 662.358 502.387 C 655.083 498.828, 645.546 498.212, 638.216 500.829 M 307 532.454 L 307 565 314.014 565 L 321.028 565 320.764 532.750 L 320.500 500.500 313.750 500.204 L 307 499.909 307 532.454 M 420 503.375 C 420 505.231, 420.281 508.156, 420.625 509.875 L 421.250 513 430.125 513 L 439 513 439 539 L 439 565 447 565 L 455 565 455 539 L 455 513 464.500 513 L 474 513 474 506.500 L 474 500 447 500 L 420 500 420 503.375 M 498.706 500.627 C 498.318 501.015, 498 515.658, 498 533.167 L 498 565 506.014 565 L 514.028 565 513.764 532.750 L 513.500 500.500 506.456 500.210 C 502.582 500.051, 499.095 500.239, 498.706 500.627 M 59.667 501.667 C 59.300 502.033, 59 516.433, 59 533.667 L 59 565 81 565 L 103 565 103 559 L 103 553 88 553 L 73 553 73 528.200 C 73 510.244, 72.669 503.069, 71.800 502.200 C 70.542 500.942, 60.818 500.515, 59.667 501.667 M 148.500 514.606 C 135.169 521.880, 133.046 538.809, 144.235 548.633 C 153.748 556.985, 168.792 554.247, 174.676 543.093 C 179.329 534.270, 176.792 523.031, 168.694 516.587 C 165.450 514.007, 163.897 513.515, 158.194 513.264 C 153.428 513.055, 150.636 513.441, 148.500 514.606" stroke="none" fill="#ffffff" fill-rule="evenodd"/></svg>